<?xml version="1.0" encoding="utf-8" standalone="no"?>
<!DOCTYPE svg PUBLIC "-//W3C//DTD SVG 1.1//EN"
  "http://www.w3.org/Graphics/SVG/1.1/DTD/svg11.dtd">
<!-- Created with matplotlib (http://matplotlib.org/) -->
<svg height="610pt" version="1.1" viewBox="0 0 730 610" width="730pt" xmlns="http://www.w3.org/2000/svg" xmlns:xlink="http://www.w3.org/1999/xlink">
 <defs>
  <style type="text/css">
*{stroke-linecap:butt;stroke-linejoin:round;stroke-miterlimit:100000;}
  </style>
 </defs>
 <g id="figure_1">
  <g id="patch_1">
   <path d="M 0 610.17 
L 730.393125 610.17 
L 730.393125 0 
L 0 0 
z
" style="fill:#f0f0f0;"/>
  </g>
  <g id="axes_1">
   <g id="patch_2">
    <path d="M 72 531.36 
L 698.4 531.36 
L 698.4 53.28 
L 72 53.28 
z
" style="fill:#f0f0f0;"/>
   </g>
   <g id="matplotlib.axis_1">
    <g id="xtick_1">
     <g id="line2d_1">
      <path clip-path="url(#p7b463bf8f2)" d="M 72 531.36 
L 72 53.28 
" style="fill:none;stroke:#cbcbcb;"/>
     </g>
     <g id="line2d_2"/>
     <g id="line2d_3"/>
     <g id="text_1">
      <!-- 1995 -->
      <defs>
       <path d="M 52.828125 22.90625 
Q 52.828125 17.71875 51.1875 13.34375 
Q 49.5625 8.984375 46.328125 5.78125 
Q 43.109375 2.59375 38.34375 0.796875 
Q 33.59375 -0.984375 27.34375 -0.984375 
Q 21.578125 -0.984375 17.28125 0.40625 
Q 12.984375 1.8125 10.03125 4.265625 
Q 7.078125 6.734375 5.390625 10.046875 
Q 3.71875 13.375 3.078125 17.1875 
L 16.796875 18.3125 
Q 17.1875 16.703125 17.890625 15.1875 
Q 18.609375 13.671875 19.875 12.5 
Q 21.140625 11.328125 23 10.609375 
Q 24.859375 9.90625 27.484375 9.90625 
Q 32.625 9.90625 35.671875 13.171875 
Q 38.71875 16.453125 38.71875 22.609375 
Q 38.71875 25.34375 37.953125 27.53125 
Q 37.203125 29.734375 35.8125 31.296875 
Q 34.421875 32.859375 32.390625 33.6875 
Q 30.375 34.515625 27.78125 34.515625 
Q 24.359375 34.515625 22.15625 33.21875 
Q 19.96875 31.9375 18.453125 30.078125 
L 5.078125 30.078125 
L 7.46875 68.796875 
L 48.828125 68.796875 
L 48.828125 58.59375 
L 19.921875 58.59375 
L 18.796875 41.21875 
Q 20.84375 43.015625 23.96875 44.3125 
Q 27.09375 45.609375 31.25 45.609375 
Q 36.328125 45.609375 40.328125 43.9375 
Q 44.34375 42.28125 47.125 39.296875 
Q 49.90625 36.328125 51.359375 32.15625 
Q 52.828125 27.984375 52.828125 22.90625 
" id="LiberationSans-Bold-35"/>
       <path d="M 6.296875 0 
L 6.296875 10.203125 
L 23.34375 10.203125 
L 23.34375 57.125 
L 6.84375 46.828125 
L 6.84375 57.625 
L 24.078125 68.796875 
L 37.0625 68.796875 
L 37.0625 10.203125 
L 52.828125 10.203125 
L 52.828125 0 
z
" id="LiberationSans-Bold-31"/>
       <path d="M 51.90625 35.5 
Q 51.90625 17.1875 45.21875 8.09375 
Q 38.53125 -0.984375 26.21875 -0.984375 
Q 21.78125 -0.984375 18.234375 -0.046875 
Q 14.703125 0.875 12.0625 2.828125 
Q 9.421875 4.78125 7.59375 7.859375 
Q 5.765625 10.9375 4.6875 15.1875 
L 17.578125 17 
Q 18.5625 13.328125 20.78125 11.5625 
Q 23 9.8125 26.375 9.8125 
Q 29.15625 9.8125 31.34375 11.125 
Q 33.546875 12.453125 35.109375 15.140625 
Q 36.671875 17.828125 37.515625 21.953125 
Q 38.375 26.078125 38.421875 31.6875 
Q 37.453125 29.78125 35.84375 28.3125 
Q 34.234375 26.859375 32.203125 25.875 
Q 30.171875 24.90625 27.875 24.390625 
Q 25.59375 23.875 23.25 23.875 
Q 18.75 23.875 15.078125 25.453125 
Q 11.421875 27.046875 8.828125 30.03125 
Q 6.25 33.015625 4.859375 37.234375 
Q 3.46875 41.453125 3.46875 46.78125 
Q 3.46875 52.25 5.09375 56.546875 
Q 6.734375 60.84375 9.8125 63.796875 
Q 12.890625 66.75 17.359375 68.28125 
Q 21.828125 69.828125 27.484375 69.828125 
Q 33.453125 69.828125 38.015625 67.796875 
Q 42.578125 65.765625 45.65625 61.546875 
Q 48.734375 57.328125 50.3125 50.859375 
Q 51.90625 44.390625 51.90625 35.5 
M 37.40625 45.125 
Q 37.40625 48.046875 36.734375 50.609375 
Q 36.078125 53.171875 34.765625 55.046875 
Q 33.453125 56.9375 31.546875 58 
Q 29.640625 59.078125 27.15625 59.078125 
Q 24.859375 59.078125 23.046875 58.21875 
Q 21.234375 57.375 19.96875 55.765625 
Q 18.703125 54.15625 18.046875 51.859375 
Q 17.390625 49.5625 17.390625 46.6875 
Q 17.390625 44 18.015625 41.671875 
Q 18.65625 39.359375 19.875 37.671875 
Q 21.09375 35.984375 22.953125 35.03125 
Q 24.8125 34.078125 27.203125 34.078125 
Q 29.109375 34.078125 30.9375 34.765625 
Q 32.765625 35.453125 34.203125 36.8125 
Q 35.640625 38.1875 36.515625 40.25 
Q 37.40625 42.328125 37.40625 45.125 
" id="LiberationSans-Bold-39"/>
      </defs>
      <g style="fill:#262626;" transform="translate(58.65375 547.05625)scale(0.12 -0.12)">
       <use xlink:href="#LiberationSans-Bold-31"/>
       <use x="55.615234375" xlink:href="#LiberationSans-Bold-39"/>
       <use x="111.23046875" xlink:href="#LiberationSans-Bold-39"/>
       <use x="166.845703125" xlink:href="#LiberationSans-Bold-35"/>
      </g>
     </g>
    </g>
    <g id="xtick_2">
     <g id="line2d_4">
      <path clip-path="url(#p7b463bf8f2)" d="M 214.363636 531.36 
L 214.363636 53.28 
" style="fill:none;stroke:#cbcbcb;"/>
     </g>
     <g id="line2d_5"/>
     <g id="line2d_6"/>
     <g id="text_2">
      <!-- 2000 -->
      <defs>
       <path d="M 51.515625 34.421875 
Q 51.515625 24.5625 49.703125 17.796875 
Q 47.90625 11.03125 44.703125 6.859375 
Q 41.5 2.6875 37.125 0.84375 
Q 32.765625 -0.984375 27.59375 -0.984375 
Q 22.40625 -0.984375 18.0625 0.828125 
Q 13.71875 2.640625 10.59375 6.8125 
Q 7.46875 10.984375 5.703125 17.75 
Q 3.953125 24.515625 3.953125 34.421875 
Q 3.953125 44.828125 5.6875 51.640625 
Q 7.421875 58.453125 10.59375 62.5 
Q 13.765625 66.546875 18.1875 68.1875 
Q 22.609375 69.828125 27.984375 69.828125 
Q 33.015625 69.828125 37.328125 68.1875 
Q 41.65625 66.546875 44.796875 62.5 
Q 47.953125 58.453125 49.734375 51.640625 
Q 51.515625 44.828125 51.515625 34.421875 
M 37.75 34.421875 
Q 37.75 41.703125 37.203125 46.453125 
Q 36.671875 51.21875 35.5 54.03125 
Q 34.328125 56.84375 32.4375 57.953125 
Q 30.5625 59.078125 27.875 59.078125 
Q 25 59.078125 23.046875 57.921875 
Q 21.09375 56.78125 19.890625 53.953125 
Q 18.703125 51.125 18.1875 46.359375 
Q 17.671875 41.609375 17.671875 34.421875 
Q 17.671875 27.34375 18.203125 22.609375 
Q 18.75 17.875 19.921875 15.015625 
Q 21.09375 12.15625 23 10.984375 
Q 24.90625 9.8125 27.6875 9.8125 
Q 30.375 9.8125 32.28125 10.984375 
Q 34.1875 12.15625 35.40625 15.015625 
Q 36.625 17.875 37.1875 22.609375 
Q 37.75 27.34375 37.75 34.421875 
" id="LiberationSans-Bold-30"/>
       <path d="M 3.46875 0 
L 3.46875 9.515625 
Q 5.8125 14.65625 9.171875 18.78125 
Q 12.546875 22.90625 16.234375 26.34375 
Q 19.921875 29.78125 23.5625 32.734375 
Q 27.203125 35.6875 30.109375 38.453125 
Q 33.015625 41.21875 34.8125 44 
Q 36.625 46.78125 36.625 49.90625 
Q 36.625 54.5 34.328125 56.6875 
Q 32.03125 58.890625 27.59375 58.890625 
Q 23.1875 58.890625 20.875 56.515625 
Q 18.5625 54.15625 17.875 49.421875 
L 4.046875 50.203125 
Q 4.546875 54.25 6.046875 57.8125 
Q 7.5625 61.375 10.375 64.0625 
Q 13.1875 66.75 17.40625 68.28125 
Q 21.625 69.828125 27.484375 69.828125 
Q 33.0625 69.828125 37.359375 68.53125 
Q 41.65625 67.234375 44.578125 64.734375 
Q 47.515625 62.25 49.015625 58.65625 
Q 50.53125 55.078125 50.53125 50.484375 
Q 50.53125 45.65625 48.625 41.75 
Q 46.734375 37.84375 43.75 34.546875 
Q 40.765625 31.25 37.125 28.359375 
Q 33.5 25.484375 30.078125 22.75 
Q 26.65625 20.015625 23.84375 17.234375 
Q 21.046875 14.453125 19.671875 11.28125 
L 51.609375 11.28125 
L 51.609375 0 
z
" id="LiberationSans-Bold-32"/>
      </defs>
      <g style="fill:#262626;" transform="translate(201.017386364 547.05625)scale(0.12 -0.12)">
       <use xlink:href="#LiberationSans-Bold-32"/>
       <use x="55.615234375" xlink:href="#LiberationSans-Bold-30"/>
       <use x="111.23046875" xlink:href="#LiberationSans-Bold-30"/>
       <use x="166.845703125" xlink:href="#LiberationSans-Bold-30"/>
      </g>
     </g>
    </g>
    <g id="xtick_3">
     <g id="line2d_7">
      <path clip-path="url(#p7b463bf8f2)" d="M 356.727273 531.36 
L 356.727273 53.28 
" style="fill:none;stroke:#cbcbcb;"/>
     </g>
     <g id="line2d_8"/>
     <g id="line2d_9"/>
     <g id="text_3">
      <!-- 2005 -->
      <g style="fill:#262626;" transform="translate(343.381022727 547.05625)scale(0.12 -0.12)">
       <use xlink:href="#LiberationSans-Bold-32"/>
       <use x="55.615234375" xlink:href="#LiberationSans-Bold-30"/>
       <use x="111.23046875" xlink:href="#LiberationSans-Bold-30"/>
       <use x="166.845703125" xlink:href="#LiberationSans-Bold-35"/>
      </g>
     </g>
    </g>
    <g id="xtick_4">
     <g id="line2d_10">
      <path clip-path="url(#p7b463bf8f2)" d="M 499.090909 531.36 
L 499.090909 53.28 
" style="fill:none;stroke:#cbcbcb;"/>
     </g>
     <g id="line2d_11"/>
     <g id="line2d_12"/>
     <g id="text_4">
      <!-- 2010 -->
      <g style="fill:#262626;" transform="translate(485.744659091 547.05625)scale(0.12 -0.12)">
       <use xlink:href="#LiberationSans-Bold-32"/>
       <use x="55.615234375" xlink:href="#LiberationSans-Bold-30"/>
       <use x="111.23046875" xlink:href="#LiberationSans-Bold-31"/>
       <use x="166.845703125" xlink:href="#LiberationSans-Bold-30"/>
      </g>
     </g>
    </g>
    <g id="xtick_5">
     <g id="line2d_13">
      <path clip-path="url(#p7b463bf8f2)" d="M 641.454545 531.36 
L 641.454545 53.28 
" style="fill:none;stroke:#cbcbcb;"/>
     </g>
     <g id="line2d_14"/>
     <g id="line2d_15"/>
     <g id="text_5">
      <!-- 2015 -->
      <g style="fill:#262626;" transform="translate(628.108295455 547.05625)scale(0.12 -0.12)">
       <use xlink:href="#LiberationSans-Bold-32"/>
       <use x="55.615234375" xlink:href="#LiberationSans-Bold-30"/>
       <use x="111.23046875" xlink:href="#LiberationSans-Bold-31"/>
       <use x="166.845703125" xlink:href="#LiberationSans-Bold-35"/>
      </g>
     </g>
    </g>
    <g id="xtick_6">
     <g id="line2d_16"/>
     <g id="line2d_17"/>
    </g>
    <g id="xtick_7">
     <g id="line2d_18"/>
     <g id="line2d_19"/>
    </g>
    <g id="xtick_8">
     <g id="line2d_20"/>
     <g id="line2d_21"/>
    </g>
    <g id="xtick_9">
     <g id="line2d_22"/>
     <g id="line2d_23"/>
    </g>
    <g id="xtick_10">
     <g id="line2d_24"/>
     <g id="line2d_25"/>
    </g>
    <g id="xtick_11">
     <g id="line2d_26"/>
     <g id="line2d_27"/>
    </g>
    <g id="xtick_12">
     <g id="line2d_28"/>
     <g id="line2d_29"/>
    </g>
    <g id="xtick_13">
     <g id="line2d_30"/>
     <g id="line2d_31"/>
    </g>
    <g id="xtick_14">
     <g id="line2d_32"/>
     <g id="line2d_33"/>
    </g>
    <g id="xtick_15">
     <g id="line2d_34"/>
     <g id="line2d_35"/>
    </g>
    <g id="xtick_16">
     <g id="line2d_36"/>
     <g id="line2d_37"/>
    </g>
    <g id="xtick_17">
     <g id="line2d_38"/>
     <g id="line2d_39"/>
    </g>
    <g id="xtick_18">
     <g id="line2d_40"/>
     <g id="line2d_41"/>
    </g>
    <g id="xtick_19">
     <g id="line2d_42"/>
     <g id="line2d_43"/>
    </g>
    <g id="xtick_20">
     <g id="line2d_44"/>
     <g id="line2d_45"/>
    </g>
    <g id="xtick_21">
     <g id="line2d_46"/>
     <g id="line2d_47"/>
    </g>
    <g id="xtick_22">
     <g id="line2d_48"/>
     <g id="line2d_49"/>
    </g>
    <g id="xtick_23">
     <g id="line2d_50"/>
     <g id="line2d_51"/>
    </g>
    <g id="xtick_24">
     <g id="line2d_52"/>
     <g id="line2d_53"/>
    </g>
    <g id="xtick_25">
     <g id="line2d_54"/>
     <g id="line2d_55"/>
    </g>
    <g id="xtick_26">
     <g id="line2d_56"/>
     <g id="line2d_57"/>
    </g>
    <g id="xtick_27">
     <g id="line2d_58"/>
     <g id="line2d_59"/>
    </g>
    <g id="xtick_28">
     <g id="line2d_60"/>
     <g id="line2d_61"/>
    </g>
    <g id="text_6">
     <!-- Year -->
     <defs>
      <path d="M 13.484375 24.5625 
Q 13.484375 20.40625 14.328125 16.90625 
Q 15.1875 13.421875 16.96875 10.90625 
Q 18.75 8.40625 21.53125 7 
Q 24.3125 5.609375 28.21875 5.609375 
Q 33.9375 5.609375 37.375 7.90625 
Q 40.828125 10.203125 42.046875 13.71875 
L 49.75 11.53125 
Q 48.921875 9.328125 47.4375 7.109375 
Q 45.953125 4.890625 43.453125 3.09375 
Q 40.96875 1.3125 37.234375 0.15625 
Q 33.5 -0.984375 28.21875 -0.984375 
Q 16.5 -0.984375 10.375 6 
Q 4.25 12.984375 4.25 26.765625 
Q 4.25 34.1875 6.09375 39.328125 
Q 7.953125 44.484375 11.171875 47.703125 
Q 14.40625 50.921875 18.703125 52.359375 
Q 23 53.8125 27.875 53.8125 
Q 34.515625 53.8125 38.984375 51.65625 
Q 43.453125 49.515625 46.15625 45.71875 
Q 48.875 41.9375 50.015625 36.8125 
Q 51.171875 31.6875 51.171875 25.734375 
L 51.171875 24.5625 
z
M 42.09375 31.296875 
Q 41.359375 39.65625 37.84375 43.484375 
Q 34.328125 47.3125 27.734375 47.3125 
Q 25.53125 47.3125 23.109375 46.609375 
Q 20.703125 45.90625 18.65625 44.09375 
Q 16.609375 42.28125 15.1875 39.171875 
Q 13.765625 36.078125 13.578125 31.296875 
z
" id="LiberationSans-65"/>
      <path d="M 37.9375 28.515625 
L 37.9375 0 
L 28.65625 0 
L 28.65625 28.515625 
L 2.203125 68.796875 
L 12.453125 68.796875 
L 33.40625 36.03125 
L 54.25 68.796875 
L 64.5 68.796875 
z
" id="LiberationSans-59"/>
      <path d="M 20.21875 -0.984375 
Q 12.25 -0.984375 8.25 3.21875 
Q 4.25 7.421875 4.25 14.75 
Q 4.25 19.96875 6.21875 23.3125 
Q 8.203125 26.65625 11.390625 28.5625 
Q 14.59375 30.46875 18.6875 31.203125 
Q 22.796875 31.9375 27.046875 32.03125 
L 38.921875 32.234375 
L 38.921875 35.109375 
Q 38.921875 38.375 38.234375 40.671875 
Q 37.546875 42.96875 36.125 44.375 
Q 34.71875 45.796875 32.59375 46.453125 
Q 30.46875 47.125 27.59375 47.125 
Q 25.046875 47.125 23 46.75 
Q 20.953125 46.390625 19.4375 45.4375 
Q 17.921875 44.484375 16.984375 42.84375 
Q 16.0625 41.21875 15.765625 38.71875 
L 6.59375 39.546875 
Q 7.078125 42.671875 8.4375 45.28125 
Q 9.8125 47.90625 12.328125 49.796875 
Q 14.84375 51.703125 18.625 52.75 
Q 22.40625 53.8125 27.78125 53.8125 
Q 37.75 53.8125 42.765625 49.234375 
Q 47.796875 44.671875 47.796875 36.03125 
L 47.796875 13.28125 
Q 47.796875 9.375 48.828125 7.390625 
Q 49.859375 5.421875 52.734375 5.421875 
Q 53.46875 5.421875 54.203125 5.515625 
Q 54.9375 5.609375 55.609375 5.765625 
L 55.609375 0.296875 
Q 53.953125 -0.09375 52.3125 -0.28125 
Q 50.6875 -0.484375 48.828125 -0.484375 
Q 46.34375 -0.484375 44.5625 0.171875 
Q 42.78125 0.828125 41.65625 2.171875 
Q 40.53125 3.515625 39.9375 5.484375 
Q 39.359375 7.46875 39.203125 10.109375 
L 38.921875 10.109375 
Q 37.5 7.5625 35.8125 5.515625 
Q 34.125 3.46875 31.875 2.03125 
Q 29.640625 0.59375 26.78125 -0.1875 
Q 23.921875 -0.984375 20.21875 -0.984375 
M 22.21875 5.609375 
Q 26.421875 5.609375 29.5625 7.140625 
Q 32.71875 8.6875 34.78125 11.078125 
Q 36.859375 13.484375 37.890625 16.3125 
Q 38.921875 19.140625 38.921875 21.734375 
L 38.921875 26.078125 
L 29.296875 25.875 
Q 26.078125 25.828125 23.171875 25.40625 
Q 20.265625 25 18.0625 23.78125 
Q 15.875 22.5625 14.578125 20.359375 
Q 13.28125 18.171875 13.28125 14.59375 
Q 13.28125 10.296875 15.59375 7.953125 
Q 17.921875 5.609375 22.21875 5.609375 
" id="LiberationSans-61"/>
      <path d="M 6.9375 0 
L 6.9375 40.53125 
Q 6.9375 42.1875 6.90625 43.921875 
Q 6.890625 45.65625 6.828125 47.265625 
Q 6.78125 48.875 6.734375 50.28125 
Q 6.6875 51.703125 6.640625 52.828125 
L 14.9375 52.828125 
Q 14.984375 51.703125 15.0625 50.265625 
Q 15.140625 48.828125 15.203125 47.3125 
Q 15.28125 45.796875 15.296875 44.40625 
Q 15.328125 43.015625 15.328125 42.046875 
L 15.53125 42.046875 
Q 16.453125 45.0625 17.5 47.28125 
Q 18.5625 49.515625 19.96875 50.953125 
Q 21.390625 52.390625 23.34375 53.09375 
Q 25.296875 53.8125 28.078125 53.8125 
Q 29.15625 53.8125 30.125 53.640625 
Q 31.109375 53.46875 31.640625 53.328125 
L 31.640625 45.265625 
Q 30.765625 45.515625 29.59375 45.625 
Q 28.421875 45.75 26.953125 45.75 
Q 23.921875 45.75 21.796875 44.375 
Q 19.671875 43.015625 18.328125 40.59375 
Q 17 38.1875 16.359375 34.84375 
Q 15.71875 31.5 15.71875 27.546875 
L 15.71875 0 
z
" id="LiberationSans-72"/>
     </defs>
     <g style="fill:#262626;" transform="translate(367.4694375 566.721)scale(0.168 -0.168)">
      <use xlink:href="#LiberationSans-59"/>
      <use x="66.55859375" xlink:href="#LiberationSans-65"/>
      <use x="122.173828125" xlink:href="#LiberationSans-61"/>
      <use x="177.7890625" xlink:href="#LiberationSans-72"/>
     </g>
    </g>
   </g>
   <g id="matplotlib.axis_2">
    <g id="ytick_1">
     <g id="line2d_62">
      <path clip-path="url(#p7b463bf8f2)" d="M 72 531.36 
L 698.4 531.36 
" style="fill:none;stroke:#cbcbcb;"/>
     </g>
     <g id="line2d_63"/>
     <g id="line2d_64"/>
     <g id="text_7">
      <!-- −1500 -->
      <defs>
       <path d="M 4.15625 27.78125 
L 4.15625 38.71875 
L 54.296875 38.71875 
L 54.296875 27.78125 
z
" id="LiberationSans-Bold-2212"/>
      </defs>
      <g style="fill:#262626;" transform="translate(31.29875 534.463125)scale(0.12 -0.12)">
       <use xlink:href="#LiberationSans-Bold-2212"/>
       <use x="58.3984375" xlink:href="#LiberationSans-Bold-31"/>
       <use x="114.013671875" xlink:href="#LiberationSans-Bold-35"/>
       <use x="169.62890625" xlink:href="#LiberationSans-Bold-30"/>
       <use x="225.244140625" xlink:href="#LiberationSans-Bold-30"/>
      </g>
     </g>
    </g>
    <g id="ytick_2">
     <g id="line2d_65">
      <path clip-path="url(#p7b463bf8f2)" d="M 72 411.84 
L 698.4 411.84 
" style="fill:none;stroke:#cbcbcb;"/>
     </g>
     <g id="line2d_66"/>
     <g id="line2d_67"/>
     <g id="text_8">
      <!-- −1000 -->
      <g style="fill:#262626;" transform="translate(31.29875 414.943125)scale(0.12 -0.12)">
       <use xlink:href="#LiberationSans-Bold-2212"/>
       <use x="58.3984375" xlink:href="#LiberationSans-Bold-31"/>
       <use x="114.013671875" xlink:href="#LiberationSans-Bold-30"/>
       <use x="169.62890625" xlink:href="#LiberationSans-Bold-30"/>
       <use x="225.244140625" xlink:href="#LiberationSans-Bold-30"/>
      </g>
     </g>
    </g>
    <g id="ytick_3">
     <g id="line2d_68">
      <path clip-path="url(#p7b463bf8f2)" d="M 72 292.32 
L 698.4 292.32 
" style="fill:none;stroke:#cbcbcb;"/>
     </g>
     <g id="line2d_69"/>
     <g id="line2d_70"/>
     <g id="text_9">
      <!-- −500 -->
      <g style="fill:#262626;" transform="translate(37.971875 295.423125)scale(0.12 -0.12)">
       <use xlink:href="#LiberationSans-Bold-2212"/>
       <use x="58.3984375" xlink:href="#LiberationSans-Bold-35"/>
       <use x="114.013671875" xlink:href="#LiberationSans-Bold-30"/>
       <use x="169.62890625" xlink:href="#LiberationSans-Bold-30"/>
      </g>
     </g>
    </g>
    <g id="ytick_4">
     <g id="line2d_71">
      <path clip-path="url(#p7b463bf8f2)" d="M 72 172.8 
L 698.4 172.8 
" style="fill:none;stroke:#cbcbcb;"/>
     </g>
     <g id="line2d_72"/>
     <g id="line2d_73"/>
     <g id="text_10">
      <!-- 0 -->
      <g style="fill:#262626;" transform="translate(58.326875 175.903125)scale(0.12 -0.12)">
       <use xlink:href="#LiberationSans-Bold-30"/>
      </g>
     </g>
    </g>
    <g id="ytick_5">
     <g id="line2d_74">
      <path clip-path="url(#p7b463bf8f2)" d="M 72 53.28 
L 698.4 53.28 
" style="fill:none;stroke:#cbcbcb;"/>
     </g>
     <g id="line2d_75"/>
     <g id="line2d_76"/>
     <g id="text_11">
      <!-- 500 -->
      <g style="fill:#262626;" transform="translate(44.980625 56.383125)scale(0.12 -0.12)">
       <use xlink:href="#LiberationSans-Bold-35"/>
       <use x="55.615234375" xlink:href="#LiberationSans-Bold-30"/>
       <use x="111.23046875" xlink:href="#LiberationSans-Bold-30"/>
      </g>
     </g>
    </g>
    <g id="text_12">
     <!-- Dollars (Billions) -->
     <defs>
      <path d="M 46.390625 14.59375 
Q 46.390625 10.890625 44.9375 7.984375 
Q 43.5 5.078125 40.765625 3.09375 
Q 38.03125 1.125 34.046875 0.0625 
Q 30.078125 -0.984375 24.953125 -0.984375 
Q 20.359375 -0.984375 16.671875 -0.265625 
Q 12.984375 0.4375 10.203125 2 
Q 7.421875 3.5625 5.53125 6.125 
Q 3.65625 8.6875 2.78125 12.40625 
L 10.546875 13.921875 
Q 11.671875 9.671875 15.1875 7.6875 
Q 18.703125 5.71875 24.953125 5.71875 
Q 27.78125 5.71875 30.140625 6.109375 
Q 32.515625 6.5 34.21875 7.453125 
Q 35.9375 8.40625 36.890625 9.984375 
Q 37.84375 11.578125 37.84375 13.921875 
Q 37.84375 16.3125 36.71875 17.84375 
Q 35.59375 19.390625 33.59375 20.40625 
Q 31.59375 21.4375 28.734375 22.1875 
Q 25.875 22.953125 22.46875 23.875 
Q 19.28125 24.703125 16.15625 25.734375 
Q 13.03125 26.765625 10.515625 28.4375 
Q 8.015625 30.125 6.453125 32.609375 
Q 4.890625 35.109375 4.890625 38.875 
Q 4.890625 46.09375 10.03125 49.875 
Q 15.1875 53.65625 25.046875 53.65625 
Q 33.796875 53.65625 38.9375 50.578125 
Q 44.09375 47.515625 45.453125 40.71875 
L 37.546875 39.75 
Q 37.109375 41.796875 35.9375 43.1875 
Q 34.765625 44.578125 33.109375 45.4375 
Q 31.453125 46.296875 29.375 46.65625 
Q 27.296875 47.015625 25.046875 47.015625 
Q 19.09375 47.015625 16.25 45.203125 
Q 13.421875 43.40625 13.421875 39.75 
Q 13.421875 37.59375 14.46875 36.203125 
Q 15.53125 34.8125 17.40625 33.859375 
Q 19.28125 32.90625 21.921875 32.203125 
Q 24.5625 31.5 27.734375 30.71875 
Q 29.828125 30.171875 32.03125 29.5625 
Q 34.234375 28.953125 36.296875 28.09375 
Q 38.375 27.25 40.203125 26.09375 
Q 42.046875 24.953125 43.40625 23.34375 
Q 44.78125 21.734375 45.578125 19.578125 
Q 46.390625 17.4375 46.390625 14.59375 
" id="LiberationSans-73"/>
      <path d="M 27.09375 25.78125 
Q 27.09375 18.953125 26.0625 12.765625 
Q 25.046875 6.59375 22.84375 0.875 
Q 20.65625 -4.828125 17.234375 -10.203125 
Q 13.8125 -15.578125 9.078125 -20.703125 
L 0.59375 -20.703125 
Q 5.171875 -15.578125 8.515625 -10.203125 
Q 11.859375 -4.828125 14 0.921875 
Q 16.15625 6.6875 17.203125 12.890625 
Q 18.265625 19.09375 18.265625 25.875 
Q 18.265625 32.671875 17.203125 38.859375 
Q 16.15625 45.0625 14 50.796875 
Q 11.859375 56.546875 8.515625 61.9375 
Q 5.171875 67.328125 0.59375 72.46875 
L 9.078125 72.46875 
Q 13.8125 67.328125 17.234375 61.953125 
Q 20.65625 56.59375 22.84375 50.875 
Q 25.046875 45.171875 26.0625 38.96875 
Q 27.09375 32.765625 27.09375 25.984375 
z
" id="LiberationSans-29"/>
      <path d="M 6.6875 64.0625 
L 6.6875 72.46875 
L 15.484375 72.46875 
L 15.484375 64.0625 
z
M 6.6875 0 
L 6.6875 52.828125 
L 15.484375 52.828125 
L 15.484375 0 
z
" id="LiberationSans-69"/>
      <path d="M 6.203125 25.984375 
Q 6.203125 32.765625 7.21875 38.96875 
Q 8.25 45.171875 10.4375 50.875 
Q 12.640625 56.59375 16.0625 61.953125 
Q 19.484375 67.328125 24.21875 72.46875 
L 32.71875 72.46875 
Q 28.125 67.328125 24.78125 61.9375 
Q 21.4375 56.546875 19.28125 50.796875 
Q 17.140625 45.0625 16.09375 38.859375 
Q 15.046875 32.671875 15.046875 25.875 
Q 15.046875 19.09375 16.09375 12.890625 
Q 17.140625 6.6875 19.28125 0.921875 
Q 21.4375 -4.828125 24.78125 -10.203125 
Q 28.125 -15.578125 32.71875 -20.703125 
L 24.21875 -20.703125 
Q 19.484375 -15.578125 16.0625 -10.203125 
Q 12.640625 -4.828125 10.4375 0.875 
Q 8.25 6.59375 7.21875 12.765625 
Q 6.203125 18.953125 6.203125 25.78125 
z
" id="LiberationSans-28"/>
      <path d="M 40.28125 0 
L 40.28125 33.5 
Q 40.28125 37.359375 39.71875 39.9375 
Q 39.15625 42.53125 37.890625 44.109375 
Q 36.625 45.703125 34.546875 46.359375 
Q 32.46875 47.015625 29.390625 47.015625 
Q 26.265625 47.015625 23.75 45.921875 
Q 21.234375 44.828125 19.453125 42.75 
Q 17.671875 40.671875 16.6875 37.625 
Q 15.71875 34.578125 15.71875 30.609375 
L 15.71875 0 
L 6.9375 0 
L 6.9375 41.546875 
Q 6.9375 43.21875 6.90625 45.046875 
Q 6.890625 46.875 6.828125 48.5 
Q 6.78125 50.140625 6.734375 51.3125 
Q 6.6875 52.484375 6.640625 52.828125 
L 14.9375 52.828125 
Q 14.984375 52.59375 15.03125 51.515625 
Q 15.09375 50.4375 15.15625 49.046875 
Q 15.234375 47.65625 15.28125 46.21875 
Q 15.328125 44.78125 15.328125 43.796875 
L 15.484375 43.796875 
Q 16.75 46.09375 18.265625 47.953125 
Q 19.78125 49.8125 21.78125 51.09375 
Q 23.78125 52.390625 26.359375 53.09375 
Q 28.953125 53.8125 32.375 53.8125 
Q 36.765625 53.8125 39.9375 52.734375 
Q 43.109375 51.65625 45.15625 49.40625 
Q 47.21875 47.171875 48.171875 43.625 
Q 49.125 40.09375 49.125 35.203125 
L 49.125 0 
z
" id="LiberationSans-6e"/>
      <path d="M 51.421875 26.46875 
Q 51.421875 12.59375 45.3125 5.796875 
Q 39.203125 -0.984375 27.59375 -0.984375 
Q 22.078125 -0.984375 17.71875 0.671875 
Q 13.375 2.34375 10.375 5.765625 
Q 7.375 9.1875 5.78125 14.328125 
Q 4.203125 19.484375 4.203125 26.46875 
Q 4.203125 53.8125 27.875 53.8125 
Q 34.03125 53.8125 38.5 52.09375 
Q 42.96875 50.390625 45.828125 46.96875 
Q 48.6875 43.5625 50.046875 38.421875 
Q 51.421875 33.296875 51.421875 26.46875 
M 42.1875 26.46875 
Q 42.1875 32.625 41.234375 36.625 
Q 40.28125 40.625 38.453125 43.015625 
Q 36.625 45.40625 33.984375 46.359375 
Q 31.34375 47.3125 28.03125 47.3125 
Q 24.65625 47.3125 21.9375 46.3125 
Q 19.234375 45.3125 17.328125 42.890625 
Q 15.4375 40.484375 14.421875 36.46875 
Q 13.421875 32.46875 13.421875 26.46875 
Q 13.421875 20.3125 14.5 16.28125 
Q 15.578125 12.25 17.453125 9.859375 
Q 19.34375 7.46875 21.90625 6.484375 
Q 24.46875 5.515625 27.484375 5.515625 
Q 30.859375 5.515625 33.59375 6.46875 
Q 36.328125 7.421875 38.234375 9.8125 
Q 40.140625 12.203125 41.15625 16.25 
Q 42.1875 20.3125 42.1875 26.46875 
" id="LiberationSans-6f"/>
      <path d="M 6.734375 0 
L 6.734375 72.46875 
L 15.53125 72.46875 
L 15.53125 0 
z
" id="LiberationSans-6c"/>
      <path id="LiberationSans-20"/>
      <path d="M 67.4375 35.109375 
Q 67.4375 26.515625 64.84375 19.9375 
Q 62.25 13.375 57.75 8.953125 
Q 53.265625 4.546875 47.140625 2.265625 
Q 41.015625 0 33.9375 0 
L 8.203125 0 
L 8.203125 68.796875 
L 30.953125 68.796875 
Q 38.921875 68.796875 45.625 66.8125 
Q 52.34375 64.84375 57.171875 60.71875 
Q 62.015625 56.59375 64.71875 50.234375 
Q 67.4375 43.890625 67.4375 35.109375 
M 58.0625 35.109375 
Q 58.0625 42.09375 56.046875 47.046875 
Q 54.046875 52 50.4375 55.171875 
Q 46.828125 58.34375 41.796875 59.828125 
Q 36.765625 61.328125 30.765625 61.328125 
L 17.53125 61.328125 
L 17.53125 7.46875 
L 32.859375 7.46875 
Q 38.28125 7.46875 42.890625 9.21875 
Q 47.515625 10.984375 50.875 14.453125 
Q 54.25 17.921875 56.15625 23.09375 
Q 58.0625 28.265625 58.0625 35.109375 
" id="LiberationSans-44"/>
      <path d="M 61.421875 19.390625 
Q 61.421875 14.15625 59.375 10.46875 
Q 57.328125 6.78125 53.859375 4.46875 
Q 50.390625 2.15625 45.796875 1.078125 
Q 41.21875 0 36.140625 0 
L 8.203125 0 
L 8.203125 68.796875 
L 33.203125 68.796875 
Q 38.921875 68.796875 43.40625 67.84375 
Q 47.90625 66.890625 51.03125 64.84375 
Q 54.15625 62.796875 55.78125 59.640625 
Q 57.421875 56.5 57.421875 52.09375 
Q 57.421875 49.21875 56.609375 46.671875 
Q 55.8125 44.140625 54.171875 42.0625 
Q 52.546875 39.984375 50.078125 38.5 
Q 47.609375 37.015625 44.34375 36.28125 
Q 48.484375 35.796875 51.6875 34.375 
Q 54.890625 32.953125 57.03125 30.75 
Q 59.1875 28.5625 60.296875 25.65625 
Q 61.421875 22.75 61.421875 19.390625 
M 48.046875 50.984375 
Q 48.046875 56.546875 44.234375 58.9375 
Q 40.4375 61.328125 33.203125 61.328125 
L 17.53125 61.328125 
L 17.53125 39.546875 
L 33.203125 39.546875 
Q 37.3125 39.546875 40.140625 40.34375 
Q 42.96875 41.15625 44.71875 42.640625 
Q 46.484375 44.140625 47.265625 46.234375 
Q 48.046875 48.34375 48.046875 50.984375 
M 52 20.125 
Q 52 23.390625 50.796875 25.6875 
Q 49.609375 27.984375 47.359375 29.4375 
Q 45.125 30.90625 41.96875 31.59375 
Q 38.8125 32.28125 34.90625 32.28125 
L 17.53125 32.28125 
L 17.53125 7.46875 
L 35.640625 7.46875 
Q 39.203125 7.46875 42.203125 8.046875 
Q 45.21875 8.640625 47.390625 10.109375 
Q 49.5625 11.578125 50.78125 14.015625 
Q 52 16.453125 52 20.125 
" id="LiberationSans-42"/>
     </defs>
     <g style="fill:#262626;" transform="translate(22.81275 352.996875)rotate(-90.0)scale(0.168 -0.168)">
      <use xlink:href="#LiberationSans-44"/>
      <use x="72.216796875" xlink:href="#LiberationSans-6f"/>
      <use x="127.83203125" xlink:href="#LiberationSans-6c"/>
      <use x="150.048828125" xlink:href="#LiberationSans-6c"/>
      <use x="172.265625" xlink:href="#LiberationSans-61"/>
      <use x="227.880859375" xlink:href="#LiberationSans-72"/>
      <use x="261.181640625" xlink:href="#LiberationSans-73"/>
      <use x="311.181640625" xlink:href="#LiberationSans-20"/>
      <use x="338.96484375" xlink:href="#LiberationSans-28"/>
      <use x="372.265625" xlink:href="#LiberationSans-42"/>
      <use x="438.96484375" xlink:href="#LiberationSans-69"/>
      <use x="461.181640625" xlink:href="#LiberationSans-6c"/>
      <use x="483.3984375" xlink:href="#LiberationSans-6c"/>
      <use x="505.615234375" xlink:href="#LiberationSans-69"/>
      <use x="527.83203125" xlink:href="#LiberationSans-6f"/>
      <use x="583.447265625" xlink:href="#LiberationSans-6e"/>
      <use x="639.0625" xlink:href="#LiberationSans-73"/>
      <use x="689.0625" xlink:href="#LiberationSans-29"/>
     </g>
    </g>
   </g>
   <g id="line2d_77">
    <path clip-path="url(#p7b463bf8f2)" d="M 72 211.991086 
L 100.472727 198.480306 
L 128.945455 178.031151 
L 157.418182 156.241699 
L 185.890909 142.774186 
L 214.363636 116.328951 
L 242.836364 142.146467 
L 271.309091 210.510472 
L 299.781818 263.057918 
L 328.254545 271.458262 
L 356.727273 248.897428 
L 385.2 232.125186 
L 413.672727 211.213967 
L 442.145455 282.412509 
L 470.618182 510.48894 
L 499.090909 482.206922 
L 527.563636 483.456145 
L 556.036364 432.626201 
L 584.509091 335.238437 
L 612.981818 288.63974 
L 641.454545 277.618084 
L 669.927273 312.554975 
L 698.4 331.850523 
" style="fill:none;stroke:#30a2da;stroke-width:4.0;"/>
   </g>
   <g id="patch_3">
    <path d="M 72 53.28 
L 698.4 53.28 
" style="fill:none;stroke:#f0f0f0;stroke-linecap:square;stroke-linejoin:miter;stroke-width:3.0;"/>
   </g>
   <g id="patch_4">
    <path d="M 698.4 531.36 
L 698.4 53.28 
" style="fill:none;stroke:#f0f0f0;stroke-linecap:square;stroke-linejoin:miter;stroke-width:3.0;"/>
   </g>
   <g id="patch_5">
    <path d="M 72 531.36 
L 698.4 531.36 
" style="fill:none;stroke:#f0f0f0;stroke-linecap:square;stroke-linejoin:miter;stroke-width:3.0;"/>
   </g>
   <g id="patch_6">
    <path d="M 72 531.36 
L 72 53.28 
" style="fill:none;stroke:#f0f0f0;stroke-linecap:square;stroke-linejoin:miter;stroke-width:3.0;"/>
   </g>
  </g>
  <g id="text_13">
   <!-- Federal Surplus/Deficit, 1995-2017 -->
   <defs>
    <path d="M 20.515625 -0.875 
Q 14.453125 -0.875 11.171875 2.421875 
Q 7.90625 5.71875 7.90625 12.40625 
L 7.90625 43.5625 
L 1.21875 43.5625 
L 1.21875 52.828125 
L 8.59375 52.828125 
L 12.890625 65.234375 
L 21.484375 65.234375 
L 21.484375 52.828125 
L 31.5 52.828125 
L 31.5 43.5625 
L 21.484375 43.5625 
L 21.484375 16.109375 
Q 21.484375 12.25 22.953125 10.421875 
Q 24.421875 8.59375 27.484375 8.59375 
Q 28.765625 8.59375 29.78125 8.78125 
Q 30.8125 8.984375 32.078125 9.28125 
L 32.078125 0.78125 
Q 29.546875 -0.046875 26.703125 -0.453125 
Q 23.875 -0.875 20.515625 -0.875 
" id="LiberationSans-Bold-74"/>
    <path id="LiberationSans-Bold-20"/>
    <path d="M 21.09375 3.21875 
Q 21.09375 -0.046875 20.71875 -2.734375 
Q 20.359375 -5.421875 19.671875 -7.6875 
Q 19 -9.96875 18.015625 -11.859375 
Q 17.046875 -13.765625 15.828125 -15.484375 
L 6.78125 -15.484375 
Q 8.203125 -13.765625 9.375 -11.859375 
Q 10.546875 -9.96875 11.421875 -7.953125 
Q 12.3125 -5.953125 12.796875 -3.953125 
Q 13.28125 -1.953125 13.28125 0 
L 6.984375 0 
L 6.984375 14.890625 
L 21.09375 14.890625 
z
" id="LiberationSans-Bold-2c"/>
    <path d="M 6.984375 0 
L 6.984375 72.46875 
L 20.703125 72.46875 
L 20.703125 0 
z
" id="LiberationSans-Bold-6c"/>
    <path d="M 0.984375 -2 
L 15.1875 72.46875 
L 26.8125 72.46875 
L 12.84375 -2 
z
" id="LiberationSans-Bold-2f"/>
    <path d="M 56.984375 26.65625 
Q 56.984375 20.65625 55.78125 15.578125 
Q 54.59375 10.5 52.09375 6.828125 
Q 49.609375 3.171875 45.765625 1.09375 
Q 41.9375 -0.984375 36.71875 -0.984375 
Q 34.375 -0.984375 32.046875 -0.484375 
Q 29.734375 0 27.625 1.09375 
Q 25.53125 2.203125 23.75 3.984375 
Q 21.96875 5.765625 20.703125 8.40625 
L 20.40625 8.40625 
Q 20.453125 8.15625 20.5 7.171875 
Q 20.5625 6.203125 20.609375 4.90625 
Q 20.65625 3.609375 20.671875 2.171875 
Q 20.703125 0.734375 20.703125 -0.484375 
L 20.703125 -20.75 
L 6.984375 -20.75 
L 6.984375 40.671875 
Q 6.984375 44.734375 6.859375 47.90625 
Q 6.734375 51.078125 6.59375 52.828125 
L 19.921875 52.828125 
Q 20.015625 52.484375 20.140625 51.5 
Q 20.265625 50.53125 20.328125 49.265625 
Q 20.40625 48 20.453125 46.625 
Q 20.515625 45.265625 20.515625 44.234375 
L 20.703125 44.234375 
Q 23.1875 49.46875 27.53125 51.703125 
Q 31.890625 53.953125 37.59375 53.953125 
Q 42.625 53.953125 46.28125 51.90625 
Q 49.953125 49.859375 52.3125 46.234375 
Q 54.6875 42.625 55.828125 37.625 
Q 56.984375 32.625 56.984375 26.65625 
M 42.671875 26.65625 
Q 42.671875 35.6875 39.9375 40.0625 
Q 37.203125 44.4375 31.78125 44.4375 
Q 29.734375 44.4375 27.703125 43.578125 
Q 25.6875 42.71875 24.09375 40.640625 
Q 22.515625 38.578125 21.515625 35.078125 
Q 20.515625 31.59375 20.515625 26.265625 
Q 20.515625 21.09375 21.484375 17.640625 
Q 22.46875 14.203125 24.046875 12.15625 
Q 25.640625 10.109375 27.640625 9.25 
Q 29.640625 8.40625 31.6875 8.40625 
Q 34.328125 8.40625 36.375 9.453125 
Q 38.421875 10.5 39.8125 12.71875 
Q 41.21875 14.9375 41.9375 18.40625 
Q 42.671875 21.875 42.671875 26.65625 
" id="LiberationSans-Bold-70"/>
    <path d="M 68.015625 34.90625 
Q 68.015625 26.3125 65.421875 19.796875 
Q 62.84375 13.28125 58.34375 8.890625 
Q 53.859375 4.5 47.734375 2.25 
Q 41.609375 0 34.515625 0 
L 6.6875 0 
L 6.6875 68.796875 
L 31.59375 68.796875 
Q 39.59375 68.796875 46.28125 66.796875 
Q 52.984375 64.796875 57.8125 60.640625 
Q 62.640625 56.5 65.328125 50.09375 
Q 68.015625 43.703125 68.015625 34.90625 
M 53.515625 34.90625 
Q 53.515625 40.921875 51.875 45.21875 
Q 50.25 49.515625 47.3125 52.265625 
Q 44.390625 55.03125 40.3125 56.34375 
Q 36.234375 57.671875 31.296875 57.671875 
L 21.09375 57.671875 
L 21.09375 11.140625 
L 33.296875 11.140625 
Q 37.640625 11.140625 41.328125 12.640625 
Q 45.015625 14.15625 47.71875 17.15625 
Q 50.4375 20.171875 51.96875 24.609375 
Q 53.515625 29.046875 53.515625 34.90625 
" id="LiberationSans-Bold-44"/>
    <path d="M 6.984375 0 
L 6.984375 40.4375 
Q 6.984375 42.140625 6.953125 44.046875 
Q 6.9375 45.953125 6.859375 47.6875 
Q 6.78125 49.421875 6.734375 50.8125 
Q 6.6875 52.203125 6.59375 52.828125 
L 19.671875 52.828125 
Q 19.78125 52.25 19.875 50.796875 
Q 19.96875 49.359375 20.0625 47.65625 
Q 20.171875 45.953125 20.234375 44.265625 
Q 20.3125 42.578125 20.3125 41.546875 
L 20.515625 41.546875 
Q 21.53125 44.4375 22.546875 46.703125 
Q 23.578125 48.96875 24.96875 50.5625 
Q 26.375 52.15625 28.328125 53 
Q 30.28125 53.859375 33.15625 53.859375 
Q 34.375 53.859375 35.5625 53.640625 
Q 36.765625 53.421875 37.40625 53.125 
L 37.40625 41.65625 
Q 36.078125 41.9375 34.734375 42.15625 
Q 33.40625 42.390625 31.546875 42.390625 
Q 26.421875 42.390625 23.5625 38.234375 
Q 20.703125 34.078125 20.703125 25.921875 
L 20.703125 0 
z
" id="LiberationSans-Bold-72"/>
    <path d="M 21.09375 57.671875 
L 21.09375 36.375 
L 56.296875 36.375 
L 56.296875 25.25 
L 21.09375 25.25 
L 21.09375 0 
L 6.6875 0 
L 6.6875 68.796875 
L 57.421875 68.796875 
L 57.421875 57.671875 
z
" id="LiberationSans-Bold-46"/>
    <path d="M 51.515625 15.4375 
Q 51.515625 11.625 49.921875 8.59375 
Q 48.34375 5.5625 45.3125 3.4375 
Q 42.28125 1.3125 37.890625 0.15625 
Q 33.5 -0.984375 27.875 -0.984375 
Q 22.859375 -0.984375 18.796875 -0.25 
Q 14.75 0.484375 11.6875 2.171875 
Q 8.640625 3.859375 6.59375 6.546875 
Q 4.546875 9.234375 3.515625 13.1875 
L 15.578125 14.984375 
Q 16.15625 12.796875 17.1875 11.421875 
Q 18.21875 10.0625 19.71875 9.328125 
Q 21.234375 8.59375 23.265625 8.34375 
Q 25.296875 8.109375 27.875 8.109375 
Q 30.21875 8.109375 32.25 8.375 
Q 34.28125 8.640625 35.765625 9.296875 
Q 37.25 9.96875 38.078125 11.15625 
Q 38.921875 12.359375 38.921875 14.15625 
Q 38.921875 16.21875 37.71875 17.40625 
Q 36.53125 18.609375 34.453125 19.359375 
Q 32.375 20.125 29.5625 20.671875 
Q 26.765625 21.234375 23.578125 21.96875 
Q 20.265625 22.703125 17.03125 23.71875 
Q 13.8125 24.75 11.265625 26.5 
Q 8.734375 28.265625 7.171875 30.96875 
Q 5.609375 33.6875 5.609375 37.84375 
Q 5.609375 41.609375 7.078125 44.5625 
Q 8.546875 47.515625 11.375 49.578125 
Q 14.203125 51.65625 18.375 52.75 
Q 22.5625 53.859375 27.984375 53.859375 
Q 32.28125 53.859375 35.984375 53.046875 
Q 39.703125 52.25 42.625 50.515625 
Q 45.5625 48.78125 47.53125 46.09375 
Q 49.515625 43.40625 50.296875 39.59375 
L 38.140625 38.328125 
Q 37.796875 40.234375 36.90625 41.46875 
Q 36.03125 42.71875 34.734375 43.453125 
Q 33.453125 44.1875 31.734375 44.453125 
Q 30.03125 44.734375 27.984375 44.734375 
Q 23.09375 44.734375 20.65625 43.484375 
Q 18.21875 42.234375 18.21875 39.3125 
Q 18.21875 37.5 19.21875 36.421875 
Q 20.21875 35.359375 22.046875 34.640625 
Q 23.875 33.9375 26.390625 33.421875 
Q 28.90625 32.90625 31.890625 32.171875 
Q 35.546875 31.390625 39.078125 30.34375 
Q 42.625 29.296875 45.375 27.46875 
Q 48.140625 25.640625 49.828125 22.75 
Q 51.515625 19.875 51.515625 15.4375 
" id="LiberationSans-Bold-73"/>
    <path d="M 62.796875 19.828125 
Q 62.796875 15.140625 61.078125 11.296875 
Q 59.375 7.46875 55.78125 4.734375 
Q 52.203125 2 46.609375 0.5 
Q 41.015625 -0.984375 33.296875 -0.984375 
Q 26.46875 -0.984375 21.234375 0.234375 
Q 16.015625 1.46875 12.28125 3.859375 
Q 8.546875 6.25 6.21875 9.78125 
Q 3.90625 13.328125 2.875 17.921875 
L 16.796875 20.21875 
Q 17.390625 17.921875 18.5 16.015625 
Q 19.625 14.109375 21.59375 12.71875 
Q 23.578125 11.328125 26.53125 10.5625 
Q 29.5 9.8125 33.6875 9.8125 
Q 41.015625 9.8125 44.890625 12.03125 
Q 48.78125 14.265625 48.78125 19 
Q 48.78125 21.828125 47.21875 23.625 
Q 45.65625 25.4375 43.0625 26.609375 
Q 40.484375 27.78125 37.109375 28.5625 
Q 33.734375 29.34375 30.078125 30.078125 
Q 27.15625 30.765625 24.21875 31.5 
Q 21.296875 32.234375 18.625 33.25 
Q 15.96875 34.28125 13.671875 35.6875 
Q 11.375 37.109375 9.6875 39.1875 
Q 8.015625 41.265625 7.0625 44.046875 
Q 6.109375 46.828125 6.109375 50.59375 
Q 6.109375 55.71875 8.15625 59.375 
Q 10.203125 63.03125 13.84375 65.34375 
Q 17.484375 67.671875 22.515625 68.75 
Q 27.546875 69.828125 33.5 69.828125 
Q 40.234375 69.828125 45.046875 68.765625 
Q 49.859375 67.71875 53.09375 65.5625 
Q 56.34375 63.421875 58.21875 60.171875 
Q 60.109375 56.9375 60.984375 52.59375 
L 47.015625 50.6875 
Q 45.953125 55.125 42.65625 57.375 
Q 39.359375 59.625 33.203125 59.625 
Q 29.390625 59.625 26.875 58.953125 
Q 24.359375 58.296875 22.875 57.171875 
Q 21.390625 56.0625 20.75 54.5625 
Q 20.125 53.078125 20.125 51.421875 
Q 20.125 48.875 21.34375 47.234375 
Q 22.5625 45.609375 24.75 44.5 
Q 26.953125 43.40625 30 42.640625 
Q 33.0625 41.890625 36.71875 41.109375 
Q 39.9375 40.4375 43.109375 39.671875 
Q 46.296875 38.921875 49.171875 37.890625 
Q 52.046875 36.859375 54.53125 35.390625 
Q 57.03125 33.9375 58.859375 31.8125 
Q 60.6875 29.6875 61.734375 26.75 
Q 62.796875 23.828125 62.796875 19.828125 
" id="LiberationSans-Bold-53"/>
    <path d="M 6.984375 62.359375 
L 6.984375 72.46875 
L 20.703125 72.46875 
L 20.703125 62.359375 
z
M 6.984375 0 
L 6.984375 52.828125 
L 20.703125 52.828125 
L 20.703125 0 
z
" id="LiberationSans-Bold-69"/>
    <path d="M 3.90625 19.96875 
L 3.90625 31.890625 
L 29.296875 31.890625 
L 29.296875 19.96875 
z
" id="LiberationSans-Bold-2d"/>
    <path d="M 51.21875 57.90625 
Q 46.578125 50.59375 42.453125 43.703125 
Q 38.328125 36.8125 35.25 29.859375 
Q 32.171875 22.90625 30.390625 15.546875 
Q 28.609375 8.203125 28.609375 0 
L 14.3125 0 
Q 14.3125 8.15625 16.234375 15.5 
Q 18.171875 22.859375 21.484375 29.828125 
Q 24.8125 36.8125 29.203125 43.625 
Q 33.59375 50.4375 38.484375 57.515625 
L 4.296875 57.515625 
L 4.296875 68.796875 
L 51.21875 68.796875 
z
" id="LiberationSans-Bold-37"/>
    <path d="M 23.09375 43.5625 
L 23.09375 0 
L 9.421875 0 
L 9.421875 43.5625 
L 1.703125 43.5625 
L 1.703125 52.828125 
L 9.421875 52.828125 
L 9.421875 58.34375 
Q 9.421875 61.375 10.15625 63.9375 
Q 10.890625 66.5 12.640625 68.40625 
Q 14.40625 70.3125 17.375 71.390625 
Q 20.359375 72.46875 24.8125 72.46875 
Q 27.15625 72.46875 29.421875 72.21875 
Q 31.6875 71.96875 33.5 71.6875 
L 33.5 62.84375 
Q 32.625 63.03125 31.515625 63.15625 
Q 30.421875 63.28125 29.5 63.28125 
Q 27.59375 63.28125 26.34375 62.890625 
Q 25.09375 62.5 24.390625 61.71875 
Q 23.6875 60.9375 23.390625 59.734375 
Q 23.09375 58.546875 23.09375 56.984375 
L 23.09375 52.828125 
L 33.5 52.828125 
L 33.5 43.5625 
z
" id="LiberationSans-Bold-66"/>
    <path d="M 28.609375 -0.984375 
Q 22.90625 -0.984375 18.328125 0.703125 
Q 13.765625 2.390625 10.546875 5.828125 
Q 7.328125 9.28125 5.609375 14.46875 
Q 3.90625 19.671875 3.90625 26.65625 
Q 3.90625 34.234375 5.921875 39.40625 
Q 7.953125 44.578125 11.390625 47.78125 
Q 14.84375 50.984375 19.328125 52.390625 
Q 23.828125 53.8125 28.8125 53.8125 
Q 35.0625 53.8125 39.46875 51.640625 
Q 43.890625 49.46875 46.71875 45.5625 
Q 49.5625 41.65625 50.875 36.203125 
Q 52.203125 30.765625 52.203125 24.171875 
L 52.203125 23.78125 
L 18.3125 23.78125 
Q 18.3125 20.453125 18.890625 17.59375 
Q 19.484375 14.75 20.796875 12.671875 
Q 22.125 10.59375 24.21875 9.390625 
Q 26.3125 8.203125 29.296875 8.203125 
Q 32.90625 8.203125 35.203125 9.734375 
Q 37.5 11.28125 38.484375 14.5 
L 51.421875 13.375 
Q 50.53125 11.140625 48.9375 8.59375 
Q 47.359375 6.0625 44.71875 3.9375 
Q 42.09375 1.8125 38.15625 0.40625 
Q 34.234375 -0.984375 28.609375 -0.984375 
M 28.609375 45.171875 
Q 26.515625 45.171875 24.6875 44.453125 
Q 22.859375 43.75 21.515625 42.203125 
Q 20.171875 40.671875 19.328125 38.234375 
Q 18.5 35.796875 18.40625 32.375 
L 38.921875 32.375 
Q 38.53125 38.765625 35.84375 41.96875 
Q 33.15625 45.171875 28.609375 45.171875 
" id="LiberationSans-Bold-65"/>
    <path d="M 41.21875 0 
Q 41.109375 0.390625 40.984375 1.390625 
Q 40.875 2.390625 40.75 3.65625 
Q 40.625 4.9375 40.546875 6.25 
Q 40.484375 7.5625 40.484375 8.59375 
L 40.28125 8.59375 
Q 37.890625 3.46875 33.609375 1.234375 
Q 29.34375 -0.984375 23.390625 -0.984375 
Q 18.40625 -0.984375 14.765625 1.0625 
Q 11.140625 3.125 8.765625 6.78125 
Q 6.390625 10.453125 5.25 15.453125 
Q 4.109375 20.453125 4.109375 26.375 
Q 4.109375 32.375 5.296875 37.40625 
Q 6.5 42.4375 8.984375 46.0625 
Q 11.46875 49.703125 15.296875 51.75 
Q 19.140625 53.8125 24.421875 53.8125 
Q 27 53.8125 29.390625 53.265625 
Q 31.78125 52.734375 33.828125 51.609375 
Q 35.890625 50.484375 37.546875 48.71875 
Q 39.203125 46.96875 40.375 44.484375 
L 40.484375 44.484375 
Q 40.484375 44.96875 40.453125 45.921875 
Q 40.4375 46.875 40.4375 48.09375 
Q 40.4375 49.3125 40.40625 50.625 
Q 40.375 51.953125 40.375 53.171875 
L 40.375 72.46875 
L 54.109375 72.46875 
L 54.109375 11.53125 
Q 54.109375 7.671875 54.25 4.65625 
Q 54.390625 1.65625 54.5 0 
z
M 40.578125 26.703125 
Q 40.578125 31.9375 39.59375 35.375 
Q 38.625 38.8125 37.03125 40.84375 
Q 35.453125 42.875 33.421875 43.671875 
Q 31.390625 44.484375 29.296875 44.484375 
Q 26.65625 44.484375 24.625 43.453125 
Q 22.609375 42.4375 21.21875 40.234375 
Q 19.828125 38.03125 19.109375 34.609375 
Q 18.40625 31.203125 18.40625 26.375 
Q 18.40625 8.40625 29.203125 8.40625 
Q 31.25 8.40625 33.296875 9.28125 
Q 35.359375 10.15625 36.96875 12.25 
Q 38.578125 14.359375 39.578125 17.890625 
Q 40.578125 21.4375 40.578125 26.703125 
" id="LiberationSans-Bold-64"/>
    <path d="M 29 -0.984375 
Q 22.703125 -0.984375 17.984375 0.96875 
Q 13.28125 2.9375 10.15625 6.5 
Q 7.03125 10.0625 5.46875 15.0625 
Q 3.90625 20.0625 3.90625 26.125 
Q 3.90625 32.71875 5.609375 37.859375 
Q 7.328125 43.015625 10.546875 46.546875 
Q 13.765625 50.09375 18.46875 51.953125 
Q 23.1875 53.8125 29.203125 53.8125 
Q 34.328125 53.8125 38.296875 52.4375 
Q 42.28125 51.078125 45.15625 48.703125 
Q 48.046875 46.34375 49.828125 43.109375 
Q 51.609375 39.890625 52.296875 36.1875 
L 38.484375 35.5 
Q 37.890625 39.546875 35.546875 41.96875 
Q 33.203125 44.390625 28.90625 44.390625 
Q 23.390625 44.390625 20.84375 39.84375 
Q 18.3125 35.296875 18.3125 26.65625 
Q 18.3125 8.40625 29.109375 8.40625 
Q 33.015625 8.40625 35.640625 10.859375 
Q 38.28125 13.328125 38.921875 18.21875 
L 52.6875 17.578125 
Q 52.203125 13.921875 50.46875 10.578125 
Q 48.734375 7.234375 45.78125 4.65625 
Q 42.828125 2.09375 38.625 0.546875 
Q 34.421875 -0.984375 29 -0.984375 
" id="LiberationSans-Bold-63"/>
    <path d="M 19.1875 -0.984375 
Q 15.375 -0.984375 12.375 0.0625 
Q 9.375 1.125 7.265625 3.140625 
Q 5.171875 5.171875 4.046875 8.15625 
Q 2.9375 11.140625 2.9375 14.9375 
Q 2.9375 19.625 4.5625 22.828125 
Q 6.203125 26.03125 9.03125 28 
Q 11.859375 29.984375 15.671875 30.875 
Q 19.484375 31.78125 23.78125 31.84375 
L 35.15625 32.03125 
L 35.15625 34.71875 
Q 35.15625 37.59375 34.640625 39.515625 
Q 34.125 41.453125 33.140625 42.671875 
Q 32.171875 43.890625 30.734375 44.40625 
Q 29.296875 44.921875 27.4375 44.921875 
Q 25.734375 44.921875 24.390625 44.578125 
Q 23.046875 44.234375 22.0625 43.375 
Q 21.09375 42.53125 20.484375 41.09375 
Q 19.875 39.65625 19.625 37.453125 
L 5.328125 38.140625 
Q 5.90625 41.609375 7.46875 44.453125 
Q 9.03125 47.3125 11.78125 49.40625 
Q 14.546875 51.515625 18.578125 52.65625 
Q 22.609375 53.8125 28.03125 53.8125 
Q 32.953125 53.8125 36.8125 52.59375 
Q 40.671875 51.375 43.359375 48.953125 
Q 46.046875 46.53125 47.453125 43.015625 
Q 48.875 39.5 48.875 34.859375 
L 48.875 15.625 
Q 48.875 13.765625 49.046875 12.296875 
Q 49.21875 10.84375 49.671875 9.84375 
Q 50.140625 8.84375 51 8.328125 
Q 51.859375 7.8125 53.21875 7.8125 
Q 54.78125 7.8125 56.25 8.109375 
L 56.25 0.6875 
Q 55.03125 0.390625 54.046875 0.140625 
Q 53.078125 -0.09375 52.09375 -0.234375 
Q 51.125 -0.390625 50.015625 -0.484375 
Q 48.921875 -0.59375 47.46875 -0.59375 
Q 42.28125 -0.59375 39.8125 1.953125 
Q 37.359375 4.5 36.859375 9.421875 
L 36.578125 9.421875 
Q 33.84375 4.5 29.5625 1.75 
Q 25.296875 -0.984375 19.1875 -0.984375 
M 35.15625 24.46875 
L 28.125 24.359375 
Q 25.921875 24.265625 23.9375 24 
Q 21.96875 23.734375 20.484375 22.875 
Q 19 22.015625 18.109375 20.40625 
Q 17.234375 18.796875 17.234375 16.015625 
Q 17.234375 12.25 18.96875 10.421875 
Q 20.703125 8.59375 23.578125 8.59375 
Q 26.21875 8.59375 28.359375 9.71875 
Q 30.515625 10.84375 32 12.671875 
Q 33.5 14.5 34.328125 16.890625 
Q 35.15625 19.28125 35.15625 21.78125 
z
" id="LiberationSans-Bold-61"/>
    <path d="M 19.921875 52.828125 
L 19.921875 23.1875 
Q 19.921875 20.125 20.40625 17.546875 
Q 20.90625 14.984375 22.015625 13.15625 
Q 23.140625 11.328125 24.921875 10.296875 
Q 26.703125 9.28125 29.296875 9.28125 
Q 31.78125 9.28125 33.8125 10.375 
Q 35.84375 11.46875 37.296875 13.5 
Q 38.765625 15.53125 39.5625 18.328125 
Q 40.375 21.140625 40.375 24.515625 
L 40.375 52.828125 
L 54.109375 52.828125 
L 54.109375 11.8125 
Q 54.109375 10.15625 54.125 8.328125 
Q 54.15625 6.5 54.21875 4.859375 
Q 54.296875 3.21875 54.359375 1.921875 
Q 54.4375 0.640625 54.5 0 
L 41.40625 0 
Q 41.359375 0.59375 41.234375 1.875 
Q 41.109375 3.171875 41.03125 4.734375 
Q 40.96875 6.296875 40.890625 7.859375 
Q 40.828125 9.421875 40.828125 10.5 
L 40.578125 10.5 
Q 37.84375 4.5 33.609375 1.75 
Q 29.390625 -0.984375 23.578125 -0.984375 
Q 18.84375 -0.984375 15.515625 0.578125 
Q 12.203125 2.15625 10.125 4.859375 
Q 8.0625 7.5625 7.125 11.265625 
Q 6.203125 14.984375 6.203125 19.28125 
L 6.203125 52.828125 
z
" id="LiberationSans-Bold-75"/>
   </defs>
   <g style="fill:#262626;" transform="translate(228.34546875 20.244375)scale(0.18 -0.18)">
    <use xlink:href="#LiberationSans-Bold-46"/>
    <use x="61.083984375" xlink:href="#LiberationSans-Bold-65"/>
    <use x="116.69921875" xlink:href="#LiberationSans-Bold-64"/>
    <use x="177.783203125" xlink:href="#LiberationSans-Bold-65"/>
    <use x="233.3984375" xlink:href="#LiberationSans-Bold-72"/>
    <use x="272.314453125" xlink:href="#LiberationSans-Bold-61"/>
    <use x="327.9296875" xlink:href="#LiberationSans-Bold-6c"/>
    <use x="355.712890625" xlink:href="#LiberationSans-Bold-20"/>
    <use x="383.49609375" xlink:href="#LiberationSans-Bold-53"/>
    <use x="450.1953125" xlink:href="#LiberationSans-Bold-75"/>
    <use x="511.279296875" xlink:href="#LiberationSans-Bold-72"/>
    <use x="550.1953125" xlink:href="#LiberationSans-Bold-70"/>
    <use x="611.279296875" xlink:href="#LiberationSans-Bold-6c"/>
    <use x="639.0625" xlink:href="#LiberationSans-Bold-75"/>
    <use x="700.146484375" xlink:href="#LiberationSans-Bold-73"/>
    <use x="755.76171875" xlink:href="#LiberationSans-Bold-2f"/>
    <use x="783.544921875" xlink:href="#LiberationSans-Bold-44"/>
    <use x="855.76171875" xlink:href="#LiberationSans-Bold-65"/>
    <use x="911.376953125" xlink:href="#LiberationSans-Bold-66"/>
    <use x="944.677734375" xlink:href="#LiberationSans-Bold-69"/>
    <use x="972.4609375" xlink:href="#LiberationSans-Bold-63"/>
    <use x="1028.07617188" xlink:href="#LiberationSans-Bold-69"/>
    <use x="1055.859375" xlink:href="#LiberationSans-Bold-74"/>
    <use x="1089.16015625" xlink:href="#LiberationSans-Bold-2c"/>
    <use x="1116.94335938" xlink:href="#LiberationSans-Bold-20"/>
    <use x="1144.7265625" xlink:href="#LiberationSans-Bold-31"/>
    <use x="1200.34179688" xlink:href="#LiberationSans-Bold-39"/>
    <use x="1255.95703125" xlink:href="#LiberationSans-Bold-39"/>
    <use x="1311.57226562" xlink:href="#LiberationSans-Bold-35"/>
    <use x="1367.1875" xlink:href="#LiberationSans-Bold-2d"/>
    <use x="1400.48828125" xlink:href="#LiberationSans-Bold-32"/>
    <use x="1456.10351562" xlink:href="#LiberationSans-Bold-30"/>
    <use x="1511.71875" xlink:href="#LiberationSans-Bold-31"/>
    <use x="1567.33398438" xlink:href="#LiberationSans-Bold-37"/>
   </g>
  </g>
  <g id="text_14">
   <!-- https://codyhatch.com -->
   <defs>
    <path d="M 40.09375 8.5 
Q 37.640625 3.421875 33.609375 1.21875 
Q 29.59375 -0.984375 23.640625 -0.984375 
Q 13.625 -0.984375 8.90625 5.75 
Q 4.203125 12.5 4.203125 26.171875 
Q 4.203125 53.8125 23.640625 53.8125 
Q 29.640625 53.8125 33.640625 51.609375 
Q 37.640625 49.421875 40.09375 44.625 
L 40.1875 44.625 
Q 40.1875 45.125 40.15625 46.171875 
Q 40.140625 47.21875 40.109375 48.359375 
Q 40.09375 49.515625 40.09375 50.53125 
Q 40.09375 51.5625 40.09375 52 
L 40.09375 72.46875 
L 48.875 72.46875 
L 48.875 10.890625 
Q 48.875 8.984375 48.890625 7.21875 
Q 48.921875 5.46875 48.96875 4 
Q 49.03125 2.546875 49.078125 1.484375 
Q 49.125 0.4375 49.171875 0 
L 40.765625 0 
Q 40.671875 0.484375 40.59375 1.390625 
Q 40.53125 2.296875 40.453125 3.46875 
Q 40.375 4.640625 40.328125 5.9375 
Q 40.28125 7.234375 40.28125 8.5 
z
M 13.421875 26.46875 
Q 13.421875 21 14.109375 17.09375 
Q 14.796875 13.1875 16.3125 10.671875 
Q 17.828125 8.15625 20.171875 6.984375 
Q 22.515625 5.8125 25.875 5.8125 
Q 29.34375 5.8125 32 6.9375 
Q 34.671875 8.0625 36.453125 10.578125 
Q 38.234375 13.09375 39.15625 17.140625 
Q 40.09375 21.1875 40.09375 27.046875 
Q 40.09375 32.671875 39.15625 36.546875 
Q 38.234375 40.4375 36.421875 42.828125 
Q 34.625 45.21875 32 46.265625 
Q 29.390625 47.3125 25.984375 47.3125 
Q 22.75 47.3125 20.40625 46.1875 
Q 18.0625 45.0625 16.5 42.578125 
Q 14.9375 40.09375 14.171875 36.109375 
Q 13.421875 32.125 13.421875 26.46875 
" id="LiberationSans-64"/>
    <path d="M 51.421875 26.65625 
Q 51.421875 20.65625 50.4375 15.578125 
Q 49.46875 10.5 47.1875 6.828125 
Q 44.921875 3.171875 41.1875 1.09375 
Q 37.453125 -0.984375 31.984375 -0.984375 
Q 26.3125 -0.984375 22.0625 1.171875 
Q 17.828125 3.328125 15.578125 8.203125 
L 15.328125 8.203125 
Q 15.375 8.109375 15.40625 7.328125 
Q 15.4375 6.546875 15.453125 5.375 
Q 15.484375 4.203125 15.5 2.75 
Q 15.53125 1.3125 15.53125 -0.09375 
L 15.53125 -20.75 
L 6.734375 -20.75 
L 6.734375 42.046875 
Q 6.734375 43.953125 6.703125 45.703125 
Q 6.6875 47.46875 6.640625 48.90625 
Q 6.59375 50.34375 6.546875 51.359375 
Q 6.5 52.390625 6.453125 52.828125 
L 14.9375 52.828125 
Q 14.984375 52.6875 15.0625 51.796875 
Q 15.140625 50.921875 15.203125 49.671875 
Q 15.28125 48.4375 15.359375 47.015625 
Q 15.4375 45.609375 15.4375 44.34375 
L 15.625 44.34375 
Q 16.84375 46.875 18.40625 48.65625 
Q 19.96875 50.4375 21.96875 51.578125 
Q 23.96875 52.734375 26.4375 53.25 
Q 28.90625 53.765625 31.984375 53.765625 
Q 37.453125 53.765625 41.1875 51.8125 
Q 44.921875 49.859375 47.1875 46.3125 
Q 49.46875 42.78125 50.4375 37.765625 
Q 51.421875 32.765625 51.421875 26.65625 
M 42.1875 26.46875 
Q 42.1875 31.34375 41.59375 35.15625 
Q 41.015625 38.96875 39.578125 41.59375 
Q 38.140625 44.234375 35.734375 45.59375 
Q 33.34375 46.96875 29.734375 46.96875 
Q 26.8125 46.96875 24.21875 46.140625 
Q 21.625 45.3125 19.703125 42.96875 
Q 17.78125 40.625 16.65625 36.5 
Q 15.53125 32.375 15.53125 25.78125 
Q 15.53125 20.171875 16.453125 16.28125 
Q 17.390625 12.40625 19.171875 10.015625 
Q 20.953125 7.625 23.578125 6.5625 
Q 26.21875 5.515625 29.640625 5.515625 
Q 33.296875 5.515625 35.71875 6.921875 
Q 38.140625 8.34375 39.578125 11.03125 
Q 41.015625 13.71875 41.59375 17.59375 
Q 42.1875 21.484375 42.1875 26.46875 
" id="LiberationSans-70"/>
    <path d="M 9.125 42.71875 
L 9.125 52.828125 
L 18.65625 52.828125 
L 18.65625 42.71875 
z
M 9.125 0 
L 9.125 10.109375 
L 18.65625 10.109375 
L 18.65625 0 
z
" id="LiberationSans-3a"/>
    <path d="M 13.421875 26.65625 
Q 13.421875 22.125 14.078125 18.3125 
Q 14.75 14.5 16.3125 11.734375 
Q 17.875 8.984375 20.4375 7.46875 
Q 23 5.953125 26.765625 5.953125 
Q 31.453125 5.953125 34.59375 8.484375 
Q 37.75 11.03125 38.484375 16.3125 
L 47.359375 15.71875 
Q 46.921875 12.453125 45.453125 9.421875 
Q 44 6.390625 41.484375 4.09375 
Q 38.96875 1.8125 35.34375 0.40625 
Q 31.734375 -0.984375 27 -0.984375 
Q 20.796875 -0.984375 16.453125 1.109375 
Q 12.109375 3.21875 9.390625 6.90625 
Q 6.6875 10.59375 5.46875 15.59375 
Q 4.25 20.609375 4.25 26.46875 
Q 4.25 31.78125 5.125 35.859375 
Q 6 39.9375 7.59375 42.984375 
Q 9.1875 46.046875 11.328125 48.125 
Q 13.484375 50.203125 15.984375 51.4375 
Q 18.5 52.6875 21.28125 53.25 
Q 24.078125 53.8125 26.90625 53.8125 
Q 31.34375 53.8125 34.8125 52.59375 
Q 38.28125 51.375 40.796875 49.25 
Q 43.3125 47.125 44.875 44.234375 
Q 46.4375 41.359375 47.078125 38.03125 
L 38.03125 37.359375 
Q 37.359375 41.75 34.5625 44.328125 
Q 31.78125 46.921875 26.65625 46.921875 
Q 22.90625 46.921875 20.390625 45.671875 
Q 17.875 44.4375 16.3125 41.921875 
Q 14.75 39.40625 14.078125 35.59375 
Q 13.421875 31.78125 13.421875 26.65625 
" id="LiberationSans-63"/>
    <path d="M 29.5 0 
Q 27.640625 -4.78125 25.703125 -8.609375 
Q 23.78125 -12.453125 21.390625 -15.15625 
Q 19 -17.875 16.0625 -19.3125 
Q 13.140625 -20.75 9.328125 -20.75 
Q 7.671875 -20.75 6.25 -20.65625 
Q 4.828125 -20.5625 3.265625 -20.21875 
L 3.265625 -13.625 
Q 4.203125 -13.765625 5.375 -13.84375 
Q 6.546875 -13.921875 7.375 -13.921875 
Q 11.234375 -13.921875 14.546875 -11.03125 
Q 17.875 -8.15625 20.359375 -1.859375 
L 21.1875 0.25 
L 0.25 52.828125 
L 9.625 52.828125 
L 20.75 23.640625 
Q 21.234375 22.3125 21.984375 20.109375 
Q 22.75 17.921875 23.5 15.71875 
Q 24.265625 13.53125 24.84375 11.765625 
Q 25.4375 10.015625 25.53125 9.578125 
Q 25.6875 10.109375 26.25 11.6875 
Q 26.8125 13.28125 27.515625 15.234375 
Q 28.21875 17.1875 28.953125 19.1875 
Q 29.6875 21.1875 30.171875 22.65625 
L 40.53125 52.828125 
L 49.8125 52.828125 
z
" id="LiberationSans-79"/>
    <path d="M 27.046875 0.390625 
Q 25.046875 -0.140625 22.96875 -0.453125 
Q 20.90625 -0.78125 18.171875 -0.78125 
Q 7.625 -0.78125 7.625 11.1875 
L 7.625 46.4375 
L 1.515625 46.4375 
L 1.515625 52.828125 
L 7.953125 52.828125 
L 10.546875 64.65625 
L 16.40625 64.65625 
L 16.40625 52.828125 
L 26.171875 52.828125 
L 26.171875 46.4375 
L 16.40625 46.4375 
L 16.40625 13.09375 
Q 16.40625 9.28125 17.640625 7.734375 
Q 18.890625 6.203125 21.96875 6.203125 
Q 23.25 6.203125 24.4375 6.390625 
Q 25.640625 6.59375 27.046875 6.890625 
z
" id="LiberationSans-74"/>
    <path d="M 15.484375 43.796875 
Q 16.9375 46.484375 18.640625 48.359375 
Q 20.359375 50.25 22.40625 51.46875 
Q 24.46875 52.6875 26.90625 53.25 
Q 29.34375 53.8125 32.375 53.8125 
Q 37.453125 53.8125 40.703125 52.4375 
Q 43.953125 51.078125 45.828125 48.609375 
Q 47.703125 46.140625 48.40625 42.71875 
Q 49.125 39.3125 49.125 35.203125 
L 49.125 0 
L 40.28125 0 
L 40.28125 33.5 
Q 40.28125 36.859375 39.859375 39.390625 
Q 39.453125 41.9375 38.28125 43.625 
Q 37.109375 45.3125 34.953125 46.15625 
Q 32.8125 47.015625 29.390625 47.015625 
Q 26.265625 47.015625 23.75 45.890625 
Q 21.234375 44.78125 19.453125 42.71875 
Q 17.671875 40.671875 16.6875 37.734375 
Q 15.71875 34.8125 15.71875 31.15625 
L 15.71875 0 
L 6.9375 0 
L 6.9375 72.46875 
L 15.71875 72.46875 
L 15.71875 53.609375 
Q 15.71875 52 15.671875 50.390625 
Q 15.625 48.78125 15.546875 47.40625 
Q 15.484375 46.046875 15.421875 45.09375 
Q 15.375 44.140625 15.328125 43.796875 
z
" id="LiberationSans-68"/>
    <path d="M 9.125 0 
L 9.125 10.6875 
L 18.65625 10.6875 
L 18.65625 0 
z
" id="LiberationSans-2e"/>
    <path d="M 0 -0.984375 
L 20.0625 72.46875 
L 27.78125 72.46875 
L 7.90625 -0.984375 
z
" id="LiberationSans-2f"/>
    <path d="M 37.5 0 
L 37.5 33.5 
Q 37.5 37.359375 37.015625 39.9375 
Q 36.53125 42.53125 35.375 44.109375 
Q 34.234375 45.703125 32.375 46.359375 
Q 30.515625 47.015625 27.828125 47.015625 
Q 25.046875 47.015625 22.796875 45.921875 
Q 20.5625 44.828125 18.96875 42.75 
Q 17.390625 40.671875 16.53125 37.625 
Q 15.671875 34.578125 15.671875 30.609375 
L 15.671875 0 
L 6.9375 0 
L 6.9375 41.546875 
Q 6.9375 43.21875 6.90625 45.046875 
Q 6.890625 46.875 6.828125 48.5 
Q 6.78125 50.140625 6.734375 51.3125 
Q 6.6875 52.484375 6.640625 52.828125 
L 14.9375 52.828125 
Q 14.984375 52.59375 15.03125 51.515625 
Q 15.09375 50.4375 15.15625 49.046875 
Q 15.234375 47.65625 15.28125 46.21875 
Q 15.328125 44.78125 15.328125 43.796875 
L 15.484375 43.796875 
Q 16.65625 46.09375 18.015625 47.953125 
Q 19.390625 49.8125 21.21875 51.09375 
Q 23.046875 52.390625 25.40625 53.09375 
Q 27.78125 53.8125 30.90625 53.8125 
Q 36.921875 53.8125 40.40625 51.421875 
Q 43.890625 49.03125 45.265625 43.796875 
L 45.40625 43.796875 
Q 46.578125 46.09375 48.046875 47.953125 
Q 49.515625 49.8125 51.46875 51.09375 
Q 53.421875 52.390625 55.859375 53.09375 
Q 58.296875 53.8125 61.421875 53.8125 
Q 65.4375 53.8125 68.328125 52.734375 
Q 71.234375 51.65625 73.09375 49.40625 
Q 74.953125 47.171875 75.828125 43.625 
Q 76.703125 40.09375 76.703125 35.203125 
L 76.703125 0 
L 68.015625 0 
L 68.015625 33.5 
Q 68.015625 37.359375 67.53125 39.9375 
Q 67.046875 42.53125 65.890625 44.109375 
Q 64.75 45.703125 62.890625 46.359375 
Q 61.03125 47.015625 58.34375 47.015625 
Q 55.5625 47.015625 53.3125 45.96875 
Q 51.078125 44.921875 49.484375 42.875 
Q 47.90625 40.828125 47.046875 37.75 
Q 46.1875 34.671875 46.1875 30.609375 
L 46.1875 0 
z
" id="LiberationSans-6d"/>
   </defs>
   <g style="fill:#808080;" transform="translate(7.2 600.48)scale(0.12 -0.12)">
    <use xlink:href="#LiberationSans-68"/>
    <use x="55.615234375" xlink:href="#LiberationSans-74"/>
    <use x="83.3984375" xlink:href="#LiberationSans-74"/>
    <use x="111.181640625" xlink:href="#LiberationSans-70"/>
    <use x="166.796875" xlink:href="#LiberationSans-73"/>
    <use x="216.796875" xlink:href="#LiberationSans-3a"/>
    <use x="244.580078125" xlink:href="#LiberationSans-2f"/>
    <use x="272.36328125" xlink:href="#LiberationSans-2f"/>
    <use x="300.146484375" xlink:href="#LiberationSans-63"/>
    <use x="350.146484375" xlink:href="#LiberationSans-6f"/>
    <use x="405.76171875" xlink:href="#LiberationSans-64"/>
    <use x="461.376953125" xlink:href="#LiberationSans-79"/>
    <use x="511.376953125" xlink:href="#LiberationSans-68"/>
    <use x="566.9921875" xlink:href="#LiberationSans-61"/>
    <use x="622.607421875" xlink:href="#LiberationSans-74"/>
    <use x="650.390625" xlink:href="#LiberationSans-63"/>
    <use x="700.390625" xlink:href="#LiberationSans-68"/>
    <use x="756.005859375" xlink:href="#LiberationSans-2e"/>
    <use x="783.7890625" xlink:href="#LiberationSans-63"/>
    <use x="833.7890625" xlink:href="#LiberationSans-6f"/>
    <use x="889.404296875" xlink:href="#LiberationSans-6d"/>
   </g>
  </g>
  <g id="text_15">
   <!-- Source: http://www.whitehouse.gov/omb/budget/Historicals -->
   <defs>
    <path d="M 26.765625 -20.75 
Q 22.21875 -20.75 18.703125 -19.8125 
Q 15.1875 -18.890625 12.6875 -17.15625 
Q 10.203125 -15.4375 8.640625 -13.03125 
Q 7.078125 -10.640625 6.390625 -7.71875 
L 15.234375 -6.453125 
Q 16.109375 -10.109375 19.109375 -12.078125 
Q 22.125 -14.0625 27 -14.0625 
Q 29.984375 -14.0625 32.421875 -13.234375 
Q 34.859375 -12.40625 36.5625 -10.5625 
Q 38.28125 -8.734375 39.203125 -5.796875 
Q 40.140625 -2.875 40.140625 1.3125 
L 40.140625 9.8125 
L 40.046875 9.8125 
Q 39.0625 7.8125 37.625 5.984375 
Q 36.1875 4.15625 34.109375 2.734375 
Q 32.03125 1.3125 29.296875 0.453125 
Q 26.5625 -0.390625 23.046875 -0.390625 
Q 18.015625 -0.390625 14.421875 1.296875 
Q 10.84375 2.984375 8.5625 6.34375 
Q 6.296875 9.71875 5.25 14.71875 
Q 4.203125 19.734375 4.203125 26.3125 
Q 4.203125 32.671875 5.25 37.75 
Q 6.296875 42.828125 8.65625 46.359375 
Q 11.03125 49.90625 14.8125 51.78125 
Q 18.609375 53.65625 24.03125 53.65625 
Q 29.640625 53.65625 33.765625 51.09375 
Q 37.890625 48.53125 40.140625 43.796875 
L 40.234375 43.796875 
Q 40.234375 45.015625 40.296875 46.53125 
Q 40.375 48.046875 40.453125 49.390625 
Q 40.53125 50.734375 40.625 51.703125 
Q 40.71875 52.6875 40.828125 52.828125 
L 49.171875 52.828125 
Q 49.125 52.390625 49.078125 51.34375 
Q 49.03125 50.296875 48.96875 48.828125 
Q 48.921875 47.359375 48.890625 45.578125 
Q 48.875 43.796875 48.875 41.890625 
L 48.875 1.515625 
Q 48.875 -9.578125 43.421875 -15.15625 
Q 37.984375 -20.75 26.765625 -20.75 
M 40.140625 26.421875 
Q 40.140625 31.9375 38.9375 35.859375 
Q 37.75 39.796875 35.796875 42.28125 
Q 33.84375 44.78125 31.328125 45.953125 
Q 28.8125 47.125 26.171875 47.125 
Q 22.796875 47.125 20.375 45.953125 
Q 17.96875 44.78125 16.375 42.265625 
Q 14.796875 39.75 14.03125 35.8125 
Q 13.28125 31.890625 13.28125 26.421875 
Q 13.28125 20.703125 14.03125 16.8125 
Q 14.796875 12.9375 16.359375 10.546875 
Q 17.921875 8.15625 20.3125 7.125 
Q 22.703125 6.109375 26.03125 6.109375 
Q 28.65625 6.109375 31.171875 7.21875 
Q 33.6875 8.34375 35.6875 10.78125 
Q 37.703125 13.234375 38.921875 17.09375 
Q 40.140625 20.953125 40.140625 26.421875 
" id="LiberationSans-67"/>
    <path d="M 57.328125 0 
L 47.125 0 
L 38.671875 34.078125 
Q 38.28125 35.40625 37.859375 37.359375 
Q 37.453125 39.3125 37.0625 41.15625 
Q 36.578125 43.3125 36.140625 45.609375 
Q 35.6875 43.40625 35.203125 41.265625 
Q 34.8125 39.40625 34.34375 37.40625 
Q 33.890625 35.40625 33.5 33.890625 
L 24.8125 0 
L 14.65625 0 
L -0.140625 52.828125 
L 8.546875 52.828125 
L 17.484375 16.9375 
Q 17.828125 15.828125 18.15625 14.1875 
Q 18.5 12.546875 18.84375 10.984375 
Q 19.1875 9.1875 19.578125 7.28125 
Q 19.96875 9.125 20.40625 10.890625 
Q 20.796875 12.40625 21.1875 13.96875 
Q 21.578125 15.53125 21.875 16.546875 
L 31.453125 52.828125 
L 40.875 52.828125 
L 50.09375 16.546875 
Q 50.4375 15.28125 50.828125 13.671875 
Q 51.21875 12.0625 51.5625 10.640625 
Q 51.953125 8.984375 52.34375 7.28125 
Q 52.734375 9.125 53.125 10.890625 
Q 53.46875 12.40625 53.828125 14.03125 
Q 54.203125 15.671875 54.546875 16.9375 
L 63.875 52.828125 
L 72.46875 52.828125 
z
" id="LiberationSans-77"/>
    <path d="M 15.328125 52.828125 
L 15.328125 19.34375 
Q 15.328125 15.484375 15.890625 12.890625 
Q 16.453125 10.296875 17.71875 8.703125 
Q 19 7.125 21.0625 6.46875 
Q 23.140625 5.8125 26.21875 5.8125 
Q 29.34375 5.8125 31.859375 6.90625 
Q 34.375 8.015625 36.15625 10.078125 
Q 37.9375 12.15625 38.90625 15.203125 
Q 39.890625 18.265625 39.890625 22.21875 
L 39.890625 52.828125 
L 48.6875 52.828125 
L 48.6875 11.28125 
Q 48.6875 9.625 48.703125 7.78125 
Q 48.734375 5.953125 48.78125 4.3125 
Q 48.828125 2.6875 48.875 1.515625 
Q 48.921875 0.34375 48.96875 0 
L 40.671875 0 
Q 40.625 0.25 40.578125 1.3125 
Q 40.53125 2.390625 40.453125 3.78125 
Q 40.375 5.171875 40.328125 6.609375 
Q 40.28125 8.0625 40.28125 9.03125 
L 40.140625 9.03125 
Q 38.875 6.734375 37.359375 4.875 
Q 35.84375 3.03125 33.84375 1.734375 
Q 31.84375 0.4375 29.25 -0.265625 
Q 26.65625 -0.984375 23.25 -0.984375 
Q 18.84375 -0.984375 15.671875 0.09375 
Q 12.5 1.171875 10.453125 3.421875 
Q 8.40625 5.671875 7.453125 9.1875 
Q 6.5 12.703125 6.5 17.625 
L 6.5 52.828125 
z
" id="LiberationSans-75"/>
    <path d="M 51.421875 26.65625 
Q 51.421875 -0.984375 31.984375 -0.984375 
Q 25.984375 -0.984375 22 1.1875 
Q 18.015625 3.375 15.53125 8.203125 
L 15.4375 8.203125 
Q 15.4375 6.9375 15.359375 5.5625 
Q 15.28125 4.203125 15.203125 3.03125 
Q 15.140625 1.859375 15.0625 1.03125 
Q 14.984375 0.203125 14.9375 0 
L 6.453125 0 
Q 6.5 0.4375 6.546875 1.484375 
Q 6.59375 2.546875 6.640625 4 
Q 6.6875 5.46875 6.703125 7.21875 
Q 6.734375 8.984375 6.734375 10.890625 
L 6.734375 72.46875 
L 15.53125 72.46875 
L 15.53125 51.8125 
Q 15.53125 50.34375 15.5 49 
Q 15.484375 47.65625 15.4375 46.625 
Q 15.375 45.40625 15.328125 44.34375 
L 15.53125 44.34375 
Q 17.96875 49.421875 22 51.609375 
Q 26.03125 53.8125 31.984375 53.8125 
Q 42 53.8125 46.703125 47.0625 
Q 51.421875 40.328125 51.421875 26.65625 
M 42.1875 26.375 
Q 42.1875 31.84375 41.5 35.75 
Q 40.828125 39.65625 39.3125 42.15625 
Q 37.796875 44.671875 35.453125 45.84375 
Q 33.109375 47.015625 29.734375 47.015625 
Q 26.265625 47.015625 23.609375 45.890625 
Q 20.953125 44.78125 19.171875 42.28125 
Q 17.390625 39.796875 16.453125 35.734375 
Q 15.53125 31.6875 15.53125 25.828125 
Q 15.53125 20.171875 16.453125 16.3125 
Q 17.390625 12.453125 19.171875 10.03125 
Q 20.953125 7.625 23.578125 6.5625 
Q 26.21875 5.515625 29.640625 5.515625 
Q 32.859375 5.515625 35.203125 6.640625 
Q 37.546875 7.765625 39.109375 10.25 
Q 40.671875 12.75 41.421875 16.71875 
Q 42.1875 20.703125 42.1875 26.375 
" id="LiberationSans-62"/>
    <path d="M 54.734375 0 
L 54.734375 31.890625 
L 17.53125 31.890625 
L 17.53125 0 
L 8.203125 0 
L 8.203125 68.796875 
L 17.53125 68.796875 
L 17.53125 39.703125 
L 54.734375 39.703125 
L 54.734375 68.796875 
L 64.0625 68.796875 
L 64.0625 0 
z
" id="LiberationSans-48"/>
    <path d="M 62.109375 19 
Q 62.109375 14.65625 60.421875 10.984375 
Q 58.734375 7.328125 55.21875 4.65625 
Q 51.703125 2 46.359375 0.5 
Q 41.015625 -0.984375 33.6875 -0.984375 
Q 20.84375 -0.984375 13.671875 3.515625 
Q 6.5 8.015625 4.546875 16.5 
L 13.578125 18.3125 
Q 14.265625 15.625 15.671875 13.421875 
Q 17.09375 11.234375 19.5 9.640625 
Q 21.921875 8.0625 25.484375 7.171875 
Q 29.046875 6.296875 34.03125 6.296875 
Q 38.1875 6.296875 41.65625 7 
Q 45.125 7.71875 47.609375 9.171875 
Q 50.09375 10.640625 51.484375 12.953125 
Q 52.875 15.28125 52.875 18.5 
Q 52.875 21.875 51.34375 23.96875 
Q 49.8125 26.078125 47.015625 27.4375 
Q 44.234375 28.8125 40.375 29.734375 
Q 36.53125 30.671875 31.84375 31.734375 
Q 28.953125 32.375 26.046875 33.125 
Q 23.140625 33.890625 20.484375 34.9375 
Q 17.828125 35.984375 15.484375 37.390625 
Q 13.140625 38.8125 11.421875 40.796875 
Q 9.71875 42.78125 8.734375 45.390625 
Q 7.765625 48 7.765625 51.421875 
Q 7.765625 56.296875 9.734375 59.78125 
Q 11.71875 63.28125 15.234375 65.53125 
Q 18.75 67.78125 23.53125 68.796875 
Q 28.328125 69.828125 33.890625 69.828125 
Q 40.28125 69.828125 44.8125 68.828125 
Q 49.359375 67.828125 52.484375 65.8125 
Q 55.609375 63.8125 57.484375 60.859375 
Q 59.375 57.90625 60.5 54 
L 51.3125 52.390625 
Q 50.640625 54.890625 49.34375 56.84375 
Q 48.046875 58.796875 45.9375 60.109375 
Q 43.84375 61.421875 40.84375 62.109375 
Q 37.84375 62.796875 33.796875 62.796875 
Q 29 62.796875 25.75 61.9375 
Q 22.515625 61.078125 20.53125 59.609375 
Q 18.5625 58.15625 17.703125 56.171875 
Q 16.84375 54.203125 16.84375 51.90625 
Q 16.84375 48.828125 18.375 46.84375 
Q 19.921875 44.875 22.5625 43.546875 
Q 25.203125 42.234375 28.65625 41.359375 
Q 32.125 40.484375 36.03125 39.59375 
Q 39.203125 38.875 42.359375 38.109375 
Q 45.515625 37.359375 48.390625 36.296875 
Q 51.265625 35.25 53.78125 33.828125 
Q 56.296875 32.421875 58.15625 30.375 
Q 60.015625 28.328125 61.0625 25.53125 
Q 62.109375 22.75 62.109375 19 
" id="LiberationSans-53"/>
    <path d="M 29.9375 0 
L 19.53125 0 
L 0.34375 52.828125 
L 9.71875 52.828125 
L 21.34375 18.453125 
Q 21.6875 17.390625 22.140625 15.84375 
Q 22.609375 14.3125 23.09375 12.640625 
Q 23.578125 10.984375 24 9.4375 
Q 24.421875 7.90625 24.703125 6.890625 
Q 25 7.90625 25.453125 9.4375 
Q 25.921875 10.984375 26.40625 12.59375 
Q 26.90625 14.203125 27.421875 15.734375 
Q 27.9375 17.28125 28.328125 18.359375 
L 40.328125 52.828125 
L 49.65625 52.828125 
z
" id="LiberationSans-76"/>
   </defs>
   <g style="fill:#808080;" transform="translate(410.4 600.48)scale(0.12 -0.12)">
    <use xlink:href="#LiberationSans-53"/>
    <use x="66.69921875" xlink:href="#LiberationSans-6f"/>
    <use x="122.314453125" xlink:href="#LiberationSans-75"/>
    <use x="177.9296875" xlink:href="#LiberationSans-72"/>
    <use x="211.23046875" xlink:href="#LiberationSans-63"/>
    <use x="261.23046875" xlink:href="#LiberationSans-65"/>
    <use x="316.845703125" xlink:href="#LiberationSans-3a"/>
    <use x="344.62890625" xlink:href="#LiberationSans-20"/>
    <use x="372.412109375" xlink:href="#LiberationSans-68"/>
    <use x="428.02734375" xlink:href="#LiberationSans-74"/>
    <use x="455.810546875" xlink:href="#LiberationSans-74"/>
    <use x="483.59375" xlink:href="#LiberationSans-70"/>
    <use x="539.208984375" xlink:href="#LiberationSans-3a"/>
    <use x="566.9921875" xlink:href="#LiberationSans-2f"/>
    <use x="594.775390625" xlink:href="#LiberationSans-2f"/>
    <use x="622.55859375" xlink:href="#LiberationSans-77"/>
    <use x="694.775390625" xlink:href="#LiberationSans-77"/>
    <use x="766.9921875" xlink:href="#LiberationSans-77"/>
    <use x="839.130859375" xlink:href="#LiberationSans-2e"/>
    <use x="866.9140625" xlink:href="#LiberationSans-77"/>
    <use x="939.130859375" xlink:href="#LiberationSans-68"/>
    <use x="994.74609375" xlink:href="#LiberationSans-69"/>
    <use x="1016.96289062" xlink:href="#LiberationSans-74"/>
    <use x="1044.74609375" xlink:href="#LiberationSans-65"/>
    <use x="1100.36132812" xlink:href="#LiberationSans-68"/>
    <use x="1155.9765625" xlink:href="#LiberationSans-6f"/>
    <use x="1211.59179688" xlink:href="#LiberationSans-75"/>
    <use x="1267.20703125" xlink:href="#LiberationSans-73"/>
    <use x="1317.20703125" xlink:href="#LiberationSans-65"/>
    <use x="1372.82226562" xlink:href="#LiberationSans-2e"/>
    <use x="1400.60546875" xlink:href="#LiberationSans-67"/>
    <use x="1456.22070312" xlink:href="#LiberationSans-6f"/>
    <use x="1511.8359375" xlink:href="#LiberationSans-76"/>
    <use x="1561.8359375" xlink:href="#LiberationSans-2f"/>
    <use x="1589.61914062" xlink:href="#LiberationSans-6f"/>
    <use x="1645.234375" xlink:href="#LiberationSans-6d"/>
    <use x="1728.53515625" xlink:href="#LiberationSans-62"/>
    <use x="1784.15039062" xlink:href="#LiberationSans-2f"/>
    <use x="1811.93359375" xlink:href="#LiberationSans-62"/>
    <use x="1867.54882812" xlink:href="#LiberationSans-75"/>
    <use x="1923.1640625" xlink:href="#LiberationSans-64"/>
    <use x="1978.77929688" xlink:href="#LiberationSans-67"/>
    <use x="2034.39453125" xlink:href="#LiberationSans-65"/>
    <use x="2090.00976562" xlink:href="#LiberationSans-74"/>
    <use x="2117.79296875" xlink:href="#LiberationSans-2f"/>
    <use x="2145.57617188" xlink:href="#LiberationSans-48"/>
    <use x="2217.79296875" xlink:href="#LiberationSans-69"/>
    <use x="2240.00976562" xlink:href="#LiberationSans-73"/>
    <use x="2290.00976562" xlink:href="#LiberationSans-74"/>
    <use x="2317.79296875" xlink:href="#LiberationSans-6f"/>
    <use x="2373.40820312" xlink:href="#LiberationSans-72"/>
    <use x="2406.70898438" xlink:href="#LiberationSans-69"/>
    <use x="2428.92578125" xlink:href="#LiberationSans-63"/>
    <use x="2478.92578125" xlink:href="#LiberationSans-61"/>
    <use x="2534.54101562" xlink:href="#LiberationSans-6c"/>
    <use x="2556.7578125" xlink:href="#LiberationSans-73"/>
   </g>
  </g>
 </g>
 <defs>
  <clipPath id="p7b463bf8f2">
   <rect height="478.08" width="626.4" x="72.0" y="53.28"/>
  </clipPath>
 </defs>
</svg>
