<?xml version="1.0" encoding="utf-8" standalone="no"?>
<!DOCTYPE svg PUBLIC "-//W3C//DTD SVG 1.1//EN"
  "http://www.w3.org/Graphics/SVG/1.1/DTD/svg11.dtd">
<!-- Created with matplotlib (https://matplotlib.org/) -->
<svg height="772.895625pt" version="1.1" viewBox="0 0 1120.32 772.895625" width="1120.32pt" xmlns="http://www.w3.org/2000/svg" xmlns:xlink="http://www.w3.org/1999/xlink">
 <defs>
  <style type="text/css">
*{stroke-linecap:butt;stroke-linejoin:round;}
  </style>
 </defs>
 <g id="figure_1">
  <g id="patch_1">
   <path d="M 0 772.895625 
L 1120.32 772.895625 
L 1120.32 0 
L 0 0 
z
" style="fill:#f0f0f0;"/>
  </g>
  <g id="axes_1">
   <g id="patch_2">
    <path d="M 110.88 662.4 
L 1113.12 662.4 
L 1113.12 79.2 
L 110.88 79.2 
z
" style="fill:#f0f0f0;"/>
   </g>
   <g id="matplotlib.axis_1">
    <g id="xtick_1">
     <g id="line2d_1">
      <path clip-path="url(#p0d8ce6b7ae)" d="M 110.88 662.4 
L 110.88 79.2 
" style="fill:none;stroke:#cbcbcb;"/>
     </g>
     <g id="line2d_2"/>
     <g id="text_1">
      <!-- 1995 -->
      <defs>
       <path d="M 11.71875 12.984375 
L 28.328125 12.984375 
L 28.328125 60.109375 
L 11.28125 56.59375 
L 11.28125 69.390625 
L 28.21875 72.90625 
L 46.09375 72.90625 
L 46.09375 12.984375 
L 62.703125 12.984375 
L 62.703125 0 
L 11.71875 0 
z
" id="DejaVuSans-Bold-49"/>
       <path d="M 10.015625 1.609375 
L 10.015625 15.09375 
Q 14.5 12.984375 18.59375 11.9375 
Q 22.703125 10.890625 26.703125 10.890625 
Q 35.109375 10.890625 39.796875 15.546875 
Q 44.484375 20.21875 45.3125 29.390625 
Q 42 26.953125 38.234375 25.734375 
Q 34.46875 24.515625 30.078125 24.515625 
Q 18.890625 24.515625 12.03125 31.03125 
Q 5.171875 37.546875 5.171875 48.1875 
Q 5.171875 59.96875 12.8125 67.046875 
Q 20.453125 74.125 33.296875 74.125 
Q 47.5625 74.125 55.375 64.5 
Q 63.1875 54.890625 63.1875 37.3125 
Q 63.1875 19.234375 54.046875 8.90625 
Q 44.921875 -1.421875 29 -1.421875 
Q 23.875 -1.421875 19.1875 -0.65625 
Q 14.5 0.09375 10.015625 1.609375 
z
M 33.203125 36.71875 
Q 38.140625 36.71875 40.625 39.90625 
Q 43.109375 43.109375 43.109375 49.515625 
Q 43.109375 55.859375 40.625 59.078125 
Q 38.140625 62.3125 33.203125 62.3125 
Q 28.265625 62.3125 25.78125 59.078125 
Q 23.296875 55.859375 23.296875 49.515625 
Q 23.296875 43.109375 25.78125 39.90625 
Q 28.265625 36.71875 33.203125 36.71875 
z
" id="DejaVuSans-Bold-57"/>
       <path d="M 10.59375 72.90625 
L 57.328125 72.90625 
L 57.328125 59.078125 
L 25.59375 59.078125 
L 25.59375 47.796875 
Q 27.734375 48.390625 29.90625 48.703125 
Q 32.078125 49.03125 34.421875 49.03125 
Q 47.75 49.03125 55.171875 42.359375 
Q 62.59375 35.6875 62.59375 23.78125 
Q 62.59375 11.96875 54.515625 5.265625 
Q 46.4375 -1.421875 32.078125 -1.421875 
Q 25.875 -1.421875 19.796875 -0.21875 
Q 13.71875 0.984375 7.71875 3.421875 
L 7.71875 18.21875 
Q 13.671875 14.796875 19.015625 13.078125 
Q 24.359375 11.375 29.109375 11.375 
Q 35.9375 11.375 39.859375 14.71875 
Q 43.796875 18.0625 43.796875 23.78125 
Q 43.796875 29.546875 39.859375 32.859375 
Q 35.9375 36.1875 29.109375 36.1875 
Q 25.046875 36.1875 20.453125 35.125 
Q 15.875 34.078125 10.59375 31.890625 
z
" id="DejaVuSans-Bold-53"/>
      </defs>
      <g transform="translate(94.18125 675.018125)scale(0.12 -0.12)">
       <use xlink:href="#DejaVuSans-Bold-49"/>
       <use x="69.580078" xlink:href="#DejaVuSans-Bold-57"/>
       <use x="139.160156" xlink:href="#DejaVuSans-Bold-57"/>
       <use x="208.740234" xlink:href="#DejaVuSans-Bold-53"/>
      </g>
     </g>
    </g>
    <g id="xtick_2">
     <g id="line2d_3">
      <path clip-path="url(#p0d8ce6b7ae)" d="M 319.68 662.4 
L 319.68 79.2 
" style="fill:none;stroke:#cbcbcb;"/>
     </g>
     <g id="line2d_4"/>
     <g id="text_2">
      <!-- 2000 -->
      <defs>
       <path d="M 28.8125 13.8125 
L 60.890625 13.8125 
L 60.890625 0 
L 7.90625 0 
L 7.90625 13.8125 
L 34.515625 37.3125 
Q 38.09375 40.53125 39.796875 43.609375 
Q 41.5 46.6875 41.5 50 
Q 41.5 55.125 38.0625 58.25 
Q 34.625 61.375 28.90625 61.375 
Q 24.515625 61.375 19.28125 59.5 
Q 14.0625 57.625 8.109375 53.90625 
L 8.109375 69.921875 
Q 14.453125 72.015625 20.65625 73.109375 
Q 26.859375 74.21875 32.8125 74.21875 
Q 45.90625 74.21875 53.15625 68.453125 
Q 60.40625 62.703125 60.40625 52.390625 
Q 60.40625 46.4375 57.328125 41.28125 
Q 54.25 36.140625 44.390625 27.484375 
z
" id="DejaVuSans-Bold-50"/>
       <path d="M 46 36.53125 
Q 46 50.203125 43.4375 55.78125 
Q 40.875 61.375 34.8125 61.375 
Q 28.765625 61.375 26.171875 55.78125 
Q 23.578125 50.203125 23.578125 36.53125 
Q 23.578125 22.703125 26.171875 17.03125 
Q 28.765625 11.375 34.8125 11.375 
Q 40.828125 11.375 43.40625 17.03125 
Q 46 22.703125 46 36.53125 
z
M 64.796875 36.375 
Q 64.796875 18.265625 56.984375 8.421875 
Q 49.171875 -1.421875 34.8125 -1.421875 
Q 20.40625 -1.421875 12.59375 8.421875 
Q 4.78125 18.265625 4.78125 36.375 
Q 4.78125 54.546875 12.59375 64.375 
Q 20.40625 74.21875 34.8125 74.21875 
Q 49.171875 74.21875 56.984375 64.375 
Q 64.796875 54.546875 64.796875 36.375 
z
" id="DejaVuSans-Bold-48"/>
      </defs>
      <g transform="translate(302.98125 675.018125)scale(0.12 -0.12)">
       <use xlink:href="#DejaVuSans-Bold-50"/>
       <use x="69.580078" xlink:href="#DejaVuSans-Bold-48"/>
       <use x="139.160156" xlink:href="#DejaVuSans-Bold-48"/>
       <use x="208.740234" xlink:href="#DejaVuSans-Bold-48"/>
      </g>
     </g>
    </g>
    <g id="xtick_3">
     <g id="line2d_5">
      <path clip-path="url(#p0d8ce6b7ae)" d="M 528.48 662.4 
L 528.48 79.2 
" style="fill:none;stroke:#cbcbcb;"/>
     </g>
     <g id="line2d_6"/>
     <g id="text_3">
      <!-- 2005 -->
      <g transform="translate(511.78125 675.018125)scale(0.12 -0.12)">
       <use xlink:href="#DejaVuSans-Bold-50"/>
       <use x="69.580078" xlink:href="#DejaVuSans-Bold-48"/>
       <use x="139.160156" xlink:href="#DejaVuSans-Bold-48"/>
       <use x="208.740234" xlink:href="#DejaVuSans-Bold-53"/>
      </g>
     </g>
    </g>
    <g id="xtick_4">
     <g id="line2d_7">
      <path clip-path="url(#p0d8ce6b7ae)" d="M 737.28 662.4 
L 737.28 79.2 
" style="fill:none;stroke:#cbcbcb;"/>
     </g>
     <g id="line2d_8"/>
     <g id="text_4">
      <!-- 2010 -->
      <g transform="translate(720.58125 675.018125)scale(0.12 -0.12)">
       <use xlink:href="#DejaVuSans-Bold-50"/>
       <use x="69.580078" xlink:href="#DejaVuSans-Bold-48"/>
       <use x="139.160156" xlink:href="#DejaVuSans-Bold-49"/>
       <use x="208.740234" xlink:href="#DejaVuSans-Bold-48"/>
      </g>
     </g>
    </g>
    <g id="xtick_5">
     <g id="line2d_9">
      <path clip-path="url(#p0d8ce6b7ae)" d="M 946.08 662.4 
L 946.08 79.2 
" style="fill:none;stroke:#cbcbcb;"/>
     </g>
     <g id="line2d_10"/>
     <g id="text_5">
      <!-- 2015 -->
      <g transform="translate(929.38125 675.018125)scale(0.12 -0.12)">
       <use xlink:href="#DejaVuSans-Bold-50"/>
       <use x="69.580078" xlink:href="#DejaVuSans-Bold-48"/>
       <use x="139.160156" xlink:href="#DejaVuSans-Bold-49"/>
       <use x="208.740234" xlink:href="#DejaVuSans-Bold-53"/>
      </g>
     </g>
    </g>
    <g id="xtick_6">
     <g id="line2d_11"/>
    </g>
    <g id="xtick_7">
     <g id="line2d_12"/>
    </g>
    <g id="xtick_8">
     <g id="line2d_13"/>
    </g>
    <g id="xtick_9">
     <g id="line2d_14"/>
    </g>
    <g id="xtick_10">
     <g id="line2d_15"/>
    </g>
    <g id="xtick_11">
     <g id="line2d_16"/>
    </g>
    <g id="xtick_12">
     <g id="line2d_17"/>
    </g>
    <g id="xtick_13">
     <g id="line2d_18"/>
    </g>
    <g id="xtick_14">
     <g id="line2d_19"/>
    </g>
    <g id="xtick_15">
     <g id="line2d_20"/>
    </g>
    <g id="xtick_16">
     <g id="line2d_21"/>
    </g>
    <g id="xtick_17">
     <g id="line2d_22"/>
    </g>
    <g id="xtick_18">
     <g id="line2d_23"/>
    </g>
    <g id="xtick_19">
     <g id="line2d_24"/>
    </g>
    <g id="xtick_20">
     <g id="line2d_25"/>
    </g>
    <g id="xtick_21">
     <g id="line2d_26"/>
    </g>
    <g id="xtick_22">
     <g id="line2d_27"/>
    </g>
    <g id="xtick_23">
     <g id="line2d_28"/>
    </g>
    <g id="xtick_24">
     <g id="line2d_29"/>
    </g>
    <g id="xtick_25">
     <g id="line2d_30"/>
    </g>
    <g id="text_6">
     <!-- Fiscal Year -->
     <defs>
      <path d="M 9.8125 72.90625 
L 51.703125 72.90625 
L 51.703125 64.59375 
L 19.671875 64.59375 
L 19.671875 43.109375 
L 48.578125 43.109375 
L 48.578125 34.8125 
L 19.671875 34.8125 
L 19.671875 0 
L 9.8125 0 
z
" id="DejaVuSans-70"/>
      <path d="M 9.421875 54.6875 
L 18.40625 54.6875 
L 18.40625 0 
L 9.421875 0 
z
M 9.421875 75.984375 
L 18.40625 75.984375 
L 18.40625 64.59375 
L 9.421875 64.59375 
z
" id="DejaVuSans-105"/>
      <path d="M 44.28125 53.078125 
L 44.28125 44.578125 
Q 40.484375 46.53125 36.375 47.5 
Q 32.28125 48.484375 27.875 48.484375 
Q 21.1875 48.484375 17.84375 46.4375 
Q 14.5 44.390625 14.5 40.28125 
Q 14.5 37.15625 16.890625 35.375 
Q 19.28125 33.59375 26.515625 31.984375 
L 29.59375 31.296875 
Q 39.15625 29.25 43.1875 25.515625 
Q 47.21875 21.78125 47.21875 15.09375 
Q 47.21875 7.46875 41.1875 3.015625 
Q 35.15625 -1.421875 24.609375 -1.421875 
Q 20.21875 -1.421875 15.453125 -0.5625 
Q 10.6875 0.296875 5.421875 2 
L 5.421875 11.28125 
Q 10.40625 8.6875 15.234375 7.390625 
Q 20.0625 6.109375 24.8125 6.109375 
Q 31.15625 6.109375 34.5625 8.28125 
Q 37.984375 10.453125 37.984375 14.40625 
Q 37.984375 18.0625 35.515625 20.015625 
Q 33.0625 21.96875 24.703125 23.78125 
L 21.578125 24.515625 
Q 13.234375 26.265625 9.515625 29.90625 
Q 5.8125 33.546875 5.8125 39.890625 
Q 5.8125 47.609375 11.28125 51.796875 
Q 16.75 56 26.8125 56 
Q 31.78125 56 36.171875 55.265625 
Q 40.578125 54.546875 44.28125 53.078125 
z
" id="DejaVuSans-115"/>
      <path d="M 48.78125 52.59375 
L 48.78125 44.1875 
Q 44.96875 46.296875 41.140625 47.34375 
Q 37.3125 48.390625 33.40625 48.390625 
Q 24.65625 48.390625 19.8125 42.84375 
Q 14.984375 37.3125 14.984375 27.296875 
Q 14.984375 17.28125 19.8125 11.734375 
Q 24.65625 6.203125 33.40625 6.203125 
Q 37.3125 6.203125 41.140625 7.25 
Q 44.96875 8.296875 48.78125 10.40625 
L 48.78125 2.09375 
Q 45.015625 0.34375 40.984375 -0.53125 
Q 36.96875 -1.421875 32.421875 -1.421875 
Q 20.0625 -1.421875 12.78125 6.34375 
Q 5.515625 14.109375 5.515625 27.296875 
Q 5.515625 40.671875 12.859375 48.328125 
Q 20.21875 56 33.015625 56 
Q 37.15625 56 41.109375 55.140625 
Q 45.0625 54.296875 48.78125 52.59375 
z
" id="DejaVuSans-99"/>
      <path d="M 34.28125 27.484375 
Q 23.390625 27.484375 19.1875 25 
Q 14.984375 22.515625 14.984375 16.5 
Q 14.984375 11.71875 18.140625 8.90625 
Q 21.296875 6.109375 26.703125 6.109375 
Q 34.1875 6.109375 38.703125 11.40625 
Q 43.21875 16.703125 43.21875 25.484375 
L 43.21875 27.484375 
z
M 52.203125 31.203125 
L 52.203125 0 
L 43.21875 0 
L 43.21875 8.296875 
Q 40.140625 3.328125 35.546875 0.953125 
Q 30.953125 -1.421875 24.3125 -1.421875 
Q 15.921875 -1.421875 10.953125 3.296875 
Q 6 8.015625 6 15.921875 
Q 6 25.140625 12.171875 29.828125 
Q 18.359375 34.515625 30.609375 34.515625 
L 43.21875 34.515625 
L 43.21875 35.40625 
Q 43.21875 41.609375 39.140625 45 
Q 35.0625 48.390625 27.6875 48.390625 
Q 23 48.390625 18.546875 47.265625 
Q 14.109375 46.140625 10.015625 43.890625 
L 10.015625 52.203125 
Q 14.9375 54.109375 19.578125 55.046875 
Q 24.21875 56 28.609375 56 
Q 40.484375 56 46.34375 49.84375 
Q 52.203125 43.703125 52.203125 31.203125 
z
" id="DejaVuSans-97"/>
      <path d="M 9.421875 75.984375 
L 18.40625 75.984375 
L 18.40625 0 
L 9.421875 0 
z
" id="DejaVuSans-108"/>
      <path id="DejaVuSans-32"/>
      <path d="M -0.203125 72.90625 
L 10.40625 72.90625 
L 30.609375 42.921875 
L 50.6875 72.90625 
L 61.28125 72.90625 
L 35.5 34.71875 
L 35.5 0 
L 25.59375 0 
L 25.59375 34.71875 
z
" id="DejaVuSans-89"/>
      <path d="M 56.203125 29.59375 
L 56.203125 25.203125 
L 14.890625 25.203125 
Q 15.484375 15.921875 20.484375 11.0625 
Q 25.484375 6.203125 34.421875 6.203125 
Q 39.59375 6.203125 44.453125 7.46875 
Q 49.3125 8.734375 54.109375 11.28125 
L 54.109375 2.78125 
Q 49.265625 0.734375 44.1875 -0.34375 
Q 39.109375 -1.421875 33.890625 -1.421875 
Q 20.796875 -1.421875 13.15625 6.1875 
Q 5.515625 13.8125 5.515625 26.8125 
Q 5.515625 40.234375 12.765625 48.109375 
Q 20.015625 56 32.328125 56 
Q 43.359375 56 49.78125 48.890625 
Q 56.203125 41.796875 56.203125 29.59375 
z
M 47.21875 32.234375 
Q 47.125 39.59375 43.09375 43.984375 
Q 39.0625 48.390625 32.421875 48.390625 
Q 24.90625 48.390625 20.390625 44.140625 
Q 15.875 39.890625 15.1875 32.171875 
z
" id="DejaVuSans-101"/>
      <path d="M 41.109375 46.296875 
Q 39.59375 47.171875 37.8125 47.578125 
Q 36.03125 48 33.890625 48 
Q 26.265625 48 22.1875 43.046875 
Q 18.109375 38.09375 18.109375 28.8125 
L 18.109375 0 
L 9.078125 0 
L 9.078125 54.6875 
L 18.109375 54.6875 
L 18.109375 46.1875 
Q 20.953125 51.171875 25.484375 53.578125 
Q 30.03125 56 36.53125 56 
Q 37.453125 56 38.578125 55.875 
Q 39.703125 55.765625 41.0625 55.515625 
z
" id="DejaVuSans-114"/>
     </defs>
     <g transform="translate(566.815875 694.279125)scale(0.168 -0.168)">
      <use xlink:href="#DejaVuSans-70"/>
      <use x="57.410156" xlink:href="#DejaVuSans-105"/>
      <use x="85.193359" xlink:href="#DejaVuSans-115"/>
      <use x="137.292969" xlink:href="#DejaVuSans-99"/>
      <use x="192.273438" xlink:href="#DejaVuSans-97"/>
      <use x="253.552734" xlink:href="#DejaVuSans-108"/>
      <use x="281.335938" xlink:href="#DejaVuSans-32"/>
      <use x="313.123047" xlink:href="#DejaVuSans-89"/>
      <use x="374.003906" xlink:href="#DejaVuSans-101"/>
      <use x="435.527344" xlink:href="#DejaVuSans-97"/>
      <use x="496.806641" xlink:href="#DejaVuSans-114"/>
     </g>
    </g>
   </g>
   <g id="matplotlib.axis_2">
    <g id="ytick_1">
     <g id="line2d_31">
      <path clip-path="url(#p0d8ce6b7ae)" d="M 110.88 662.4 
L 1113.12 662.4 
" style="fill:none;stroke:#cbcbcb;"/>
     </g>
     <g id="line2d_32"/>
     <g id="text_7">
      <!-- 0 -->
      <g transform="translate(99.030625 666.959062)scale(0.12 -0.12)">
       <use xlink:href="#DejaVuSans-Bold-48"/>
      </g>
     </g>
    </g>
    <g id="ytick_2">
     <g id="line2d_33">
      <path clip-path="url(#p0d8ce6b7ae)" d="M 110.88 596.563211 
L 1113.12 596.563211 
" style="fill:none;stroke:#cbcbcb;"/>
     </g>
     <g id="line2d_34"/>
     <g id="text_8">
      <!-- 250 -->
      <g transform="translate(82.331875 601.122273)scale(0.12 -0.12)">
       <use xlink:href="#DejaVuSans-Bold-50"/>
       <use x="69.580078" xlink:href="#DejaVuSans-Bold-53"/>
       <use x="139.160156" xlink:href="#DejaVuSans-Bold-48"/>
      </g>
     </g>
    </g>
    <g id="ytick_3">
     <g id="line2d_35">
      <path clip-path="url(#p0d8ce6b7ae)" d="M 110.88 530.726422 
L 1113.12 530.726422 
" style="fill:none;stroke:#cbcbcb;"/>
     </g>
     <g id="line2d_36"/>
     <g id="text_9">
      <!-- 500 -->
      <g transform="translate(82.331875 535.285484)scale(0.12 -0.12)">
       <use xlink:href="#DejaVuSans-Bold-53"/>
       <use x="69.580078" xlink:href="#DejaVuSans-Bold-48"/>
       <use x="139.160156" xlink:href="#DejaVuSans-Bold-48"/>
      </g>
     </g>
    </g>
    <g id="ytick_4">
     <g id="line2d_37">
      <path clip-path="url(#p0d8ce6b7ae)" d="M 110.88 464.889633 
L 1113.12 464.889633 
" style="fill:none;stroke:#cbcbcb;"/>
     </g>
     <g id="line2d_38"/>
     <g id="text_10">
      <!-- 750 -->
      <defs>
       <path d="M 6.6875 72.90625 
L 61.625 72.90625 
L 61.625 62.3125 
L 33.203125 0 
L 14.890625 0 
L 41.796875 59.078125 
L 6.6875 59.078125 
z
" id="DejaVuSans-Bold-55"/>
      </defs>
      <g transform="translate(82.331875 469.448695)scale(0.12 -0.12)">
       <use xlink:href="#DejaVuSans-Bold-55"/>
       <use x="69.580078" xlink:href="#DejaVuSans-Bold-53"/>
       <use x="139.160156" xlink:href="#DejaVuSans-Bold-48"/>
      </g>
     </g>
    </g>
    <g id="ytick_5">
     <g id="line2d_39">
      <path clip-path="url(#p0d8ce6b7ae)" d="M 110.88 399.052844 
L 1113.12 399.052844 
" style="fill:none;stroke:#cbcbcb;"/>
     </g>
     <g id="line2d_40"/>
     <g id="text_11">
      <!-- 1000 -->
      <g transform="translate(73.9825 403.611906)scale(0.12 -0.12)">
       <use xlink:href="#DejaVuSans-Bold-49"/>
       <use x="69.580078" xlink:href="#DejaVuSans-Bold-48"/>
       <use x="139.160156" xlink:href="#DejaVuSans-Bold-48"/>
       <use x="208.740234" xlink:href="#DejaVuSans-Bold-48"/>
      </g>
     </g>
    </g>
    <g id="ytick_6">
     <g id="line2d_41">
      <path clip-path="url(#p0d8ce6b7ae)" d="M 110.88 333.216055 
L 1113.12 333.216055 
" style="fill:none;stroke:#cbcbcb;"/>
     </g>
     <g id="line2d_42"/>
     <g id="text_12">
      <!-- 1250 -->
      <g transform="translate(73.9825 337.775117)scale(0.12 -0.12)">
       <use xlink:href="#DejaVuSans-Bold-49"/>
       <use x="69.580078" xlink:href="#DejaVuSans-Bold-50"/>
       <use x="139.160156" xlink:href="#DejaVuSans-Bold-53"/>
       <use x="208.740234" xlink:href="#DejaVuSans-Bold-48"/>
      </g>
     </g>
    </g>
    <g id="ytick_7">
     <g id="line2d_43">
      <path clip-path="url(#p0d8ce6b7ae)" d="M 110.88 267.379266 
L 1113.12 267.379266 
" style="fill:none;stroke:#cbcbcb;"/>
     </g>
     <g id="line2d_44"/>
     <g id="text_13">
      <!-- 1500 -->
      <g transform="translate(73.9825 271.938328)scale(0.12 -0.12)">
       <use xlink:href="#DejaVuSans-Bold-49"/>
       <use x="69.580078" xlink:href="#DejaVuSans-Bold-53"/>
       <use x="139.160156" xlink:href="#DejaVuSans-Bold-48"/>
       <use x="208.740234" xlink:href="#DejaVuSans-Bold-48"/>
      </g>
     </g>
    </g>
    <g id="ytick_8">
     <g id="line2d_45">
      <path clip-path="url(#p0d8ce6b7ae)" d="M 110.88 201.542477 
L 1113.12 201.542477 
" style="fill:none;stroke:#cbcbcb;"/>
     </g>
     <g id="line2d_46"/>
     <g id="text_14">
      <!-- 1750 -->
      <g transform="translate(73.9825 206.101539)scale(0.12 -0.12)">
       <use xlink:href="#DejaVuSans-Bold-49"/>
       <use x="69.580078" xlink:href="#DejaVuSans-Bold-55"/>
       <use x="139.160156" xlink:href="#DejaVuSans-Bold-53"/>
       <use x="208.740234" xlink:href="#DejaVuSans-Bold-48"/>
      </g>
     </g>
    </g>
    <g id="ytick_9">
     <g id="line2d_47">
      <path clip-path="url(#p0d8ce6b7ae)" d="M 110.88 135.705688 
L 1113.12 135.705688 
" style="fill:none;stroke:#cbcbcb;"/>
     </g>
     <g id="line2d_48"/>
     <g id="text_15">
      <!-- 2000 -->
      <g transform="translate(73.9825 140.26475)scale(0.12 -0.12)">
       <use xlink:href="#DejaVuSans-Bold-50"/>
       <use x="69.580078" xlink:href="#DejaVuSans-Bold-48"/>
       <use x="139.160156" xlink:href="#DejaVuSans-Bold-48"/>
       <use x="208.740234" xlink:href="#DejaVuSans-Bold-48"/>
      </g>
     </g>
    </g>
    <g id="text_16">
     <!-- Dollars (Billions) -->
     <defs>
      <path d="M 19.671875 64.796875 
L 19.671875 8.109375 
L 31.59375 8.109375 
Q 46.6875 8.109375 53.6875 14.9375 
Q 60.6875 21.78125 60.6875 36.53125 
Q 60.6875 51.171875 53.6875 57.984375 
Q 46.6875 64.796875 31.59375 64.796875 
z
M 9.8125 72.90625 
L 30.078125 72.90625 
Q 51.265625 72.90625 61.171875 64.09375 
Q 71.09375 55.28125 71.09375 36.53125 
Q 71.09375 17.671875 61.125 8.828125 
Q 51.171875 0 30.078125 0 
L 9.8125 0 
z
" id="DejaVuSans-68"/>
      <path d="M 30.609375 48.390625 
Q 23.390625 48.390625 19.1875 42.75 
Q 14.984375 37.109375 14.984375 27.296875 
Q 14.984375 17.484375 19.15625 11.84375 
Q 23.34375 6.203125 30.609375 6.203125 
Q 37.796875 6.203125 41.984375 11.859375 
Q 46.1875 17.53125 46.1875 27.296875 
Q 46.1875 37.015625 41.984375 42.703125 
Q 37.796875 48.390625 30.609375 48.390625 
z
M 30.609375 56 
Q 42.328125 56 49.015625 48.375 
Q 55.71875 40.765625 55.71875 27.296875 
Q 55.71875 13.875 49.015625 6.21875 
Q 42.328125 -1.421875 30.609375 -1.421875 
Q 18.84375 -1.421875 12.171875 6.21875 
Q 5.515625 13.875 5.515625 27.296875 
Q 5.515625 40.765625 12.171875 48.375 
Q 18.84375 56 30.609375 56 
z
" id="DejaVuSans-111"/>
      <path d="M 31 75.875 
Q 24.46875 64.65625 21.28125 53.65625 
Q 18.109375 42.671875 18.109375 31.390625 
Q 18.109375 20.125 21.3125 9.0625 
Q 24.515625 -2 31 -13.1875 
L 23.1875 -13.1875 
Q 15.875 -1.703125 12.234375 9.375 
Q 8.59375 20.453125 8.59375 31.390625 
Q 8.59375 42.28125 12.203125 53.3125 
Q 15.828125 64.359375 23.1875 75.875 
z
" id="DejaVuSans-40"/>
      <path d="M 19.671875 34.8125 
L 19.671875 8.109375 
L 35.5 8.109375 
Q 43.453125 8.109375 47.28125 11.40625 
Q 51.125 14.703125 51.125 21.484375 
Q 51.125 28.328125 47.28125 31.5625 
Q 43.453125 34.8125 35.5 34.8125 
z
M 19.671875 64.796875 
L 19.671875 42.828125 
L 34.28125 42.828125 
Q 41.5 42.828125 45.03125 45.53125 
Q 48.578125 48.25 48.578125 53.8125 
Q 48.578125 59.328125 45.03125 62.0625 
Q 41.5 64.796875 34.28125 64.796875 
z
M 9.8125 72.90625 
L 35.015625 72.90625 
Q 46.296875 72.90625 52.390625 68.21875 
Q 58.5 63.53125 58.5 54.890625 
Q 58.5 48.1875 55.375 44.234375 
Q 52.25 40.28125 46.1875 39.3125 
Q 53.46875 37.75 57.5 32.78125 
Q 61.53125 27.828125 61.53125 20.40625 
Q 61.53125 10.640625 54.890625 5.3125 
Q 48.25 0 35.984375 0 
L 9.8125 0 
z
" id="DejaVuSans-66"/>
      <path d="M 54.890625 33.015625 
L 54.890625 0 
L 45.90625 0 
L 45.90625 32.71875 
Q 45.90625 40.484375 42.875 44.328125 
Q 39.84375 48.1875 33.796875 48.1875 
Q 26.515625 48.1875 22.3125 43.546875 
Q 18.109375 38.921875 18.109375 30.90625 
L 18.109375 0 
L 9.078125 0 
L 9.078125 54.6875 
L 18.109375 54.6875 
L 18.109375 46.1875 
Q 21.34375 51.125 25.703125 53.5625 
Q 30.078125 56 35.796875 56 
Q 45.21875 56 50.046875 50.171875 
Q 54.890625 44.34375 54.890625 33.015625 
z
" id="DejaVuSans-110"/>
      <path d="M 8.015625 75.875 
L 15.828125 75.875 
Q 23.140625 64.359375 26.78125 53.3125 
Q 30.421875 42.28125 30.421875 31.390625 
Q 30.421875 20.453125 26.78125 9.375 
Q 23.140625 -1.703125 15.828125 -13.1875 
L 8.015625 -13.1875 
Q 14.5 -2 17.703125 9.0625 
Q 20.90625 20.125 20.90625 31.390625 
Q 20.90625 42.671875 17.703125 53.65625 
Q 14.5 64.65625 8.015625 75.875 
z
" id="DejaVuSans-41"/>
     </defs>
     <g transform="translate(66.488625 439.21275)rotate(-90)scale(0.168 -0.168)">
      <use xlink:href="#DejaVuSans-68"/>
      <use x="77.001953" xlink:href="#DejaVuSans-111"/>
      <use x="138.183594" xlink:href="#DejaVuSans-108"/>
      <use x="165.966797" xlink:href="#DejaVuSans-108"/>
      <use x="193.75" xlink:href="#DejaVuSans-97"/>
      <use x="255.029297" xlink:href="#DejaVuSans-114"/>
      <use x="296.142578" xlink:href="#DejaVuSans-115"/>
      <use x="348.242188" xlink:href="#DejaVuSans-32"/>
      <use x="380.029297" xlink:href="#DejaVuSans-40"/>
      <use x="419.042969" xlink:href="#DejaVuSans-66"/>
      <use x="487.646484" xlink:href="#DejaVuSans-105"/>
      <use x="515.429688" xlink:href="#DejaVuSans-108"/>
      <use x="543.212891" xlink:href="#DejaVuSans-108"/>
      <use x="570.996094" xlink:href="#DejaVuSans-105"/>
      <use x="598.779297" xlink:href="#DejaVuSans-111"/>
      <use x="659.960938" xlink:href="#DejaVuSans-110"/>
      <use x="723.339844" xlink:href="#DejaVuSans-115"/>
      <use x="775.439453" xlink:href="#DejaVuSans-41"/>
     </g>
    </g>
   </g>
   <g id="PolyCollection_1">
    <defs>
     <path d="M 110.88 -265.934704 
L 110.88 -110.495625 
L 152.64 -110.495625 
L 194.4 -110.495625 
L 236.16 -110.495625 
L 277.92 -110.495625 
L 319.68 -110.495625 
L 361.44 -110.495625 
L 403.2 -110.495625 
L 444.96 -110.495625 
L 486.72 -110.495625 
L 528.48 -110.495625 
L 570.24 -110.495625 
L 612 -110.495625 
L 653.76 -110.495625 
L 695.52 -110.495625 
L 737.28 -110.495625 
L 779.04 -110.495625 
L 820.8 -110.495625 
L 862.56 -110.495625 
L 904.32 -110.495625 
L 946.08 -110.495625 
L 987.84 -110.495625 
L 1029.6 -110.495625 
L 1071.36 -110.495625 
L 1113.12 -110.495625 
L 1113.12 -380.726422 
L 1113.12 -380.726422 
L 1071.36 -381.379556 
L 1029.6 -370.743727 
L 987.84 -369.36027 
L 946.08 -373.829536 
L 904.32 -350.575867 
L 862.56 -338.834203 
L 820.8 -309.832979 
L 779.04 -306.007122 
L 737.28 -276.217502 
L 695.52 -281.833366 
L 653.76 -330.806118 
L 612 -334.457302 
L 570.24 -319.607199 
L 528.48 -300.952161 
L 486.72 -282.335869 
L 444.96 -284.583161 
L 403.2 -302.301068 
L 361.44 -337.9713 
L 319.68 -343.852964 
L 277.92 -321.740204 
L 236.16 -314.855978 
L 194.4 -295.316308 
L 152.64 -277.802569 
L 110.88 -265.934704 
z
" id="m26c89d23a0" style="stroke:#008fd5;stroke-width:0.5;"/>
    </defs>
    <g clip-path="url(#p0d8ce6b7ae)">
     <use style="fill:#008fd5;stroke:#008fd5;stroke-width:0.5;" x="0" xlink:href="#m26c89d23a0" y="772.895625"/>
    </g>
   </g>
   <g id="PolyCollection_2">
    <defs>
     <path d="M 110.88 -307.281261 
L 110.88 -265.934704 
L 152.64 -277.802569 
L 194.4 -295.316308 
L 236.16 -314.855978 
L 277.92 -321.740204 
L 319.68 -343.852964 
L 361.44 -337.9713 
L 403.2 -302.301068 
L 444.96 -284.583161 
L 486.72 -282.335869 
L 528.48 -300.952161 
L 570.24 -319.607199 
L 612 -334.457302 
L 653.76 -330.806118 
L 695.52 -281.833366 
L 737.28 -276.217502 
L 779.04 -306.007122 
L 820.8 -309.832979 
L 862.56 -338.834203 
L 904.32 -350.575867 
L 946.08 -373.829536 
L 987.84 -369.36027 
L 1029.6 -370.743727 
L 1071.36 -381.379556 
L 1113.12 -380.726422 
L 1113.12 -416.945554 
L 1113.12 -416.945554 
L 1071.36 -414.32142 
L 1029.6 -419.452192 
L 987.84 -419.518471 
L 946.08 -432.586864 
L 904.32 -405.790942 
L 862.56 -386.275508 
L 820.8 -352.49063 
L 779.04 -338.444204 
L 737.28 -311.524757 
L 695.52 -307.708639 
L 653.76 -389.32743 
L 612 -405.726952 
L 570.24 -390.502069 
L 528.48 -358.112825 
L 486.72 -322.562331 
L 444.96 -313.486949 
L 403.2 -335.382923 
L 361.44 -372.53284 
L 319.68 -392.010494 
L 277.92 -366.098972 
L 236.16 -361.390795 
L 194.4 -341.001827 
L 152.64 -321.596908 
L 110.88 -307.281261 
z
" id="m397e81efa7" style="stroke:#fc4f30;stroke-width:0.5;"/>
    </defs>
    <g clip-path="url(#p0d8ce6b7ae)">
     <use style="fill:#fc4f30;stroke:#fc4f30;stroke-width:0.5;" x="0" xlink:href="#m397e81efa7" y="772.895625"/>
    </g>
   </g>
   <g id="PolyCollection_3">
    <defs>
     <path d="M 110.88 -434.865848 
L 110.88 -307.281261 
L 152.64 -321.596908 
L 194.4 -341.001827 
L 236.16 -361.390795 
L 277.92 -366.098972 
L 319.68 -392.010494 
L 361.44 -372.53284 
L 403.2 -335.382923 
L 444.96 -313.486949 
L 486.72 -322.562331 
L 528.48 -358.112825 
L 570.24 -390.502069 
L 612 -405.726952 
L 653.76 -389.32743 
L 695.52 -307.708639 
L 737.28 -311.524757 
L 779.04 -338.444204 
L 820.8 -352.49063 
L 862.56 -386.275508 
L 904.32 -405.790942 
L 946.08 -432.586864 
L 987.84 -419.518471 
L 1029.6 -419.452192 
L 1071.36 -414.32142 
L 1113.12 -416.945554 
L 1113.12 -612.536576 
L 1113.12 -612.536576 
L 1071.36 -602.689066 
L 1029.6 -609.974326 
L 987.84 -606.217632 
L 946.08 -614.646786 
L 904.32 -581.983171 
L 862.56 -550.680741 
L 820.8 -501.317483 
L 779.04 -485.111368 
L 737.28 -471.024795 
L 695.52 -474.480595 
L 653.76 -562.414151 
L 612 -573.121304 
L 570.24 -558.3311 
L 528.48 -521.230499 
L 486.72 -478.35371 
L 444.96 -469.869385 
L 403.2 -491.974483 
L 361.44 -531.292188 
L 319.68 -543.681543 
L 277.92 -513.056725 
L 236.16 -502.425745 
L 194.4 -476.176759 
L 152.64 -451.435867 
L 110.88 -434.865848 
z
" id="m0ef41957de" style="stroke:#e5ae38;stroke-width:0.5;"/>
    </defs>
    <g clip-path="url(#p0d8ce6b7ae)">
     <use style="fill:#e5ae38;stroke:#e5ae38;stroke-width:0.5;" x="0" xlink:href="#m0ef41957de" y="772.895625"/>
    </g>
   </g>
   <g id="PolyCollection_4">
    <defs>
     <path d="M 110.88 -450.004096 
L 110.88 -434.865848 
L 152.64 -451.435867 
L 194.4 -476.176759 
L 236.16 -502.425745 
L 277.92 -513.056725 
L 319.68 -543.681543 
L 361.44 -531.292188 
L 403.2 -491.974483 
L 444.96 -469.869385 
L 486.72 -478.35371 
L 528.48 -521.230499 
L 570.24 -558.3311 
L 612 -573.121304 
L 653.76 -562.414151 
L 695.52 -474.480595 
L 737.28 -471.024795 
L 779.04 -485.111368 
L 820.8 -501.317483 
L 862.56 -550.680741 
L 904.32 -581.983171 
L 946.08 -614.646786 
L 987.84 -606.217632 
L 1029.6 -609.974326 
L 1071.36 -602.689066 
L 1113.12 -612.536576 
L 1113.12 -628.181064 
L 1113.12 -628.181064 
L 1071.36 -617.972464 
L 1029.6 -623.719208 
L 987.84 -622.128162 
L 946.08 -631.443359 
L 904.32 -598.056831 
L 862.56 -565.252274 
L 820.8 -515.237044 
L 779.04 -498.076708 
L 737.28 -483.365007 
L 695.52 -486.176872 
L 653.76 -575.3615 
L 612 -585.646713 
L 570.24 -573.146679 
L 528.48 -536.244412 
L 486.72 -493.19241 
L 444.96 -484.679895 
L 403.2 -506.943819 
L 361.44 -546.444132 
L 319.68 -559.68031 
L 277.92 -529.969646 
L 236.16 -516.650068 
L 194.4 -490.442817 
L 152.64 -465.202904 
L 110.88 -450.004096 
z
" id="m0c2c26dd4c" style="stroke:#6d904f;stroke-width:0.5;"/>
    </defs>
    <g clip-path="url(#p0d8ce6b7ae)">
     <use style="fill:#6d904f;stroke:#6d904f;stroke-width:0.5;" x="0" xlink:href="#m0c2c26dd4c" y="772.895625"/>
    </g>
   </g>
   <g id="PolyCollection_5">
    <defs>
     <path d="M 110.88 -466.485677 
L 110.88 -450.004096 
L 152.64 -465.202904 
L 194.4 -490.442817 
L 236.16 -516.650068 
L 277.92 -529.969646 
L 319.68 -559.68031 
L 361.44 -546.444132 
L 403.2 -506.943819 
L 444.96 -484.679895 
L 486.72 -493.19241 
L 528.48 -536.244412 
L 570.24 -573.146679 
L 612 -585.646713 
L 653.76 -575.3615 
L 695.52 -486.176872 
L 737.28 -483.365007 
L 779.04 -498.076708 
L 820.8 -515.237044 
L 862.56 -565.252274 
L 904.32 -598.056831 
L 946.08 -631.443359 
L 987.84 -622.128162 
L 1029.6 -623.719208 
L 1071.36 -617.972464 
L 1113.12 -628.181064 
L 1113.12 -655.432129 
L 1113.12 -655.432129 
L 1071.36 -646.282936 
L 1029.6 -654.266778 
L 987.84 -657.661554 
L 946.08 -665.924196 
L 904.32 -630.656227 
L 862.56 -591.85438 
L 820.8 -541.843035 
L 779.04 -523.106918 
L 737.28 -509.372793 
L 695.52 -504.531358 
L 653.76 -595.822404 
L 612 -604.817986 
L 570.24 -592.630223 
L 528.48 -552.859255 
L 486.72 -509.872167 
L 444.96 -501.422983 
L 403.2 -524.596682 
L 361.44 -565.996939 
L 319.68 -580.989463 
L 277.92 -549.436055 
L 236.16 -535.138259 
L 194.4 -506.276227 
L 152.64 -480.8484 
L 110.88 -466.485677 
z
" id="m54215c3479" style="stroke:#8b8b8b;stroke-width:0.5;"/>
    </defs>
    <g clip-path="url(#p0d8ce6b7ae)">
     <use style="fill:#8b8b8b;stroke:#8b8b8b;stroke-width:0.5;" x="0" xlink:href="#m54215c3479" y="772.895625"/>
    </g>
   </g>
   <g id="line2d_49">
    <path clip-path="url(#p0d8ce6b7ae)" d="M 110.88 506.960921 
L 152.64 495.093056 
L 194.4 477.579317 
L 236.16 458.039647 
L 277.92 451.155421 
L 319.68 429.042661 
L 361.44 434.924325 
L 403.2 470.594557 
L 444.96 488.312464 
L 486.72 490.559756 
L 528.48 471.943464 
L 570.24 453.288426 
L 612 438.438323 
L 653.76 442.089507 
L 695.52 491.062259 
L 737.28 496.678123 
L 779.04 466.888503 
L 820.8 463.062646 
L 862.56 434.061422 
L 904.32 422.319758 
L 946.08 399.066089 
L 987.84 403.535355 
L 1029.6 402.151898 
L 1071.36 391.516069 
L 1113.12 392.169203 
" style="fill:none;stroke:#008fd5;stroke-width:4;"/>
   </g>
   <g id="line2d_50">
    <path clip-path="url(#p0d8ce6b7ae)" d="M 110.88 465.614364 
L 152.64 451.298717 
L 194.4 431.893798 
L 236.16 411.50483 
L 277.92 406.796653 
L 319.68 380.885131 
L 361.44 400.362785 
L 403.2 437.512702 
L 444.96 459.408676 
L 486.72 450.333294 
L 528.48 414.7828 
L 570.24 382.393556 
L 612 367.168673 
L 653.76 383.568195 
L 695.52 465.186986 
L 737.28 461.370868 
L 779.04 434.451421 
L 820.8 420.404995 
L 862.56 386.620117 
L 904.32 367.104683 
L 946.08 340.308761 
L 987.84 353.377154 
L 1029.6 353.443433 
L 1071.36 358.574205 
L 1113.12 355.950071 
" style="fill:none;stroke:#fc4f30;stroke-width:4;"/>
   </g>
   <g id="line2d_51">
    <path clip-path="url(#p0d8ce6b7ae)" d="M 110.88 338.029777 
L 152.64 321.459758 
L 194.4 296.718866 
L 236.16 270.46988 
L 277.92 259.8389 
L 319.68 229.214082 
L 361.44 241.603437 
L 403.2 280.921142 
L 444.96 303.02624 
L 486.72 294.541915 
L 528.48 251.665126 
L 570.24 214.564525 
L 612 199.774321 
L 653.76 210.481474 
L 695.52 298.41503 
L 737.28 301.87083 
L 779.04 287.784257 
L 820.8 271.578142 
L 862.56 222.214884 
L 904.32 190.912454 
L 946.08 158.248839 
L 987.84 166.677993 
L 1029.6 162.921299 
L 1071.36 170.206559 
L 1113.12 160.359049 
" style="fill:none;stroke:#e5ae38;stroke-width:4;"/>
   </g>
   <g id="line2d_52">
    <path clip-path="url(#p0d8ce6b7ae)" d="M 110.88 322.891529 
L 152.64 307.692721 
L 194.4 282.452808 
L 236.16 256.245557 
L 277.92 242.925979 
L 319.68 213.215315 
L 361.44 226.451493 
L 403.2 265.951806 
L 444.96 288.21573 
L 486.72 279.703215 
L 528.48 236.651213 
L 570.24 199.748946 
L 612 187.248912 
L 653.76 197.534125 
L 695.52 286.718753 
L 737.28 289.530618 
L 779.04 274.818917 
L 820.8 257.658581 
L 862.56 207.643351 
L 904.32 174.838794 
L 946.08 141.452266 
L 987.84 150.767463 
L 1029.6 149.176417 
L 1071.36 154.923161 
L 1113.12 144.714561 
" style="fill:none;stroke:#6d904f;stroke-width:4;"/>
   </g>
   <g id="line2d_53">
    <path clip-path="url(#p0d8ce6b7ae)" d="M 110.88 306.409948 
L 152.64 292.047225 
L 194.4 266.619398 
L 236.16 237.757366 
L 277.92 223.45957 
L 319.68 191.906162 
L 361.44 206.898686 
L 403.2 248.298943 
L 444.96 271.472642 
L 486.72 263.023458 
L 528.48 220.03637 
L 570.24 180.265402 
L 612 168.077639 
L 653.76 177.073221 
L 695.52 268.364267 
L 737.28 263.522832 
L 779.04 249.788707 
L 820.8 231.05259 
L 862.56 181.041245 
L 904.32 142.239398 
L 946.08 106.971429 
L 987.84 115.234071 
L 1029.6 118.628847 
L 1071.36 126.612689 
L 1113.12 117.463496 
" style="fill:none;stroke:#8b8b8b;stroke-width:4;"/>
   </g>
   <g id="patch_3">
    <path d="M 110.88 662.4 
L 110.88 79.2 
" style="fill:none;stroke:#f0f0f0;stroke-linecap:square;stroke-linejoin:miter;stroke-width:3;"/>
   </g>
   <g id="patch_4">
    <path d="M 1113.12 662.4 
L 1113.12 79.2 
" style="fill:none;stroke:#f0f0f0;stroke-linecap:square;stroke-linejoin:miter;stroke-width:3;"/>
   </g>
   <g id="patch_5">
    <path d="M 110.88 662.4 
L 1113.12 662.4 
" style="fill:none;stroke:#f0f0f0;stroke-linecap:square;stroke-linejoin:miter;stroke-width:3;"/>
   </g>
   <g id="patch_6">
    <path d="M 110.88 79.2 
L 1113.12 79.2 
" style="fill:none;stroke:#f0f0f0;stroke-linecap:square;stroke-linejoin:miter;stroke-width:3;"/>
   </g>
   <g id="legend_1">
    <g id="patch_7">
     <path d="M 118.58 168.729687 
L 372.056094 168.729687 
Q 374.256094 168.729687 374.256094 166.529687 
L 374.256094 86.9 
Q 374.256094 84.7 372.056094 84.7 
L 118.58 84.7 
Q 116.38 84.7 116.38 86.9 
L 116.38 166.529687 
Q 116.38 168.729687 118.58 168.729687 
z
" style="fill:#f0f0f0;opacity:0.8;stroke:#cccccc;stroke-linejoin:miter;stroke-width:0.5;"/>
    </g>
    <g id="patch_8">
     <path d="M 120.78 97.458281 
L 142.78 97.458281 
L 142.78 89.758281 
L 120.78 89.758281 
z
" style="fill:#008fd5;stroke:#008fd5;stroke-linejoin:miter;stroke-width:0.5;"/>
    </g>
    <g id="text_17">
     <!-- Ind Income Tax -->
     <defs>
      <path d="M 9.8125 72.90625 
L 19.671875 72.90625 
L 19.671875 0 
L 9.8125 0 
z
" id="DejaVuSans-73"/>
      <path d="M 45.40625 46.390625 
L 45.40625 75.984375 
L 54.390625 75.984375 
L 54.390625 0 
L 45.40625 0 
L 45.40625 8.203125 
Q 42.578125 3.328125 38.25 0.953125 
Q 33.9375 -1.421875 27.875 -1.421875 
Q 17.96875 -1.421875 11.734375 6.484375 
Q 5.515625 14.40625 5.515625 27.296875 
Q 5.515625 40.1875 11.734375 48.09375 
Q 17.96875 56 27.875 56 
Q 33.9375 56 38.25 53.625 
Q 42.578125 51.265625 45.40625 46.390625 
z
M 14.796875 27.296875 
Q 14.796875 17.390625 18.875 11.75 
Q 22.953125 6.109375 30.078125 6.109375 
Q 37.203125 6.109375 41.296875 11.75 
Q 45.40625 17.390625 45.40625 27.296875 
Q 45.40625 37.203125 41.296875 42.84375 
Q 37.203125 48.484375 30.078125 48.484375 
Q 22.953125 48.484375 18.875 42.84375 
Q 14.796875 37.203125 14.796875 27.296875 
z
" id="DejaVuSans-100"/>
      <path d="M 52 44.1875 
Q 55.375 50.25 60.0625 53.125 
Q 64.75 56 71.09375 56 
Q 79.640625 56 84.28125 50.015625 
Q 88.921875 44.046875 88.921875 33.015625 
L 88.921875 0 
L 79.890625 0 
L 79.890625 32.71875 
Q 79.890625 40.578125 77.09375 44.375 
Q 74.3125 48.1875 68.609375 48.1875 
Q 61.625 48.1875 57.5625 43.546875 
Q 53.515625 38.921875 53.515625 30.90625 
L 53.515625 0 
L 44.484375 0 
L 44.484375 32.71875 
Q 44.484375 40.625 41.703125 44.40625 
Q 38.921875 48.1875 33.109375 48.1875 
Q 26.21875 48.1875 22.15625 43.53125 
Q 18.109375 38.875 18.109375 30.90625 
L 18.109375 0 
L 9.078125 0 
L 9.078125 54.6875 
L 18.109375 54.6875 
L 18.109375 46.1875 
Q 21.1875 51.21875 25.484375 53.609375 
Q 29.78125 56 35.6875 56 
Q 41.65625 56 45.828125 52.96875 
Q 50 49.953125 52 44.1875 
z
" id="DejaVuSans-109"/>
      <path d="M -0.296875 72.90625 
L 61.375 72.90625 
L 61.375 64.59375 
L 35.5 64.59375 
L 35.5 0 
L 25.59375 0 
L 25.59375 64.59375 
L -0.296875 64.59375 
z
" id="DejaVuSans-84"/>
      <path d="M 54.890625 54.6875 
L 35.109375 28.078125 
L 55.90625 0 
L 45.3125 0 
L 29.390625 21.484375 
L 13.484375 0 
L 2.875 0 
L 24.125 28.609375 
L 4.6875 54.6875 
L 15.28125 54.6875 
L 29.78125 35.203125 
L 44.28125 54.6875 
z
" id="DejaVuSans-120"/>
     </defs>
     <g transform="translate(151.58 97.458281)scale(0.11 -0.11)">
      <use xlink:href="#DejaVuSans-73"/>
      <use x="29.492188" xlink:href="#DejaVuSans-110"/>
      <use x="92.871094" xlink:href="#DejaVuSans-100"/>
      <use x="156.347656" xlink:href="#DejaVuSans-32"/>
      <use x="188.134766" xlink:href="#DejaVuSans-73"/>
      <use x="217.626953" xlink:href="#DejaVuSans-110"/>
      <use x="281.005859" xlink:href="#DejaVuSans-99"/>
      <use x="335.986328" xlink:href="#DejaVuSans-111"/>
      <use x="397.167969" xlink:href="#DejaVuSans-109"/>
      <use x="494.580078" xlink:href="#DejaVuSans-101"/>
      <use x="556.103516" xlink:href="#DejaVuSans-32"/>
      <use x="587.890625" xlink:href="#DejaVuSans-84"/>
      <use x="648.724609" xlink:href="#DejaVuSans-97"/>
      <use x="710.003906" xlink:href="#DejaVuSans-120"/>
     </g>
    </g>
    <g id="patch_9">
     <path d="M 120.78 113.604219 
L 142.78 113.604219 
L 142.78 105.904219 
L 120.78 105.904219 
z
" style="fill:#fc4f30;stroke:#fc4f30;stroke-linejoin:miter;stroke-width:0.5;"/>
    </g>
    <g id="text_18">
     <!-- Corp Income Tax -->
     <defs>
      <path d="M 64.40625 67.28125 
L 64.40625 56.890625 
Q 59.421875 61.53125 53.78125 63.8125 
Q 48.140625 66.109375 41.796875 66.109375 
Q 29.296875 66.109375 22.65625 58.46875 
Q 16.015625 50.828125 16.015625 36.375 
Q 16.015625 21.96875 22.65625 14.328125 
Q 29.296875 6.6875 41.796875 6.6875 
Q 48.140625 6.6875 53.78125 8.984375 
Q 59.421875 11.28125 64.40625 15.921875 
L 64.40625 5.609375 
Q 59.234375 2.09375 53.4375 0.328125 
Q 47.65625 -1.421875 41.21875 -1.421875 
Q 24.65625 -1.421875 15.125 8.703125 
Q 5.609375 18.84375 5.609375 36.375 
Q 5.609375 53.953125 15.125 64.078125 
Q 24.65625 74.21875 41.21875 74.21875 
Q 47.75 74.21875 53.53125 72.484375 
Q 59.328125 70.75 64.40625 67.28125 
z
" id="DejaVuSans-67"/>
      <path d="M 18.109375 8.203125 
L 18.109375 -20.796875 
L 9.078125 -20.796875 
L 9.078125 54.6875 
L 18.109375 54.6875 
L 18.109375 46.390625 
Q 20.953125 51.265625 25.265625 53.625 
Q 29.59375 56 35.59375 56 
Q 45.5625 56 51.78125 48.09375 
Q 58.015625 40.1875 58.015625 27.296875 
Q 58.015625 14.40625 51.78125 6.484375 
Q 45.5625 -1.421875 35.59375 -1.421875 
Q 29.59375 -1.421875 25.265625 0.953125 
Q 20.953125 3.328125 18.109375 8.203125 
z
M 48.6875 27.296875 
Q 48.6875 37.203125 44.609375 42.84375 
Q 40.53125 48.484375 33.40625 48.484375 
Q 26.265625 48.484375 22.1875 42.84375 
Q 18.109375 37.203125 18.109375 27.296875 
Q 18.109375 17.390625 22.1875 11.75 
Q 26.265625 6.109375 33.40625 6.109375 
Q 40.53125 6.109375 44.609375 11.75 
Q 48.6875 17.390625 48.6875 27.296875 
z
" id="DejaVuSans-112"/>
     </defs>
     <g transform="translate(151.58 113.604219)scale(0.11 -0.11)">
      <use xlink:href="#DejaVuSans-67"/>
      <use x="69.824219" xlink:href="#DejaVuSans-111"/>
      <use x="131.005859" xlink:href="#DejaVuSans-114"/>
      <use x="172.119141" xlink:href="#DejaVuSans-112"/>
      <use x="235.595703" xlink:href="#DejaVuSans-32"/>
      <use x="267.382812" xlink:href="#DejaVuSans-73"/>
      <use x="296.875" xlink:href="#DejaVuSans-110"/>
      <use x="360.253906" xlink:href="#DejaVuSans-99"/>
      <use x="415.234375" xlink:href="#DejaVuSans-111"/>
      <use x="476.416016" xlink:href="#DejaVuSans-109"/>
      <use x="573.828125" xlink:href="#DejaVuSans-101"/>
      <use x="635.351562" xlink:href="#DejaVuSans-32"/>
      <use x="667.138672" xlink:href="#DejaVuSans-84"/>
      <use x="727.972656" xlink:href="#DejaVuSans-97"/>
      <use x="789.251953" xlink:href="#DejaVuSans-120"/>
     </g>
    </g>
    <g id="patch_10">
     <path d="M 120.78 129.750156 
L 142.78 129.750156 
L 142.78 122.050156 
L 120.78 122.050156 
z
" style="fill:#e5ae38;stroke:#e5ae38;stroke-linejoin:miter;stroke-width:0.5;"/>
    </g>
    <g id="text_19">
     <!-- Social Insurance &amp; Retirement Receipts -->
     <defs>
      <path d="M 53.515625 70.515625 
L 53.515625 60.890625 
Q 47.90625 63.578125 42.921875 64.890625 
Q 37.9375 66.21875 33.296875 66.21875 
Q 25.25 66.21875 20.875 63.09375 
Q 16.5 59.96875 16.5 54.203125 
Q 16.5 49.359375 19.40625 46.890625 
Q 22.3125 44.4375 30.421875 42.921875 
L 36.375 41.703125 
Q 47.40625 39.59375 52.65625 34.296875 
Q 57.90625 29 57.90625 20.125 
Q 57.90625 9.515625 50.796875 4.046875 
Q 43.703125 -1.421875 29.984375 -1.421875 
Q 24.8125 -1.421875 18.96875 -0.25 
Q 13.140625 0.921875 6.890625 3.21875 
L 6.890625 13.375 
Q 12.890625 10.015625 18.65625 8.296875 
Q 24.421875 6.59375 29.984375 6.59375 
Q 38.421875 6.59375 43.015625 9.90625 
Q 47.609375 13.234375 47.609375 19.390625 
Q 47.609375 24.75 44.3125 27.78125 
Q 41.015625 30.8125 33.5 32.328125 
L 27.484375 33.5 
Q 16.453125 35.6875 11.515625 40.375 
Q 6.59375 45.0625 6.59375 53.421875 
Q 6.59375 63.09375 13.40625 68.65625 
Q 20.21875 74.21875 32.171875 74.21875 
Q 37.3125 74.21875 42.625 73.28125 
Q 47.953125 72.359375 53.515625 70.515625 
z
" id="DejaVuSans-83"/>
      <path d="M 8.5 21.578125 
L 8.5 54.6875 
L 17.484375 54.6875 
L 17.484375 21.921875 
Q 17.484375 14.15625 20.5 10.265625 
Q 23.53125 6.390625 29.59375 6.390625 
Q 36.859375 6.390625 41.078125 11.03125 
Q 45.3125 15.671875 45.3125 23.6875 
L 45.3125 54.6875 
L 54.296875 54.6875 
L 54.296875 0 
L 45.3125 0 
L 45.3125 8.40625 
Q 42.046875 3.421875 37.71875 1 
Q 33.40625 -1.421875 27.6875 -1.421875 
Q 18.265625 -1.421875 13.375 4.4375 
Q 8.5 10.296875 8.5 21.578125 
z
M 31.109375 56 
z
" id="DejaVuSans-117"/>
      <path d="M 24.3125 39.203125 
Q 19.875 35.25 17.796875 31.3125 
Q 15.71875 27.390625 15.71875 23.09375 
Q 15.71875 15.96875 20.890625 11.234375 
Q 26.078125 6.5 33.890625 6.5 
Q 38.53125 6.5 42.578125 8.03125 
Q 46.625 9.578125 50.203125 12.703125 
z
M 31.203125 44.671875 
L 56 19.28125 
Q 58.890625 23.640625 60.5 28.59375 
Q 62.109375 33.546875 62.40625 39.109375 
L 71.484375 39.109375 
Q 70.90625 32.671875 68.359375 26.359375 
Q 65.828125 20.0625 61.28125 13.921875 
L 74.90625 0 
L 62.59375 0 
L 55.609375 7.171875 
Q 50.53125 2.828125 44.96875 0.703125 
Q 39.40625 -1.421875 33.015625 -1.421875 
Q 21.234375 -1.421875 13.765625 5.296875 
Q 6.296875 12.015625 6.296875 22.515625 
Q 6.296875 28.765625 9.5625 34.25 
Q 12.84375 39.75 19.390625 44.578125 
Q 17.046875 47.65625 15.8125 50.703125 
Q 14.59375 53.765625 14.59375 56.6875 
Q 14.59375 64.59375 20.015625 69.40625 
Q 25.4375 74.21875 34.421875 74.21875 
Q 38.484375 74.21875 42.5 73.34375 
Q 46.53125 72.46875 50.6875 70.703125 
L 50.6875 61.8125 
Q 46.4375 64.109375 42.578125 65.296875 
Q 38.71875 66.5 35.40625 66.5 
Q 30.28125 66.5 27.078125 63.78125 
Q 23.875 61.078125 23.875 56.78125 
Q 23.875 54.296875 25.3125 51.78125 
Q 26.765625 49.265625 31.203125 44.671875 
z
" id="DejaVuSans-38"/>
      <path d="M 44.390625 34.1875 
Q 47.5625 33.109375 50.5625 29.59375 
Q 53.5625 26.078125 56.59375 19.921875 
L 66.609375 0 
L 56 0 
L 46.6875 18.703125 
Q 43.0625 26.03125 39.671875 28.421875 
Q 36.28125 30.8125 30.421875 30.8125 
L 19.671875 30.8125 
L 19.671875 0 
L 9.8125 0 
L 9.8125 72.90625 
L 32.078125 72.90625 
Q 44.578125 72.90625 50.734375 67.671875 
Q 56.890625 62.453125 56.890625 51.90625 
Q 56.890625 45.015625 53.6875 40.46875 
Q 50.484375 35.9375 44.390625 34.1875 
z
M 19.671875 64.796875 
L 19.671875 38.921875 
L 32.078125 38.921875 
Q 39.203125 38.921875 42.84375 42.21875 
Q 46.484375 45.515625 46.484375 51.90625 
Q 46.484375 58.296875 42.84375 61.546875 
Q 39.203125 64.796875 32.078125 64.796875 
z
" id="DejaVuSans-82"/>
      <path d="M 18.3125 70.21875 
L 18.3125 54.6875 
L 36.8125 54.6875 
L 36.8125 47.703125 
L 18.3125 47.703125 
L 18.3125 18.015625 
Q 18.3125 11.328125 20.140625 9.421875 
Q 21.96875 7.515625 27.59375 7.515625 
L 36.8125 7.515625 
L 36.8125 0 
L 27.59375 0 
Q 17.1875 0 13.234375 3.875 
Q 9.28125 7.765625 9.28125 18.015625 
L 9.28125 47.703125 
L 2.6875 47.703125 
L 2.6875 54.6875 
L 9.28125 54.6875 
L 9.28125 70.21875 
z
" id="DejaVuSans-116"/>
     </defs>
     <g transform="translate(151.58 129.750156)scale(0.11 -0.11)">
      <use xlink:href="#DejaVuSans-83"/>
      <use x="63.476562" xlink:href="#DejaVuSans-111"/>
      <use x="124.658203" xlink:href="#DejaVuSans-99"/>
      <use x="179.638672" xlink:href="#DejaVuSans-105"/>
      <use x="207.421875" xlink:href="#DejaVuSans-97"/>
      <use x="268.701172" xlink:href="#DejaVuSans-108"/>
      <use x="296.484375" xlink:href="#DejaVuSans-32"/>
      <use x="328.271484" xlink:href="#DejaVuSans-73"/>
      <use x="357.763672" xlink:href="#DejaVuSans-110"/>
      <use x="421.142578" xlink:href="#DejaVuSans-115"/>
      <use x="473.242188" xlink:href="#DejaVuSans-117"/>
      <use x="536.621094" xlink:href="#DejaVuSans-114"/>
      <use x="577.734375" xlink:href="#DejaVuSans-97"/>
      <use x="639.013672" xlink:href="#DejaVuSans-110"/>
      <use x="702.392578" xlink:href="#DejaVuSans-99"/>
      <use x="757.373047" xlink:href="#DejaVuSans-101"/>
      <use x="818.896484" xlink:href="#DejaVuSans-32"/>
      <use x="850.683594" xlink:href="#DejaVuSans-38"/>
      <use x="928.662109" xlink:href="#DejaVuSans-32"/>
      <use x="960.449219" xlink:href="#DejaVuSans-82"/>
      <use x="1029.869141" xlink:href="#DejaVuSans-101"/>
      <use x="1091.392578" xlink:href="#DejaVuSans-116"/>
      <use x="1130.601562" xlink:href="#DejaVuSans-105"/>
      <use x="1158.384766" xlink:href="#DejaVuSans-114"/>
      <use x="1199.466797" xlink:href="#DejaVuSans-101"/>
      <use x="1260.990234" xlink:href="#DejaVuSans-109"/>
      <use x="1358.402344" xlink:href="#DejaVuSans-101"/>
      <use x="1419.925781" xlink:href="#DejaVuSans-110"/>
      <use x="1483.304688" xlink:href="#DejaVuSans-116"/>
      <use x="1522.513672" xlink:href="#DejaVuSans-32"/>
      <use x="1554.300781" xlink:href="#DejaVuSans-82"/>
      <use x="1623.720703" xlink:href="#DejaVuSans-101"/>
      <use x="1685.244141" xlink:href="#DejaVuSans-99"/>
      <use x="1740.224609" xlink:href="#DejaVuSans-101"/>
      <use x="1801.748047" xlink:href="#DejaVuSans-105"/>
      <use x="1829.53125" xlink:href="#DejaVuSans-112"/>
      <use x="1893.007812" xlink:href="#DejaVuSans-116"/>
      <use x="1932.216797" xlink:href="#DejaVuSans-115"/>
     </g>
    </g>
    <g id="patch_11">
     <path d="M 120.78 145.896094 
L 142.78 145.896094 
L 142.78 138.196094 
L 120.78 138.196094 
z
" style="fill:#6d904f;stroke:#6d904f;stroke-linejoin:miter;stroke-width:0.5;"/>
    </g>
    <g id="text_20">
     <!-- Excise Taxes -->
     <defs>
      <path d="M 9.8125 72.90625 
L 55.90625 72.90625 
L 55.90625 64.59375 
L 19.671875 64.59375 
L 19.671875 43.015625 
L 54.390625 43.015625 
L 54.390625 34.71875 
L 19.671875 34.71875 
L 19.671875 8.296875 
L 56.78125 8.296875 
L 56.78125 0 
L 9.8125 0 
z
" id="DejaVuSans-69"/>
     </defs>
     <g transform="translate(151.58 145.896094)scale(0.11 -0.11)">
      <use xlink:href="#DejaVuSans-69"/>
      <use x="63.183594" xlink:href="#DejaVuSans-120"/>
      <use x="122.347656" xlink:href="#DejaVuSans-99"/>
      <use x="177.328125" xlink:href="#DejaVuSans-105"/>
      <use x="205.111328" xlink:href="#DejaVuSans-115"/>
      <use x="257.210938" xlink:href="#DejaVuSans-101"/>
      <use x="318.734375" xlink:href="#DejaVuSans-32"/>
      <use x="350.521484" xlink:href="#DejaVuSans-84"/>
      <use x="411.355469" xlink:href="#DejaVuSans-97"/>
      <use x="472.634766" xlink:href="#DejaVuSans-120"/>
      <use x="531.767578" xlink:href="#DejaVuSans-101"/>
      <use x="593.291016" xlink:href="#DejaVuSans-115"/>
     </g>
    </g>
    <g id="patch_12">
     <path d="M 120.78 162.042031 
L 142.78 162.042031 
L 142.78 154.342031 
L 120.78 154.342031 
z
" style="fill:#8b8b8b;stroke:#8b8b8b;stroke-linejoin:miter;stroke-width:0.5;"/>
    </g>
    <g id="text_21">
     <!-- Other -->
     <defs>
      <path d="M 39.40625 66.21875 
Q 28.65625 66.21875 22.328125 58.203125 
Q 16.015625 50.203125 16.015625 36.375 
Q 16.015625 22.609375 22.328125 14.59375 
Q 28.65625 6.59375 39.40625 6.59375 
Q 50.140625 6.59375 56.421875 14.59375 
Q 62.703125 22.609375 62.703125 36.375 
Q 62.703125 50.203125 56.421875 58.203125 
Q 50.140625 66.21875 39.40625 66.21875 
z
M 39.40625 74.21875 
Q 54.734375 74.21875 63.90625 63.9375 
Q 73.09375 53.65625 73.09375 36.375 
Q 73.09375 19.140625 63.90625 8.859375 
Q 54.734375 -1.421875 39.40625 -1.421875 
Q 24.03125 -1.421875 14.8125 8.828125 
Q 5.609375 19.09375 5.609375 36.375 
Q 5.609375 53.65625 14.8125 63.9375 
Q 24.03125 74.21875 39.40625 74.21875 
z
" id="DejaVuSans-79"/>
      <path d="M 54.890625 33.015625 
L 54.890625 0 
L 45.90625 0 
L 45.90625 32.71875 
Q 45.90625 40.484375 42.875 44.328125 
Q 39.84375 48.1875 33.796875 48.1875 
Q 26.515625 48.1875 22.3125 43.546875 
Q 18.109375 38.921875 18.109375 30.90625 
L 18.109375 0 
L 9.078125 0 
L 9.078125 75.984375 
L 18.109375 75.984375 
L 18.109375 46.1875 
Q 21.34375 51.125 25.703125 53.5625 
Q 30.078125 56 35.796875 56 
Q 45.21875 56 50.046875 50.171875 
Q 54.890625 44.34375 54.890625 33.015625 
z
" id="DejaVuSans-104"/>
     </defs>
     <g transform="translate(151.58 162.042031)scale(0.11 -0.11)">
      <use xlink:href="#DejaVuSans-79"/>
      <use x="78.710938" xlink:href="#DejaVuSans-116"/>
      <use x="117.919922" xlink:href="#DejaVuSans-104"/>
      <use x="181.298828" xlink:href="#DejaVuSans-101"/>
      <use x="242.822266" xlink:href="#DejaVuSans-114"/>
     </g>
    </g>
   </g>
  </g>
  <g id="text_22">
   <!-- Federal Receipts by Category, 1995-2019 -->
   <defs>
    <path d="M 9.1875 72.90625 
L 59.90625 72.90625 
L 59.90625 58.6875 
L 27.984375 58.6875 
L 27.984375 45.125 
L 58.015625 45.125 
L 58.015625 30.90625 
L 27.984375 30.90625 
L 27.984375 0 
L 9.1875 0 
z
" id="DejaVuSans-Bold-70"/>
    <path d="M 62.984375 27.484375 
L 62.984375 22.515625 
L 22.125 22.515625 
Q 22.75 16.359375 26.5625 13.28125 
Q 30.375 10.203125 37.203125 10.203125 
Q 42.71875 10.203125 48.5 11.84375 
Q 54.296875 13.484375 60.40625 16.796875 
L 60.40625 3.328125 
Q 54.203125 0.984375 48 -0.21875 
Q 41.796875 -1.421875 35.59375 -1.421875 
Q 20.75 -1.421875 12.515625 6.125 
Q 4.296875 13.671875 4.296875 27.296875 
Q 4.296875 40.671875 12.375 48.328125 
Q 20.453125 56 34.625 56 
Q 47.515625 56 55.25 48.234375 
Q 62.984375 40.484375 62.984375 27.484375 
z
M 45.015625 33.296875 
Q 45.015625 38.28125 42.109375 41.328125 
Q 39.203125 44.390625 34.515625 44.390625 
Q 29.4375 44.390625 26.265625 41.53125 
Q 23.09375 38.671875 22.3125 33.296875 
z
" id="DejaVuSans-Bold-101"/>
    <path d="M 45.609375 46.6875 
L 45.609375 75.984375 
L 63.1875 75.984375 
L 63.1875 0 
L 45.609375 0 
L 45.609375 7.90625 
Q 42 3.078125 37.640625 0.828125 
Q 33.296875 -1.421875 27.59375 -1.421875 
Q 17.484375 -1.421875 10.984375 6.609375 
Q 4.5 14.65625 4.5 27.296875 
Q 4.5 39.9375 10.984375 47.96875 
Q 17.484375 56 27.59375 56 
Q 33.25 56 37.625 53.734375 
Q 42 51.46875 45.609375 46.6875 
z
M 34.078125 11.28125 
Q 39.703125 11.28125 42.65625 15.375 
Q 45.609375 19.484375 45.609375 27.296875 
Q 45.609375 35.109375 42.65625 39.203125 
Q 39.703125 43.3125 34.078125 43.3125 
Q 28.515625 43.3125 25.5625 39.203125 
Q 22.609375 35.109375 22.609375 27.296875 
Q 22.609375 19.484375 25.5625 15.375 
Q 28.515625 11.28125 34.078125 11.28125 
z
" id="DejaVuSans-Bold-100"/>
    <path d="M 49.03125 39.796875 
Q 46.734375 40.875 44.453125 41.375 
Q 42.1875 41.890625 39.890625 41.890625 
Q 33.15625 41.890625 29.515625 37.5625 
Q 25.875 33.25 25.875 25.203125 
L 25.875 0 
L 8.40625 0 
L 8.40625 54.6875 
L 25.875 54.6875 
L 25.875 45.703125 
Q 29.25 51.078125 33.609375 53.53125 
Q 37.984375 56 44.09375 56 
Q 44.96875 56 45.984375 55.921875 
Q 47.015625 55.859375 48.96875 55.609375 
z
" id="DejaVuSans-Bold-114"/>
    <path d="M 32.90625 24.609375 
Q 27.4375 24.609375 24.671875 22.75 
Q 21.921875 20.90625 21.921875 17.28125 
Q 21.921875 13.96875 24.140625 12.078125 
Q 26.375 10.203125 30.328125 10.203125 
Q 35.25 10.203125 38.625 13.734375 
Q 42 17.28125 42 22.609375 
L 42 24.609375 
z
M 59.625 31.203125 
L 59.625 0 
L 42 0 
L 42 8.109375 
Q 38.484375 3.125 34.078125 0.84375 
Q 29.6875 -1.421875 23.390625 -1.421875 
Q 14.890625 -1.421875 9.59375 3.53125 
Q 4.296875 8.5 4.296875 16.40625 
Q 4.296875 26.03125 10.90625 30.515625 
Q 17.53125 35.015625 31.6875 35.015625 
L 42 35.015625 
L 42 36.375 
Q 42 40.53125 38.71875 42.453125 
Q 35.453125 44.390625 28.515625 44.390625 
Q 22.90625 44.390625 18.0625 43.265625 
Q 13.234375 42.140625 9.078125 39.890625 
L 9.078125 53.21875 
Q 14.703125 54.59375 20.359375 55.296875 
Q 26.03125 56 31.6875 56 
Q 46.484375 56 53.046875 50.171875 
Q 59.625 44.34375 59.625 31.203125 
z
" id="DejaVuSans-Bold-97"/>
    <path d="M 8.40625 75.984375 
L 25.875 75.984375 
L 25.875 0 
L 8.40625 0 
z
" id="DejaVuSans-Bold-108"/>
    <path id="DejaVuSans-Bold-32"/>
    <path d="M 35.890625 40.578125 
Q 41.796875 40.578125 44.359375 42.765625 
Q 46.921875 44.96875 46.921875 50 
Q 46.921875 54.984375 44.359375 57.125 
Q 41.796875 59.28125 35.890625 59.28125 
L 27.984375 59.28125 
L 27.984375 40.578125 
z
M 27.984375 27.59375 
L 27.984375 0 
L 9.1875 0 
L 9.1875 72.90625 
L 37.890625 72.90625 
Q 52.296875 72.90625 59 68.0625 
Q 65.71875 63.234375 65.71875 52.78125 
Q 65.71875 45.5625 62.21875 40.921875 
Q 58.734375 36.28125 51.703125 34.078125 
Q 55.5625 33.203125 58.609375 30.09375 
Q 61.671875 27 64.796875 20.703125 
L 75 0 
L 54.984375 0 
L 46.09375 18.109375 
Q 43.40625 23.578125 40.640625 25.578125 
Q 37.890625 27.59375 33.296875 27.59375 
z
" id="DejaVuSans-Bold-82"/>
    <path d="M 52.59375 52.984375 
L 52.59375 38.71875 
Q 49.03125 41.15625 45.4375 42.328125 
Q 41.84375 43.5 37.984375 43.5 
Q 30.671875 43.5 26.59375 39.234375 
Q 22.515625 34.96875 22.515625 27.296875 
Q 22.515625 19.625 26.59375 15.34375 
Q 30.671875 11.078125 37.984375 11.078125 
Q 42.09375 11.078125 45.78125 12.296875 
Q 49.46875 13.53125 52.59375 15.921875 
L 52.59375 1.609375 
Q 48.484375 0.09375 44.265625 -0.65625 
Q 40.046875 -1.421875 35.796875 -1.421875 
Q 21 -1.421875 12.640625 6.171875 
Q 4.296875 13.765625 4.296875 27.296875 
Q 4.296875 40.828125 12.640625 48.40625 
Q 21 56 35.796875 56 
Q 40.09375 56 44.265625 55.25 
Q 48.4375 54.5 52.59375 52.984375 
z
" id="DejaVuSans-Bold-99"/>
    <path d="M 8.40625 54.6875 
L 25.875 54.6875 
L 25.875 0 
L 8.40625 0 
z
M 8.40625 75.984375 
L 25.875 75.984375 
L 25.875 61.71875 
L 8.40625 61.71875 
z
" id="DejaVuSans-Bold-105"/>
    <path d="M 25.875 7.90625 
L 25.875 -20.796875 
L 8.40625 -20.796875 
L 8.40625 54.6875 
L 25.875 54.6875 
L 25.875 46.6875 
Q 29.5 51.46875 33.890625 53.734375 
Q 38.28125 56 44 56 
Q 54.109375 56 60.59375 47.96875 
Q 67.09375 39.9375 67.09375 27.296875 
Q 67.09375 14.65625 60.59375 6.609375 
Q 54.109375 -1.421875 44 -1.421875 
Q 38.28125 -1.421875 33.890625 0.84375 
Q 29.5 3.125 25.875 7.90625 
z
M 37.5 43.3125 
Q 31.890625 43.3125 28.875 39.1875 
Q 25.875 35.0625 25.875 27.296875 
Q 25.875 19.53125 28.875 15.40625 
Q 31.890625 11.28125 37.5 11.28125 
Q 43.109375 11.28125 46.0625 15.375 
Q 49.03125 19.484375 49.03125 27.296875 
Q 49.03125 35.109375 46.0625 39.203125 
Q 43.109375 43.3125 37.5 43.3125 
z
" id="DejaVuSans-Bold-112"/>
    <path d="M 27.484375 70.21875 
L 27.484375 54.6875 
L 45.515625 54.6875 
L 45.515625 42.1875 
L 27.484375 42.1875 
L 27.484375 19 
Q 27.484375 15.1875 29 13.84375 
Q 30.515625 12.5 35.015625 12.5 
L 44 12.5 
L 44 0 
L 29 0 
Q 18.65625 0 14.328125 4.3125 
Q 10.015625 8.640625 10.015625 19 
L 10.015625 42.1875 
L 1.3125 42.1875 
L 1.3125 54.6875 
L 10.015625 54.6875 
L 10.015625 70.21875 
z
" id="DejaVuSans-Bold-116"/>
    <path d="M 51.125 52.984375 
L 51.125 39.703125 
Q 45.515625 42.046875 40.28125 43.21875 
Q 35.0625 44.390625 30.421875 44.390625 
Q 25.4375 44.390625 23.015625 43.140625 
Q 20.609375 41.890625 20.609375 39.3125 
Q 20.609375 37.203125 22.4375 36.078125 
Q 24.265625 34.96875 29 34.421875 
L 32.078125 33.984375 
Q 45.515625 32.28125 50.140625 28.375 
Q 54.78125 24.46875 54.78125 16.109375 
Q 54.78125 7.375 48.328125 2.96875 
Q 41.890625 -1.421875 29.109375 -1.421875 
Q 23.6875 -1.421875 17.890625 -0.5625 
Q 12.109375 0.296875 6 2 
L 6 15.28125 
Q 11.234375 12.75 16.71875 11.46875 
Q 22.21875 10.203125 27.875 10.203125 
Q 33.015625 10.203125 35.59375 11.609375 
Q 38.1875 13.03125 38.1875 15.828125 
Q 38.1875 18.171875 36.40625 19.3125 
Q 34.625 20.453125 29.296875 21.09375 
L 26.21875 21.484375 
Q 14.546875 22.953125 9.859375 26.90625 
Q 5.171875 30.859375 5.171875 38.921875 
Q 5.171875 47.609375 11.125 51.796875 
Q 17.09375 56 29.390625 56 
Q 34.234375 56 39.546875 55.265625 
Q 44.875 54.546875 51.125 52.984375 
z
" id="DejaVuSans-Bold-115"/>
    <path d="M 37.5 11.28125 
Q 43.109375 11.28125 46.0625 15.375 
Q 49.03125 19.484375 49.03125 27.296875 
Q 49.03125 35.109375 46.0625 39.203125 
Q 43.109375 43.3125 37.5 43.3125 
Q 31.890625 43.3125 28.875 39.1875 
Q 25.875 35.0625 25.875 27.296875 
Q 25.875 19.53125 28.875 15.40625 
Q 31.890625 11.28125 37.5 11.28125 
z
M 25.875 46.6875 
Q 29.5 51.46875 33.890625 53.734375 
Q 38.28125 56 44 56 
Q 54.109375 56 60.59375 47.96875 
Q 67.09375 39.9375 67.09375 27.296875 
Q 67.09375 14.65625 60.59375 6.609375 
Q 54.109375 -1.421875 44 -1.421875 
Q 38.28125 -1.421875 33.890625 0.84375 
Q 29.5 3.125 25.875 7.90625 
L 25.875 0 
L 8.40625 0 
L 8.40625 75.984375 
L 25.875 75.984375 
z
" id="DejaVuSans-Bold-98"/>
    <path d="M 1.21875 54.6875 
L 18.703125 54.6875 
L 33.40625 17.578125 
L 45.90625 54.6875 
L 63.375 54.6875 
L 40.375 -5.171875 
Q 36.921875 -14.3125 32.296875 -17.9375 
Q 27.6875 -21.578125 20.125 -21.578125 
L 10.015625 -21.578125 
L 10.015625 -10.109375 
L 15.484375 -10.109375 
Q 19.921875 -10.109375 21.9375 -8.6875 
Q 23.96875 -7.28125 25.09375 -3.609375 
L 25.59375 -2.09375 
z
" id="DejaVuSans-Bold-121"/>
    <path d="M 67 4 
Q 61.8125 1.3125 56.203125 -0.046875 
Q 50.59375 -1.421875 44.484375 -1.421875 
Q 26.265625 -1.421875 15.625 8.765625 
Q 4.984375 18.953125 4.984375 36.375 
Q 4.984375 53.859375 15.625 64.03125 
Q 26.265625 74.21875 44.484375 74.21875 
Q 50.59375 74.21875 56.203125 72.84375 
Q 61.8125 71.484375 67 68.796875 
L 67 53.71875 
Q 61.765625 57.28125 56.6875 58.9375 
Q 51.609375 60.59375 46 60.59375 
Q 35.9375 60.59375 30.171875 54.140625 
Q 24.421875 47.703125 24.421875 36.375 
Q 24.421875 25.09375 30.171875 18.640625 
Q 35.9375 12.203125 46 12.203125 
Q 51.609375 12.203125 56.6875 13.859375 
Q 61.765625 15.53125 67 19.09375 
z
" id="DejaVuSans-Bold-67"/>
    <path d="M 45.609375 9.28125 
Q 42 4.5 37.640625 2.25 
Q 33.296875 0 27.59375 0 
Q 17.578125 0 11.03125 7.875 
Q 4.5 15.765625 4.5 27.984375 
Q 4.5 40.234375 11.03125 48.0625 
Q 17.578125 55.90625 27.59375 55.90625 
Q 33.296875 55.90625 37.640625 53.65625 
Q 42 51.421875 45.609375 46.578125 
L 45.609375 54.6875 
L 63.1875 54.6875 
L 63.1875 5.515625 
Q 63.1875 -7.671875 54.859375 -14.625 
Q 46.53125 -21.578125 30.71875 -21.578125 
Q 25.59375 -21.578125 20.796875 -20.796875 
Q 16.015625 -20.015625 11.1875 -18.40625 
L 11.1875 -4.78125 
Q 15.765625 -7.421875 20.15625 -8.71875 
Q 24.5625 -10.015625 29 -10.015625 
Q 37.59375 -10.015625 41.59375 -6.25 
Q 45.609375 -2.484375 45.609375 5.515625 
z
M 34.078125 43.3125 
Q 28.65625 43.3125 25.625 39.296875 
Q 22.609375 35.296875 22.609375 27.984375 
Q 22.609375 20.453125 25.53125 16.578125 
Q 28.46875 12.703125 34.078125 12.703125 
Q 39.546875 12.703125 42.578125 16.703125 
Q 45.609375 20.703125 45.609375 27.984375 
Q 45.609375 35.296875 42.578125 39.296875 
Q 39.546875 43.3125 34.078125 43.3125 
z
" id="DejaVuSans-Bold-103"/>
    <path d="M 34.421875 43.5 
Q 28.609375 43.5 25.5625 39.328125 
Q 22.515625 35.15625 22.515625 27.296875 
Q 22.515625 19.4375 25.5625 15.25 
Q 28.609375 11.078125 34.421875 11.078125 
Q 40.140625 11.078125 43.15625 15.25 
Q 46.1875 19.4375 46.1875 27.296875 
Q 46.1875 35.15625 43.15625 39.328125 
Q 40.140625 43.5 34.421875 43.5 
z
M 34.421875 56 
Q 48.53125 56 56.46875 48.375 
Q 64.40625 40.765625 64.40625 27.296875 
Q 64.40625 13.8125 56.46875 6.1875 
Q 48.53125 -1.421875 34.421875 -1.421875 
Q 20.265625 -1.421875 12.28125 6.1875 
Q 4.296875 13.8125 4.296875 27.296875 
Q 4.296875 40.765625 12.28125 48.375 
Q 20.265625 56 34.421875 56 
z
" id="DejaVuSans-Bold-111"/>
    <path d="M 10.203125 18.890625 
L 27.78125 18.890625 
L 27.78125 4 
L 15.71875 -14.203125 
L 5.328125 -14.203125 
L 10.203125 4 
z
" id="DejaVuSans-Bold-44"/>
    <path d="M 5.421875 35.890625 
L 36.078125 35.890625 
L 36.078125 21.6875 
L 5.421875 21.6875 
z
" id="DejaVuSans-Bold-45"/>
   </defs>
   <g transform="translate(384.572813 20.877187)scale(0.18 -0.18)">
    <use xlink:href="#DejaVuSans-Bold-70"/>
    <use x="68.248047" xlink:href="#DejaVuSans-Bold-101"/>
    <use x="136.070312" xlink:href="#DejaVuSans-Bold-100"/>
    <use x="207.652344" xlink:href="#DejaVuSans-Bold-101"/>
    <use x="275.474609" xlink:href="#DejaVuSans-Bold-114"/>
    <use x="324.791016" xlink:href="#DejaVuSans-Bold-97"/>
    <use x="392.271484" xlink:href="#DejaVuSans-Bold-108"/>
    <use x="426.548828" xlink:href="#DejaVuSans-Bold-32"/>
    <use x="461.363281" xlink:href="#DejaVuSans-Bold-82"/>
    <use x="538.365234" xlink:href="#DejaVuSans-Bold-101"/>
    <use x="606.1875" xlink:href="#DejaVuSans-Bold-99"/>
    <use x="665.464844" xlink:href="#DejaVuSans-Bold-101"/>
    <use x="733.287109" xlink:href="#DejaVuSans-Bold-105"/>
    <use x="767.564453" xlink:href="#DejaVuSans-Bold-112"/>
    <use x="839.146484" xlink:href="#DejaVuSans-Bold-116"/>
    <use x="886.949219" xlink:href="#DejaVuSans-Bold-115"/>
    <use x="946.470703" xlink:href="#DejaVuSans-Bold-32"/>
    <use x="981.285156" xlink:href="#DejaVuSans-Bold-98"/>
    <use x="1052.867188" xlink:href="#DejaVuSans-Bold-121"/>
    <use x="1118.052734" xlink:href="#DejaVuSans-Bold-32"/>
    <use x="1152.867188" xlink:href="#DejaVuSans-Bold-67"/>
    <use x="1226.255859" xlink:href="#DejaVuSans-Bold-97"/>
    <use x="1293.736328" xlink:href="#DejaVuSans-Bold-116"/>
    <use x="1341.539062" xlink:href="#DejaVuSans-Bold-101"/>
    <use x="1409.361328" xlink:href="#DejaVuSans-Bold-103"/>
    <use x="1480.943359" xlink:href="#DejaVuSans-Bold-111"/>
    <use x="1549.644531" xlink:href="#DejaVuSans-Bold-114"/>
    <use x="1598.960938" xlink:href="#DejaVuSans-Bold-121"/>
    <use x="1664.037109" xlink:href="#DejaVuSans-Bold-44"/>
    <use x="1702.025391" xlink:href="#DejaVuSans-Bold-32"/>
    <use x="1736.839844" xlink:href="#DejaVuSans-Bold-49"/>
    <use x="1806.419922" xlink:href="#DejaVuSans-Bold-57"/>
    <use x="1876" xlink:href="#DejaVuSans-Bold-57"/>
    <use x="1945.580078" xlink:href="#DejaVuSans-Bold-53"/>
    <use x="2015.160156" xlink:href="#DejaVuSans-Bold-45"/>
    <use x="2056.664062" xlink:href="#DejaVuSans-Bold-50"/>
    <use x="2126.244141" xlink:href="#DejaVuSans-Bold-48"/>
    <use x="2195.824219" xlink:href="#DejaVuSans-Bold-49"/>
    <use x="2265.404297" xlink:href="#DejaVuSans-Bold-57"/>
   </g>
  </g>
  <g id="text_23">
   <!-- Amounts in 1995 CPI-U adjusted dollars -->
   <defs>
    <path d="M 34.1875 63.1875 
L 20.796875 26.90625 
L 47.609375 26.90625 
z
M 28.609375 72.90625 
L 39.796875 72.90625 
L 67.578125 0 
L 57.328125 0 
L 50.6875 18.703125 
L 17.828125 18.703125 
L 11.1875 0 
L 0.78125 0 
z
" id="DejaVuSans-65"/>
    <path d="M 12.40625 8.296875 
L 28.515625 8.296875 
L 28.515625 63.921875 
L 10.984375 60.40625 
L 10.984375 69.390625 
L 28.421875 72.90625 
L 38.28125 72.90625 
L 38.28125 8.296875 
L 54.390625 8.296875 
L 54.390625 0 
L 12.40625 0 
z
" id="DejaVuSans-49"/>
    <path d="M 10.984375 1.515625 
L 10.984375 10.5 
Q 14.703125 8.734375 18.5 7.8125 
Q 22.3125 6.890625 25.984375 6.890625 
Q 35.75 6.890625 40.890625 13.453125 
Q 46.046875 20.015625 46.78125 33.40625 
Q 43.953125 29.203125 39.59375 26.953125 
Q 35.25 24.703125 29.984375 24.703125 
Q 19.046875 24.703125 12.671875 31.3125 
Q 6.296875 37.9375 6.296875 49.421875 
Q 6.296875 60.640625 12.9375 67.421875 
Q 19.578125 74.21875 30.609375 74.21875 
Q 43.265625 74.21875 49.921875 64.515625 
Q 56.59375 54.828125 56.59375 36.375 
Q 56.59375 19.140625 48.40625 8.859375 
Q 40.234375 -1.421875 26.421875 -1.421875 
Q 22.703125 -1.421875 18.890625 -0.6875 
Q 15.09375 0.046875 10.984375 1.515625 
z
M 30.609375 32.421875 
Q 37.25 32.421875 41.125 36.953125 
Q 45.015625 41.5 45.015625 49.421875 
Q 45.015625 57.28125 41.125 61.84375 
Q 37.25 66.40625 30.609375 66.40625 
Q 23.96875 66.40625 20.09375 61.84375 
Q 16.21875 57.28125 16.21875 49.421875 
Q 16.21875 41.5 20.09375 36.953125 
Q 23.96875 32.421875 30.609375 32.421875 
z
" id="DejaVuSans-57"/>
    <path d="M 10.796875 72.90625 
L 49.515625 72.90625 
L 49.515625 64.59375 
L 19.828125 64.59375 
L 19.828125 46.734375 
Q 21.96875 47.46875 24.109375 47.828125 
Q 26.265625 48.1875 28.421875 48.1875 
Q 40.625 48.1875 47.75 41.5 
Q 54.890625 34.8125 54.890625 23.390625 
Q 54.890625 11.625 47.5625 5.09375 
Q 40.234375 -1.421875 26.90625 -1.421875 
Q 22.3125 -1.421875 17.546875 -0.640625 
Q 12.796875 0.140625 7.71875 1.703125 
L 7.71875 11.625 
Q 12.109375 9.234375 16.796875 8.0625 
Q 21.484375 6.890625 26.703125 6.890625 
Q 35.15625 6.890625 40.078125 11.328125 
Q 45.015625 15.765625 45.015625 23.390625 
Q 45.015625 31 40.078125 35.4375 
Q 35.15625 39.890625 26.703125 39.890625 
Q 22.75 39.890625 18.8125 39.015625 
Q 14.890625 38.140625 10.796875 36.28125 
z
" id="DejaVuSans-53"/>
    <path d="M 19.671875 64.796875 
L 19.671875 37.40625 
L 32.078125 37.40625 
Q 38.96875 37.40625 42.71875 40.96875 
Q 46.484375 44.53125 46.484375 51.125 
Q 46.484375 57.671875 42.71875 61.234375 
Q 38.96875 64.796875 32.078125 64.796875 
z
M 9.8125 72.90625 
L 32.078125 72.90625 
Q 44.34375 72.90625 50.609375 67.359375 
Q 56.890625 61.8125 56.890625 51.125 
Q 56.890625 40.328125 50.609375 34.8125 
Q 44.34375 29.296875 32.078125 29.296875 
L 19.671875 29.296875 
L 19.671875 0 
L 9.8125 0 
z
" id="DejaVuSans-80"/>
    <path d="M 4.890625 31.390625 
L 31.203125 31.390625 
L 31.203125 23.390625 
L 4.890625 23.390625 
z
" id="DejaVuSans-45"/>
    <path d="M 8.6875 72.90625 
L 18.609375 72.90625 
L 18.609375 28.609375 
Q 18.609375 16.890625 22.84375 11.734375 
Q 27.09375 6.59375 36.625 6.59375 
Q 46.09375 6.59375 50.34375 11.734375 
Q 54.59375 16.890625 54.59375 28.609375 
L 54.59375 72.90625 
L 64.5 72.90625 
L 64.5 27.390625 
Q 64.5 13.140625 57.4375 5.859375 
Q 50.390625 -1.421875 36.625 -1.421875 
Q 22.796875 -1.421875 15.734375 5.859375 
Q 8.6875 13.140625 8.6875 27.390625 
z
" id="DejaVuSans-85"/>
    <path d="M 9.421875 54.6875 
L 18.40625 54.6875 
L 18.40625 -0.984375 
Q 18.40625 -11.421875 14.421875 -16.109375 
Q 10.453125 -20.796875 1.609375 -20.796875 
L -1.8125 -20.796875 
L -1.8125 -13.1875 
L 0.59375 -13.1875 
Q 5.71875 -13.1875 7.5625 -10.8125 
Q 9.421875 -8.453125 9.421875 -0.984375 
z
M 9.421875 75.984375 
L 18.40625 75.984375 
L 18.40625 64.59375 
L 9.421875 64.59375 
z
" id="DejaVuSans-106"/>
   </defs>
   <g transform="translate(456.48 43.2)scale(0.14 -0.14)">
    <use xlink:href="#DejaVuSans-65"/>
    <use x="68.408203" xlink:href="#DejaVuSans-109"/>
    <use x="165.820312" xlink:href="#DejaVuSans-111"/>
    <use x="227.001953" xlink:href="#DejaVuSans-117"/>
    <use x="290.380859" xlink:href="#DejaVuSans-110"/>
    <use x="353.759766" xlink:href="#DejaVuSans-116"/>
    <use x="392.96875" xlink:href="#DejaVuSans-115"/>
    <use x="445.068359" xlink:href="#DejaVuSans-32"/>
    <use x="476.855469" xlink:href="#DejaVuSans-105"/>
    <use x="504.638672" xlink:href="#DejaVuSans-110"/>
    <use x="568.017578" xlink:href="#DejaVuSans-32"/>
    <use x="599.804688" xlink:href="#DejaVuSans-49"/>
    <use x="663.427734" xlink:href="#DejaVuSans-57"/>
    <use x="727.050781" xlink:href="#DejaVuSans-57"/>
    <use x="790.673828" xlink:href="#DejaVuSans-53"/>
    <use x="854.296875" xlink:href="#DejaVuSans-32"/>
    <use x="886.083984" xlink:href="#DejaVuSans-67"/>
    <use x="955.908203" xlink:href="#DejaVuSans-80"/>
    <use x="1016.210938" xlink:href="#DejaVuSans-73"/>
    <use x="1045.703125" xlink:href="#DejaVuSans-45"/>
    <use x="1081.787109" xlink:href="#DejaVuSans-85"/>
    <use x="1154.980469" xlink:href="#DejaVuSans-32"/>
    <use x="1186.767578" xlink:href="#DejaVuSans-97"/>
    <use x="1248.046875" xlink:href="#DejaVuSans-100"/>
    <use x="1311.523438" xlink:href="#DejaVuSans-106"/>
    <use x="1339.306641" xlink:href="#DejaVuSans-117"/>
    <use x="1402.685547" xlink:href="#DejaVuSans-115"/>
    <use x="1454.785156" xlink:href="#DejaVuSans-116"/>
    <use x="1493.994141" xlink:href="#DejaVuSans-101"/>
    <use x="1555.517578" xlink:href="#DejaVuSans-100"/>
    <use x="1618.994141" xlink:href="#DejaVuSans-32"/>
    <use x="1650.78125" xlink:href="#DejaVuSans-100"/>
    <use x="1714.257812" xlink:href="#DejaVuSans-111"/>
    <use x="1775.439453" xlink:href="#DejaVuSans-108"/>
    <use x="1803.222656" xlink:href="#DejaVuSans-108"/>
    <use x="1831.005859" xlink:href="#DejaVuSans-97"/>
    <use x="1892.285156" xlink:href="#DejaVuSans-114"/>
    <use x="1933.398438" xlink:href="#DejaVuSans-115"/>
   </g>
  </g>
  <g id="text_24">
   <!-- https://codyhatch.com -->
   <defs>
    <path d="M 11.71875 12.40625 
L 22.015625 12.40625 
L 22.015625 0 
L 11.71875 0 
z
M 11.71875 51.703125 
L 22.015625 51.703125 
L 22.015625 39.3125 
L 11.71875 39.3125 
z
" id="DejaVuSans-58"/>
    <path d="M 25.390625 72.90625 
L 33.6875 72.90625 
L 8.296875 -9.28125 
L 0 -9.28125 
z
" id="DejaVuSans-47"/>
    <path d="M 32.171875 -5.078125 
Q 28.375 -14.84375 24.75 -17.8125 
Q 21.140625 -20.796875 15.09375 -20.796875 
L 7.90625 -20.796875 
L 7.90625 -13.28125 
L 13.1875 -13.28125 
Q 16.890625 -13.28125 18.9375 -11.515625 
Q 21 -9.765625 23.484375 -3.21875 
L 25.09375 0.875 
L 2.984375 54.6875 
L 12.5 54.6875 
L 29.59375 11.921875 
L 46.6875 54.6875 
L 56.203125 54.6875 
z
" id="DejaVuSans-121"/>
    <path d="M 10.6875 12.40625 
L 21 12.40625 
L 21 0 
L 10.6875 0 
z
" id="DejaVuSans-46"/>
   </defs>
   <g style="fill:#808080;" transform="translate(7.2 763.2)scale(0.12 -0.12)">
    <use xlink:href="#DejaVuSans-104"/>
    <use x="63.378906" xlink:href="#DejaVuSans-116"/>
    <use x="102.587891" xlink:href="#DejaVuSans-116"/>
    <use x="141.796875" xlink:href="#DejaVuSans-112"/>
    <use x="205.273438" xlink:href="#DejaVuSans-115"/>
    <use x="257.373047" xlink:href="#DejaVuSans-58"/>
    <use x="291.064453" xlink:href="#DejaVuSans-47"/>
    <use x="324.755859" xlink:href="#DejaVuSans-47"/>
    <use x="358.447266" xlink:href="#DejaVuSans-99"/>
    <use x="413.427734" xlink:href="#DejaVuSans-111"/>
    <use x="474.609375" xlink:href="#DejaVuSans-100"/>
    <use x="538.085938" xlink:href="#DejaVuSans-121"/>
    <use x="597.265625" xlink:href="#DejaVuSans-104"/>
    <use x="660.644531" xlink:href="#DejaVuSans-97"/>
    <use x="721.923828" xlink:href="#DejaVuSans-116"/>
    <use x="761.132812" xlink:href="#DejaVuSans-99"/>
    <use x="816.113281" xlink:href="#DejaVuSans-104"/>
    <use x="879.492188" xlink:href="#DejaVuSans-46"/>
    <use x="911.279297" xlink:href="#DejaVuSans-99"/>
    <use x="966.259766" xlink:href="#DejaVuSans-111"/>
    <use x="1027.441406" xlink:href="#DejaVuSans-109"/>
   </g>
  </g>
  <g id="text_25">
   <!-- Source: http://www.whitehouse.gov/omb/budget/Historicals -->
   <defs>
    <path d="M 4.203125 54.6875 
L 13.1875 54.6875 
L 24.421875 12.015625 
L 35.59375 54.6875 
L 46.1875 54.6875 
L 57.421875 12.015625 
L 68.609375 54.6875 
L 77.59375 54.6875 
L 63.28125 0 
L 52.6875 0 
L 40.921875 44.828125 
L 29.109375 0 
L 18.5 0 
z
" id="DejaVuSans-119"/>
    <path d="M 45.40625 27.984375 
Q 45.40625 37.75 41.375 43.109375 
Q 37.359375 48.484375 30.078125 48.484375 
Q 22.859375 48.484375 18.828125 43.109375 
Q 14.796875 37.75 14.796875 27.984375 
Q 14.796875 18.265625 18.828125 12.890625 
Q 22.859375 7.515625 30.078125 7.515625 
Q 37.359375 7.515625 41.375 12.890625 
Q 45.40625 18.265625 45.40625 27.984375 
z
M 54.390625 6.78125 
Q 54.390625 -7.171875 48.1875 -13.984375 
Q 42 -20.796875 29.203125 -20.796875 
Q 24.46875 -20.796875 20.265625 -20.09375 
Q 16.0625 -19.390625 12.109375 -17.921875 
L 12.109375 -9.1875 
Q 16.0625 -11.328125 19.921875 -12.34375 
Q 23.78125 -13.375 27.78125 -13.375 
Q 36.625 -13.375 41.015625 -8.765625 
Q 45.40625 -4.15625 45.40625 5.171875 
L 45.40625 9.625 
Q 42.625 4.78125 38.28125 2.390625 
Q 33.9375 0 27.875 0 
Q 17.828125 0 11.671875 7.65625 
Q 5.515625 15.328125 5.515625 27.984375 
Q 5.515625 40.671875 11.671875 48.328125 
Q 17.828125 56 27.875 56 
Q 33.9375 56 38.28125 53.609375 
Q 42.625 51.21875 45.40625 46.390625 
L 45.40625 54.6875 
L 54.390625 54.6875 
z
" id="DejaVuSans-103"/>
    <path d="M 2.984375 54.6875 
L 12.5 54.6875 
L 29.59375 8.796875 
L 46.6875 54.6875 
L 56.203125 54.6875 
L 35.6875 0 
L 23.484375 0 
z
" id="DejaVuSans-118"/>
    <path d="M 48.6875 27.296875 
Q 48.6875 37.203125 44.609375 42.84375 
Q 40.53125 48.484375 33.40625 48.484375 
Q 26.265625 48.484375 22.1875 42.84375 
Q 18.109375 37.203125 18.109375 27.296875 
Q 18.109375 17.390625 22.1875 11.75 
Q 26.265625 6.109375 33.40625 6.109375 
Q 40.53125 6.109375 44.609375 11.75 
Q 48.6875 17.390625 48.6875 27.296875 
z
M 18.109375 46.390625 
Q 20.953125 51.265625 25.265625 53.625 
Q 29.59375 56 35.59375 56 
Q 45.5625 56 51.78125 48.09375 
Q 58.015625 40.1875 58.015625 27.296875 
Q 58.015625 14.40625 51.78125 6.484375 
Q 45.5625 -1.421875 35.59375 -1.421875 
Q 29.59375 -1.421875 25.265625 0.953125 
Q 20.953125 3.328125 18.109375 8.203125 
L 18.109375 0 
L 9.078125 0 
L 9.078125 75.984375 
L 18.109375 75.984375 
z
" id="DejaVuSans-98"/>
    <path d="M 9.8125 72.90625 
L 19.671875 72.90625 
L 19.671875 43.015625 
L 55.515625 43.015625 
L 55.515625 72.90625 
L 65.375 72.90625 
L 65.375 0 
L 55.515625 0 
L 55.515625 34.71875 
L 19.671875 34.71875 
L 19.671875 0 
L 9.8125 0 
z
" id="DejaVuSans-72"/>
   </defs>
   <g style="fill:#808080;" transform="translate(744.48 763.2)scale(0.12 -0.12)">
    <use xlink:href="#DejaVuSans-83"/>
    <use x="63.476562" xlink:href="#DejaVuSans-111"/>
    <use x="124.658203" xlink:href="#DejaVuSans-117"/>
    <use x="188.037109" xlink:href="#DejaVuSans-114"/>
    <use x="229.119141" xlink:href="#DejaVuSans-99"/>
    <use x="284.099609" xlink:href="#DejaVuSans-101"/>
    <use x="345.623047" xlink:href="#DejaVuSans-58"/>
    <use x="379.314453" xlink:href="#DejaVuSans-32"/>
    <use x="411.101562" xlink:href="#DejaVuSans-104"/>
    <use x="474.480469" xlink:href="#DejaVuSans-116"/>
    <use x="513.689453" xlink:href="#DejaVuSans-116"/>
    <use x="552.898438" xlink:href="#DejaVuSans-112"/>
    <use x="616.375" xlink:href="#DejaVuSans-58"/>
    <use x="650.066406" xlink:href="#DejaVuSans-47"/>
    <use x="683.757812" xlink:href="#DejaVuSans-47"/>
    <use x="717.449219" xlink:href="#DejaVuSans-119"/>
    <use x="799.236328" xlink:href="#DejaVuSans-119"/>
    <use x="881.023438" xlink:href="#DejaVuSans-119"/>
    <use x="962.669922" xlink:href="#DejaVuSans-46"/>
    <use x="994.457031" xlink:href="#DejaVuSans-119"/>
    <use x="1076.244141" xlink:href="#DejaVuSans-104"/>
    <use x="1139.623047" xlink:href="#DejaVuSans-105"/>
    <use x="1167.40625" xlink:href="#DejaVuSans-116"/>
    <use x="1206.615234" xlink:href="#DejaVuSans-101"/>
    <use x="1268.138672" xlink:href="#DejaVuSans-104"/>
    <use x="1331.517578" xlink:href="#DejaVuSans-111"/>
    <use x="1392.699219" xlink:href="#DejaVuSans-117"/>
    <use x="1456.078125" xlink:href="#DejaVuSans-115"/>
    <use x="1508.177734" xlink:href="#DejaVuSans-101"/>
    <use x="1569.701172" xlink:href="#DejaVuSans-46"/>
    <use x="1601.488281" xlink:href="#DejaVuSans-103"/>
    <use x="1664.964844" xlink:href="#DejaVuSans-111"/>
    <use x="1726.146484" xlink:href="#DejaVuSans-118"/>
    <use x="1785.326172" xlink:href="#DejaVuSans-47"/>
    <use x="1819.017578" xlink:href="#DejaVuSans-111"/>
    <use x="1880.199219" xlink:href="#DejaVuSans-109"/>
    <use x="1977.611328" xlink:href="#DejaVuSans-98"/>
    <use x="2041.087891" xlink:href="#DejaVuSans-47"/>
    <use x="2074.779297" xlink:href="#DejaVuSans-98"/>
    <use x="2138.255859" xlink:href="#DejaVuSans-117"/>
    <use x="2201.634766" xlink:href="#DejaVuSans-100"/>
    <use x="2265.111328" xlink:href="#DejaVuSans-103"/>
    <use x="2328.587891" xlink:href="#DejaVuSans-101"/>
    <use x="2390.111328" xlink:href="#DejaVuSans-116"/>
    <use x="2429.320312" xlink:href="#DejaVuSans-47"/>
    <use x="2463.011719" xlink:href="#DejaVuSans-72"/>
    <use x="2538.207031" xlink:href="#DejaVuSans-105"/>
    <use x="2565.990234" xlink:href="#DejaVuSans-115"/>
    <use x="2618.089844" xlink:href="#DejaVuSans-116"/>
    <use x="2657.298828" xlink:href="#DejaVuSans-111"/>
    <use x="2718.480469" xlink:href="#DejaVuSans-114"/>
    <use x="2759.59375" xlink:href="#DejaVuSans-105"/>
    <use x="2787.376953" xlink:href="#DejaVuSans-99"/>
    <use x="2842.357422" xlink:href="#DejaVuSans-97"/>
    <use x="2903.636719" xlink:href="#DejaVuSans-108"/>
    <use x="2931.419922" xlink:href="#DejaVuSans-115"/>
   </g>
  </g>
  <g id="text_26">
   <!-- Source: U.S. Department of Labor Bureau of Labor Statistics -->
   <defs>
    <path d="M 37.109375 75.984375 
L 37.109375 68.5 
L 28.515625 68.5 
Q 23.6875 68.5 21.796875 66.546875 
Q 19.921875 64.59375 19.921875 59.515625 
L 19.921875 54.6875 
L 34.71875 54.6875 
L 34.71875 47.703125 
L 19.921875 47.703125 
L 19.921875 0 
L 10.890625 0 
L 10.890625 47.703125 
L 2.296875 47.703125 
L 2.296875 54.6875 
L 10.890625 54.6875 
L 10.890625 58.5 
Q 10.890625 67.625 15.140625 71.796875 
Q 19.390625 75.984375 28.609375 75.984375 
z
" id="DejaVuSans-102"/>
    <path d="M 9.8125 72.90625 
L 19.671875 72.90625 
L 19.671875 8.296875 
L 55.171875 8.296875 
L 55.171875 0 
L 9.8125 0 
z
" id="DejaVuSans-76"/>
   </defs>
   <g style="fill:#808080;" transform="translate(744.48 748.8)scale(0.12 -0.12)">
    <use xlink:href="#DejaVuSans-83"/>
    <use x="63.476562" xlink:href="#DejaVuSans-111"/>
    <use x="124.658203" xlink:href="#DejaVuSans-117"/>
    <use x="188.037109" xlink:href="#DejaVuSans-114"/>
    <use x="229.119141" xlink:href="#DejaVuSans-99"/>
    <use x="284.099609" xlink:href="#DejaVuSans-101"/>
    <use x="345.623047" xlink:href="#DejaVuSans-58"/>
    <use x="379.314453" xlink:href="#DejaVuSans-32"/>
    <use x="411.101562" xlink:href="#DejaVuSans-85"/>
    <use x="484.294922" xlink:href="#DejaVuSans-46"/>
    <use x="516.082031" xlink:href="#DejaVuSans-83"/>
    <use x="579.558594" xlink:href="#DejaVuSans-46"/>
    <use x="611.345703" xlink:href="#DejaVuSans-32"/>
    <use x="643.132812" xlink:href="#DejaVuSans-68"/>
    <use x="720.134766" xlink:href="#DejaVuSans-101"/>
    <use x="781.658203" xlink:href="#DejaVuSans-112"/>
    <use x="845.134766" xlink:href="#DejaVuSans-97"/>
    <use x="906.414062" xlink:href="#DejaVuSans-114"/>
    <use x="947.527344" xlink:href="#DejaVuSans-116"/>
    <use x="986.736328" xlink:href="#DejaVuSans-109"/>
    <use x="1084.148438" xlink:href="#DejaVuSans-101"/>
    <use x="1145.671875" xlink:href="#DejaVuSans-110"/>
    <use x="1209.050781" xlink:href="#DejaVuSans-116"/>
    <use x="1248.259766" xlink:href="#DejaVuSans-32"/>
    <use x="1280.046875" xlink:href="#DejaVuSans-111"/>
    <use x="1341.228516" xlink:href="#DejaVuSans-102"/>
    <use x="1376.433594" xlink:href="#DejaVuSans-32"/>
    <use x="1408.220703" xlink:href="#DejaVuSans-76"/>
    <use x="1463.933594" xlink:href="#DejaVuSans-97"/>
    <use x="1525.212891" xlink:href="#DejaVuSans-98"/>
    <use x="1588.689453" xlink:href="#DejaVuSans-111"/>
    <use x="1649.871094" xlink:href="#DejaVuSans-114"/>
    <use x="1690.984375" xlink:href="#DejaVuSans-32"/>
    <use x="1722.771484" xlink:href="#DejaVuSans-66"/>
    <use x="1791.375" xlink:href="#DejaVuSans-117"/>
    <use x="1854.753906" xlink:href="#DejaVuSans-114"/>
    <use x="1895.835938" xlink:href="#DejaVuSans-101"/>
    <use x="1957.359375" xlink:href="#DejaVuSans-97"/>
    <use x="2018.638672" xlink:href="#DejaVuSans-117"/>
    <use x="2082.017578" xlink:href="#DejaVuSans-32"/>
    <use x="2113.804688" xlink:href="#DejaVuSans-111"/>
    <use x="2174.986328" xlink:href="#DejaVuSans-102"/>
    <use x="2210.191406" xlink:href="#DejaVuSans-32"/>
    <use x="2241.978516" xlink:href="#DejaVuSans-76"/>
    <use x="2297.691406" xlink:href="#DejaVuSans-97"/>
    <use x="2358.970703" xlink:href="#DejaVuSans-98"/>
    <use x="2422.447266" xlink:href="#DejaVuSans-111"/>
    <use x="2483.628906" xlink:href="#DejaVuSans-114"/>
    <use x="2524.742188" xlink:href="#DejaVuSans-32"/>
    <use x="2556.529297" xlink:href="#DejaVuSans-83"/>
    <use x="2620.005859" xlink:href="#DejaVuSans-116"/>
    <use x="2659.214844" xlink:href="#DejaVuSans-97"/>
    <use x="2720.494141" xlink:href="#DejaVuSans-116"/>
    <use x="2759.703125" xlink:href="#DejaVuSans-105"/>
    <use x="2787.486328" xlink:href="#DejaVuSans-115"/>
    <use x="2839.585938" xlink:href="#DejaVuSans-116"/>
    <use x="2878.794922" xlink:href="#DejaVuSans-105"/>
    <use x="2906.578125" xlink:href="#DejaVuSans-99"/>
    <use x="2961.558594" xlink:href="#DejaVuSans-115"/>
   </g>
  </g>
 </g>
 <defs>
  <clipPath id="p0d8ce6b7ae">
   <rect height="583.2" width="1002.24" x="110.88" y="79.2"/>
  </clipPath>
 </defs>
</svg>
